<svg xmlns="http://www.w3.org/2000/svg" viewBox="0 0 121.59 123.56"><g id="Objects"><g style="opacity:0.4000000059604645;isolation:isolate"><path d="M13.31,4h97a11.24,11.24,0,0,1,11.24,11.24V63.79a59.76,59.76,0,0,1-59.76,59.76h0A59.76,59.76,0,0,1,2.07,63.79V15.28A11.24,11.24,0,0,1,13.31,4Z" style="fill:#442309"/><path id="SVGID" d="M13.31,4h97a11.24,11.24,0,0,1,11.24,11.24V63.79a59.76,59.76,0,0,1-59.76,59.76h0A59.76,59.76,0,0,1,2.07,63.79V15.28A11.24,11.24,0,0,1,13.31,4Z" style="fill:#442309"/></g><path d="M417.43,433.26h0a59.76,59.76,0,0,1-59.76-59.76V320.83a7.09,7.09,0,0,1,7.09-7.09H470.11l1.65,0c.78,0,1.42,0,1.84,0,.2,0,.76,0,1.49,0l.68,0a4.32,4.32,0,0,1,3.15,2.23.25.25,0,0,1,0,.19.2.2,0,0,1-.13.05h-1.59V373.5A59.75,59.75,0,0,1,417.43,433.26Z" transform="translate(-357.67 -313.71)" style="fill:#008776"/><path d="M469.2,313.74V373.5a51.77,51.77,0,1,1-103.53,0V313.74" transform="translate(-357.67 -313.71)" style="fill:none;stroke:#fef8f1;stroke-miterlimit:10;stroke-width:3px"/><line x1="107.47" y1="0.04" x2="107.47" y2="1.04" style="fill:none;stroke:#fef8f1;stroke-miterlimit:10"/><path d="M465.14,316.73v54.12c0,27.28-21.25,49.47-47.38,49.47s-47.39-22.19-47.39-49.47V315.73" transform="translate(-357.67 -313.71)" style="fill:none;stroke:#fef8f1;stroke-miterlimit:10;stroke-dasharray:1.9872956275939941,1.9872956275939941"/><line x1="12.7" y1="1.04" x2="12.7" y2="0.04" style="fill:none;stroke:#fef8f1;stroke-miterlimit:10"/><path d="M442.45,337.43q5.3,6.45,4,15.84-1.49,10.47-8.69,14.6t-18.29,2.55l-1.65,9.44-7.88-1.12,1.84-15.83,2.89.41q9.89,1.41,15.9-.8T437.73,352q.86-6-2.25-10t-9.19-4.87q-6.18-.89-10.21,2a12.1,12.1,0,0,0-4.83,8.64l-8.59-1.22a20.45,20.45,0,0,1,4.19-10.15,18.34,18.34,0,0,1,8.64-6,25.26,25.26,0,0,1,11.78-.87Q437.16,331,442.45,337.43Zm-35.69,59.91a6.25,6.25,0,0,1,5.89-10,5.76,5.76,0,0,1,4,2.4,6.44,6.44,0,0,1-1.24,8.78,5.73,5.73,0,0,1-4.5,1.2A6,6,0,0,1,406.76,397.34Z" transform="translate(-357.67 -313.71)" style="fill:#442309"/><path d="M441.82,336.21q5.3,6.45,4,15.84-1.48,10.49-8.69,14.6T418.8,369.2l-1.64,9.44-7.89-1.11,1.84-15.84,2.89.42q9.88,1.39,15.91-.8t7.19-10.49q.84-6-2.25-10T425.66,336q-6.2-.87-10.21,2t-4.84,8.63L402,345.33a20.58,20.58,0,0,1,4.19-10.15,18.37,18.37,0,0,1,8.64-5.95,25.26,25.26,0,0,1,11.78-.88Q436.52,329.76,441.82,336.21Zm-35.7,59.91a6.26,6.26,0,0,1,5.9-10,5.8,5.8,0,0,1,4,2.4,6.47,6.47,0,0,1-1.25,8.79,5.76,5.76,0,0,1-4.5,1.19A6,6,0,0,1,406.12,396.12Z" transform="translate(-357.67 -313.71)" style="fill:#fef8f1"/></g></svg>