<svg width="1720" height="2000" viewBox="0 0 1720 2000" fill="none" xmlns="http://www.w3.org/2000/svg">
<path d="M0 0H1720V2000H0V0Z" fill="#FEF7F1"/>
<path d="M1597.75 943.437C1584.26 931.226 1583.39 910.293 1595.57 896.773C1607.76 883.254 1628.64 882.382 1642.13 894.593L1636.47 901.134C1626.46 891.976 1611.24 892.848 1602.1 902.879C1592.96 912.909 1593.83 928.173 1603.84 937.332L1597.75 943.437Z" fill="#8C5E37" fill-opacity="0.1"/>
<path d="M1100.96 329.477L1097.48 324.68C1101.39 322.063 1103.57 317.702 1104.44 313.341C1105.31 308.544 1104 304.183 1101.39 300.258C1095.74 292.408 1084.86 290.663 1077.03 296.333L1073.55 291.536C1083.99 283.686 1098.78 286.302 1106.18 296.769C1109.66 302.002 1111.4 308.108 1110.53 314.213C1109.66 320.319 1106.18 325.552 1100.96 329.477Z" fill="#8C5E37" fill-opacity="0.1"/>
<path d="M1451.97 1785.15L1445.88 1781.23L1460.24 1755.93L1435 1741.11L1438.48 1735L1470.24 1753.32L1451.97 1785.15Z" fill="#8C5E37" fill-opacity="0.1"/>
<path d="M445.945 1605.66C445.075 1605.66 444.205 1605.23 443.769 1603.92L438.113 1584.73C437.678 1583.42 438.548 1582.11 439.854 1582.11C441.159 1581.68 442.464 1582.55 442.464 1583.86L448.12 1603.05C448.556 1604.36 447.685 1605.66 446.38 1605.66C446.38 1605.66 445.945 1605.66 445.945 1605.66Z" fill="#8C5E37" fill-opacity="0.1"/>
<path d="M1412.99 196.542C1416.47 196.542 1419.51 197.85 1422.12 199.594C1425.17 202.211 1427.34 205.7 1427.78 209.625C1428.21 213.55 1427.34 217.475 1424.73 220.964C1421.69 224.453 1417.34 226.633 1412.99 226.633C1409.5 226.633 1406.46 225.325 1403.85 223.58C1397.32 218.347 1396.02 208.753 1401.24 202.211C1403.85 198.722 1408.2 196.542 1412.99 196.542ZM1412.99 190C1406.46 190 1399.93 193.053 1395.58 198.286C1388.18 207.881 1389.93 221.836 1399.5 229.25C1403.41 232.303 1408.2 234.047 1412.99 234.047C1419.51 234.047 1426.04 230.994 1430.39 225.761C1437.79 216.167 1436.05 202.211 1426.47 194.797C1422.56 191.308 1417.77 190 1412.99 190Z" fill="#8C5E37" fill-opacity="0.1"/>
<path d="M253.526 1509.59L272.236 1520.06L275.281 1540.99L256.572 1530.53L253.526 1509.59ZM247 1500L251.786 1534.02L281.808 1550.59L277.022 1516.57L247 1500Z" fill="#8C5E37" fill-opacity="0.1"/>
<path d="M1156.77 1682.23C1154.16 1682.23 1151.55 1681.79 1149.37 1680.48C1145.46 1678.3 1142.85 1674.82 1141.98 1670.45C1141.54 1667.84 1139.8 1666.09 1138.06 1664.78C1135.88 1663.48 1133.71 1663.48 1131.1 1664.35C1126.75 1665.66 1122.4 1665.22 1118.48 1663.48C1114.57 1661.3 1111.95 1657.81 1111.08 1653.45C1110.65 1651.7 1111.95 1649.52 1113.69 1649.08C1115.44 1648.65 1117.61 1649.96 1118.05 1651.7C1118.48 1654.32 1120.22 1656.06 1121.96 1657.37C1124.14 1658.68 1126.31 1658.68 1128.92 1657.81C1133.27 1656.5 1137.63 1656.93 1141.54 1658.68C1145.46 1660.86 1148.07 1664.35 1148.94 1668.71C1149.37 1671.33 1151.11 1673.07 1152.85 1674.38C1155.03 1675.69 1157.2 1675.69 1159.82 1674.82C1161.56 1674.38 1163.73 1675.25 1164.17 1677C1164.6 1678.74 1163.73 1680.92 1161.99 1681.36C1160.25 1681.79 1158.51 1682.23 1156.77 1682.23Z" fill="#8C5E37" fill-opacity="0.1"/>
<path d="M577.702 1926.33C576.397 1926.33 575.526 1925.89 574.656 1925.02C570.74 1921.09 569 1915.86 569 1910.63C569.435 1905.39 571.611 1900.6 575.962 1897.11C578.137 1895.36 579.877 1892.75 579.877 1889.69C579.877 1886.64 579.007 1884.02 576.832 1881.84C572.916 1877.92 571.175 1872.69 571.175 1867.45C571.611 1862.22 573.786 1857.42 578.137 1853.93C579.877 1852.62 582.488 1852.62 584.228 1854.37C585.534 1856.11 585.534 1858.73 583.793 1860.47C581.618 1862.22 579.877 1864.84 579.877 1867.89C579.877 1870.94 580.748 1873.56 582.923 1875.74C586.839 1879.66 588.579 1884.9 588.579 1890.13C588.144 1895.36 585.969 1900.16 581.618 1903.65C579.442 1905.39 577.702 1908.01 577.702 1911.06C577.702 1914.12 578.572 1916.73 580.748 1918.91C582.488 1920.66 582.488 1923.27 580.748 1925.02C579.877 1925.89 578.572 1926.33 577.702 1926.33Z" fill="#8C5E37" fill-opacity="0.1"/>
<path d="M46.2814 565.972C43.2357 565.972 40.1901 565.536 37.5795 564.664C29.3126 562.483 22.351 556.814 18 549.4L25.3967 545.475C28.4424 551.144 33.6636 555.069 39.755 556.814C45.8463 558.558 52.3729 557.686 58.0291 554.633C69.7768 548.092 73.6927 533.7 67.1662 521.925L74.5629 518C83.2649 533.7 77.6086 553.325 61.945 562.047C57.1589 564.664 51.5026 565.972 46.2814 565.972Z" fill="#8C5E37" fill-opacity="0.1"/>
<path d="M122.808 298.356C126.289 298.356 129.334 299.664 131.075 302.717C132.815 304.897 133.685 307.95 133.25 310.567C132.815 313.184 131.51 315.8 129.334 317.545C127.594 318.853 125.418 319.725 122.808 319.725C119.327 319.725 116.281 318.417 114.541 315.364C112.8 313.184 111.93 310.131 112.365 307.514C112.8 304.897 114.106 302.281 116.281 300.536C118.022 299.228 120.197 298.356 122.808 298.356ZM122.808 293.559C119.762 293.559 116.281 294.431 113.671 296.611C107.144 301.845 105.839 311.439 110.625 317.981C113.671 321.906 118.022 324.086 122.808 324.086C125.853 324.086 129.334 323.214 131.945 321.034C138.471 315.8 139.777 306.206 134.991 299.664C131.945 295.739 127.159 293.559 122.808 293.559Z" fill="#8C5E37" fill-opacity="0.1"/>
<path d="M1426.55 1339.54L1417.85 1357.42L1398.27 1361.35L1406.97 1343.47L1426.55 1339.54ZM1435.25 1333L1403.92 1339.11L1390 1367.89L1421.33 1361.78L1435.25 1333Z" fill="#8C5E37" fill-opacity="0.1"/>
<path d="M402.609 834.131C397.823 834.131 393.036 832.386 389.121 829.333C384.334 825.408 381.724 819.739 381.289 813.633C381.289 810.144 379.548 807.092 376.938 804.911C374.327 802.731 371.281 801.858 367.801 802.294C361.709 803.167 355.618 801.858 350.832 797.933C346.046 794.008 343.435 788.339 343 782.233C343 779.617 344.74 777.436 347.786 777C350.397 777 352.572 778.744 353.007 781.797C353.007 785.286 354.748 788.339 357.358 790.519C359.969 792.7 363.015 793.572 366.495 793.136C372.587 792.264 378.678 793.572 383.464 797.497C388.25 801.422 390.861 807.092 391.296 813.197C391.296 816.686 393.036 819.739 395.647 821.919C398.258 824.1 401.303 824.972 404.784 824.536C407.395 824.1 410.005 825.844 410.44 828.461C410.876 831.078 409.135 833.695 406.525 834.131C404.784 834.131 403.479 834.131 402.609 834.131Z" fill="#8C5E37" fill-opacity="0.1"/>
<path d="M1296.94 421.664C1296.07 421.664 1295.2 421.227 1294.77 419.919L1289.11 400.73C1288.68 399.422 1289.55 398.113 1290.85 398.113C1292.16 397.677 1293.46 398.55 1293.46 399.858L1299.12 419.047C1299.56 420.355 1298.69 421.664 1297.38 421.664C1297.38 421.664 1296.94 421.664 1296.94 421.664Z" fill="#8C5E37" fill-opacity="0.1"/>
</svg>
