<svg xmlns="http://www.w3.org/2000/svg" viewBox="0 0 1294 3092.43">
  <g id="Bg">
    <rect width="1294" height="3092.43" style="fill: #fff; opacity: 0" />
  </g>
  <g id="Layer_1" data-name="Layer 1">
    <path
      d="M238.42,2306.78,220.69,2317a7.83,7.83,0,0,1-7.08-.3l-16.7-9.64c-2.1-1.21-2.33-3-.51-4.09l17.72-10.23a7.86,7.86,0,0,1,7.08.29l16.71,9.65C240,2303.9,240.23,2305.73,238.42,2306.78Z"
      style="fill: #150035"
    />
    <path
      d="M281.85,2281.7l-17.71,10.23a7.92,7.92,0,0,1-7.09-.3l-16.7-9.64c-2.1-1.21-2.33-3-.51-4.09l17.72-10.23a7.86,7.86,0,0,1,7.08.29l16.71,9.64C283.44,2278.82,283.67,2280.65,281.85,2281.7Z"
      style="fill: #150035"
    />
    <path
      d="M279.65,2330.58l-17.72,10.23a7.88,7.88,0,0,1-7.09-.29l-16.7-9.64c-2.1-1.21-2.33-3.05-.51-4.1l17.72-10.23a7.92,7.92,0,0,1,7.09.3l16.7,9.64C281.23,2327.7,281.46,2329.53,279.65,2330.58Z"
      style="fill: #150035"
    />
    <path
      d="M236.2,2355.66l-17.72,10.23a7.86,7.86,0,0,1-7.08-.29L194.7,2356c-2.1-1.21-2.33-3.05-.51-4.1l17.72-10.23a7.92,7.92,0,0,1,7.09.3l16.7,9.64C237.79,2352.78,238,2354.61,236.2,2355.66Z"
      style="fill: #150035"
    />
    <path
      d="M323.09,2305.5l-17.72,10.23a7.88,7.88,0,0,1-7.09-.29l-16.7-9.64c-2.1-1.22-2.32-3.05-.51-4.1l17.72-10.23a7.88,7.88,0,0,1,7.09.3l16.7,9.64C324.68,2302.62,324.9,2304.45,323.09,2305.5Z"
      style="fill: #150035"
    />
    <path
      d="M366.53,2280.42l-17.72,10.23a7.88,7.88,0,0,1-7.09-.29l-16.7-9.65c-2.1-1.21-2.32-3-.51-4.09l17.72-10.23a7.88,7.88,0,0,1,7.09.3l16.7,9.64C368.12,2277.54,368.35,2279.37,366.53,2280.42Z"
      style="fill: #150035"
    />
    <path
      d="M323.28,2355.77,305.56,2366a7.88,7.88,0,0,1-7.09-.29l-16.7-9.64c-2.1-1.21-2.32-3.05-.51-4.1L299,2341.75a7.88,7.88,0,0,1,7.09.29l16.7,9.64C324.87,2352.89,325.09,2354.72,323.28,2355.77Z"
      style="fill: #150035"
    />
    <path
      d="M279.84,2380.85l-17.72,10.23a7.88,7.88,0,0,1-7.09-.29l-16.7-9.64c-2.1-1.21-2.32-3-.51-4.09l17.72-10.23a7.88,7.88,0,0,1,7.09.29l16.7,9.64C281.43,2378,281.65,2379.81,279.84,2380.85Z"
      style="fill: #150035"
    />
    <path
      d="M366.72,2330.69,349,2340.92a7.88,7.88,0,0,1-7.09-.29l-16.7-9.64c-2.1-1.21-2.32-3-.51-4.1l17.72-10.23a7.92,7.92,0,0,1,7.09.3l16.7,9.64C368.31,2327.81,368.54,2329.64,366.72,2330.69Z"
      style="fill: #150035"
    />
    <path
      d="M410.16,2305.61l-17.72,10.23a7.88,7.88,0,0,1-7.09-.29l-16.7-9.64c-2.09-1.21-2.32-3-.51-4.1l17.72-10.23a7.88,7.88,0,0,1,7.09.3l16.7,9.64C411.75,2302.73,412,2304.56,410.16,2305.61Z"
      style="fill: #150035"
    />
    <path
      d="M364.51,2379.58l-17.72,10.23a7.88,7.88,0,0,1-7.09-.3l-16.7-9.64c-2.09-1.21-2.32-3-.51-4.09l17.72-10.23a7.88,7.88,0,0,1,7.09.29l16.7,9.65C366.1,2376.7,366.33,2378.53,364.51,2379.58Z"
      style="fill: #150035"
    />
    <path
      d="M408,2354.5l-17.72,10.23a7.88,7.88,0,0,1-7.09-.3l-16.7-9.64c-2.09-1.21-2.32-3-.5-4.09l17.71-10.23a7.88,7.88,0,0,1,7.09.29l16.7,9.65C409.54,2351.62,409.77,2353.45,408,2354.5Z"
      style="fill: #150035"
    />
    <path
      d="M931.7,2620.86l17.72,10.23a7.86,7.86,0,0,0,7.08-.29l16.71-9.64c2.09-1.22,2.32-3,.51-4.1L956,2606.83a7.88,7.88,0,0,0-7.09.3l-16.7,9.64C930.11,2618,929.88,2619.81,931.7,2620.86Z"
      style="fill: #150035"
    />
    <path
      d="M890.47,2644.67l17.72,10.23a7.86,7.86,0,0,0,7.08-.3L932,2645c2.09-1.21,2.32-3,.5-4.09l-17.72-10.23a7.86,7.86,0,0,0-7.08.29l-16.7,9.64C888.88,2641.79,888.65,2643.62,890.47,2644.67Z"
      style="fill: #150035"
    />
    <path
      d="M933.91,2669.75,951.63,2680a7.83,7.83,0,0,0,7.08-.3l16.7-9.64c2.1-1.21,2.33-3,.51-4.09l-17.71-10.23a7.88,7.88,0,0,0-7.09.29l-16.7,9.65C932.32,2666.87,932.09,2668.7,933.91,2669.75Z"
      style="fill: #150035"
    />
    <path
      d="M846.83,2669.86l17.73,10.23a7.86,7.86,0,0,0,7.08-.29l16.7-9.65c2.1-1.21,2.33-3,.51-4.09l-17.72-10.23a7.88,7.88,0,0,0-7.09.29l-16.7,9.65C845.24,2667,845,2668.81,846.83,2669.86Z"
      style="fill: #150035"
    />
    <path
      d="M890.28,2694.94,908,2705.17a7.86,7.86,0,0,0,7.08-.29l16.7-9.65c2.1-1.21,2.33-3,.51-4.09l-17.72-10.23a7.83,7.83,0,0,0-7.08.3l-16.71,9.64C888.69,2692.06,888.46,2693.89,890.28,2694.94Z"
      style="fill: #150035"
    />
    <path
      d="M803.39,2644.78,821.11,2655a7.85,7.85,0,0,0,7.09-.3l16.7-9.64c2.1-1.21,2.33-3,.51-4.09l-17.72-10.23a7.88,7.88,0,0,0-7.09.29l-16.7,9.65C801.81,2641.9,801.58,2643.73,803.39,2644.78Z"
      style="fill: #150035"
    />
    <path
      d="M760,2619.7l17.72,10.23a7.88,7.88,0,0,0,7.09-.3l16.7-9.64c2.1-1.21,2.32-3,.51-4.09l-17.72-10.23a7.88,7.88,0,0,0-7.09.29l-16.7,9.64C758.36,2616.82,758.14,2618.65,760,2619.7Z"
      style="fill: #150035"
    />
    <path
      d="M716.51,2594.62l17.72,10.23a7.92,7.92,0,0,0,7.09-.3l16.7-9.64c2.1-1.21,2.32-3,.51-4.09l-17.72-10.23a7.88,7.88,0,0,0-7.09.29l-16.7,9.64C714.92,2591.74,714.69,2593.57,716.51,2594.62Z"
      style="fill: #150035"
    />
    <path
      d="M673.07,2569.54l17.72,10.23a7.92,7.92,0,0,0,7.09-.3l16.7-9.64c2.1-1.21,2.32-3,.51-4.09l-17.72-10.23a7.88,7.88,0,0,0-7.09.29l-16.7,9.64C671.48,2566.65,671.25,2568.49,673.07,2569.54Z"
      style="fill: #150035"
    />
    <path
      d="M805.6,2693.66l17.72,10.23a7.88,7.88,0,0,0,7.09-.29l16.7-9.64c2.1-1.21,2.33-3.05.51-4.09l-17.72-10.24a7.92,7.92,0,0,0-7.09.3l-16.7,9.64C804,2690.78,803.78,2692.61,805.6,2693.66Z"
      style="fill: #150035"
    />
    <path
      d="M762.16,2668.58l17.72,10.23a7.88,7.88,0,0,0,7.09-.29l16.7-9.64c2.1-1.21,2.33-3.05.51-4.09l-17.72-10.24a7.92,7.92,0,0,0-7.09.3l-16.7,9.64C760.57,2665.7,760.34,2667.53,762.16,2668.58Z"
      style="fill: #150035"
    />
    <path
      d="M718.72,2643.5l17.72,10.23a7.88,7.88,0,0,0,7.09-.29l16.7-9.64c2.1-1.22,2.32-3.05.51-4.1L743,2629.47a7.92,7.92,0,0,0-7.09.3l-16.7,9.64C717.13,2640.62,716.9,2642.45,718.72,2643.5Z"
      style="fill: #150035"
    />
    <path
      d="M675.79,2614.33c-2.1,1.21-2.33,3-.51,4.09L693,2628.65a7.88,7.88,0,0,0,7.09-.29l16.7-9.65c2.09-1.21,2.32-3,.51-4.09l-17.72-10.23a7.88,7.88,0,0,0-7.09.3Z"
      style="fill: #150035"
    />
    <path
      d="M826.36,1208s-16.61-22.57-40.24-65.51c.19-1.32,23-161.18-3.93-277.1,0-.12.1-.23.15-.12,5.68,11.07,82.93,162.87,107.86,264.23l25.88,105.26s-27.6,67.29-94.9,143.22l-31.56,28.1a6.39,6.39,0,0,1-9.41-1l-28.42-38.7a6.28,6.28,0,0,1-.87-6c6-16,33.47-87.77,47.18-106.68C816.87,1227.87,826.36,1208,826.36,1208Z"
      style="fill: #150035"
    />
    <path
      d="M785.36,1417a14.8,14.8,0,0,1-1.62-.09,15.78,15.78,0,0,1-11-6.3l-28.43-38.71a15.54,15.54,0,0,1-2-14.74c7.76-20.6,34.2-89.35,48.33-108.85a346.22,346.22,0,0,0,25-39.54c-6.06-8.76-19.81-29.54-37.55-61.8l-1.49-2.69.44-3c.91-6.63,22.19-161.68-3.78-273.73l-1.88-8.06,15.6-5.68,3.74,7.38c8.47,16.53,83.73,165.14,108.56,266.16l26.61,108.19-1.14,2.79c-1.15,2.82-29,69.63-96.54,145.86L795.79,1413A15.74,15.74,0,0,1,785.36,1417Zm-25.19-54.82,25.64,34.9,29.2-26c57.34-64.78,85.46-124,91.33-137.13L881.2,1131.73c-16.07-65.34-53.94-151.55-80.23-207.31,9.49,95.49-2.73,197-5.25,216.28,22.22,40.08,37.94,61.6,38.1,61.81l3.28,4.48-2.38,5c-.4.83-10.07,20.93-29.12,47.19C795.57,1273,775,1322.94,760.17,1362.17Z"
      style="fill: #150035"
    />
    <path
      d="M800.82,1059.49s32.21-18.66,54.87-72.13c0,0-10.31-108.74-77.15-132.8s-10.7,148-10.7,148Z"
      style="fill: #fff"
    />
    <path
      d="M797.44,1072.15l-38.39-66.77c-6.86-21-39.58-127.1-10.72-155.1,5.63-5.48,16-10.68,33.35-4.44,71.56,25.76,82.8,136,83.24,140.64l.23,2.33-.92,2.16c-23.59,55.68-57.33,75.71-58.75,76.54Zm-21.08-73.44,27.29,47.16c10-8.44,28.16-27,42.55-59.91-1.94-15.27-15.36-102.72-70.79-122.67-10.13-3.67-13.18-.68-14.17.29C746.15,878.22,760.93,951.06,776.36,998.71Z"
      style="fill: #150035"
    />
    <path
      d="M828.69,1217,824,1199c16.24-4.26,32.75-1.1,33.45-1l-3.52,18.2S840.75,1213.82,828.69,1217Z"
      style="fill: #150035"
    />
    <path
      d="M803.31,2409s13.8,5.85,30.1,46c12.76,31.45,58,88.25,76.73,103.65s-8.82,75.16-69.42,47.95c-26.73-12-64.23-40.55-83-49.5a85.85,85.85,0,0,1-48.31-65.11c-2.89-20.14-4.13-42.05,1-54.94,11.27-28.52,59.7-40.57,59.7-40.57Z"
      style="fill: #fdce4a"
    />
    <path
      d="M870.26,2622.92c-9.93,0-21.08-2.31-33.34-7.81-15.65-7-34.56-19.3-51.24-30.13-12.49-8.12-24.29-15.78-32-19.44a94.86,94.86,0,0,1-53.51-72.18c-3.89-27.15-3.38-47.23,1.53-59.65,12.86-32.57,63.91-45.62,66.06-46.17l2.8-.69,36.35,13.65c2.89,1.22,18.18,9.45,35.07,51.07,11.78,29,56,85.14,74,100,11.54,9.49,12.29,28.7,1.78,45.64C909.36,2610.82,893,2622.92,870.26,2622.92ZM769.57,2406.27c-13.82,4-43.36,15.89-50.62,34.25-3.59,9.12-3.74,27-.41,50.22a76.37,76.37,0,0,0,43.12,58.06c8.8,4.18,20.53,11.81,34.11,20.62,16.13,10.47,34.4,22.34,48.74,28.78,29.34,13.15,49,3.07,57.55-10.77,5.66-9.11,5.7-18.68,2.19-21.56C884,2549.17,838,2491,824.82,2458.54c-13-32-23.81-40-25.39-41.06Z"
      style="fill: #150035"
    />
    <path
      d="M802.27,2412.52s12.2,43.72,25,67.19c10.16,18.71-9.19,34.91-45.91,11.6s-45.41-77.22-45.41-77.22l60-9.27Z"
      style="fill: #150035"
    />
    <path
      d="M813.37,2512.19c-10.62,0-23.4-4.4-37-13.05-39.77-25.26-49.2-81.21-49.58-83.58l-1.49-9.22,74.4-11.47,11,13.24.53,1.91c.13.43,12.07,43,24.16,65.28,6,11,4.78,22.78-3,30.08C827.45,2509.93,821,2512.19,813.37,2512.19Zm-66.25-90.46c4.11,15.43,15,46.46,39.15,61.76,18.39,11.66,30.22,11.28,33.41,8.34,1.74-1.63.84-5-.61-7.69-11.7-21.55-22.62-58.3-25.18-67.21l-1.78-2.15Z"
      style="fill: #150035"
    />
    <path
      d="M301.12,2012.83s-18.82,67.8,5.67,121.8-32.69,91.58-80.81,33.25-48.64-131.18-48.64-131.18c-8.2-11.46-9.11-54.67,1.24-64.25,14.56-13.48,39.1-27.46,73.87-18.46C312.83,1969.62,301.12,2012.83,301.12,2012.83Z"
      style="fill: #fdce4a"
    />
    <path
      d="M277,2206.45c-17.8,0-38.86-9.3-58.14-32.67-45.1-54.68-50.13-120.55-50.68-134.46-8.57-16.75-9.78-60.78,4.14-73.67,16.17-15,43.59-30.69,82.48-20.64,23.79,6.16,40.41,17.14,49.41,32.62a52.66,52.66,0,0,1,5.89,37.63c-.18.64-17.61,65.35,5.16,115.55,14.69,32.37,3.42,58-14.26,69A45.11,45.11,0,0,1,277,2206.45Zm-45.86-246c-20.88,0-36.27,9.59-46.23,18.81-6.06,5.64-6.06,43.6,0,52.06l1.7,2.38,0,2.93c0,.71,1.19,70.4,46.53,125.35,21.94,26.61,45,30.28,58,22.16,10.83-6.76,17.25-23.5,7.19-45.66-25.36-55.91-7.3-123.95-6.18-128,.92-3.72,7-34.79-42.05-47.49A75.81,75.81,0,0,0,231.11,1960.44Z"
      style="fill: #150035"
    />
    <path
      d="M301.12,2012.83l-15.26,47.73c-10.36,10.06-41.13-12.74-47.19-25.85a96.28,96.28,0,0,1-7.09-22.83c-6.37-34,20.87-57.89,20.87-57.89Z"
      style="fill: #150035"
    />
    <path
      d="M279,2072.32a27.5,27.5,0,0,1-5.13-.5c-16.61-3.08-37.83-20.83-43.56-33.21a106.08,106.08,0,0,1-7.79-25c-7.26-38.77,22.59-65.46,23.87-66.58l7.17-6.29,58,70.1L294,2065.58l-1.66,1.62A18.54,18.54,0,0,1,279,2072.32Zm-26.79-104.14c-6.42,8.46-14.9,23.66-11.47,42a88,88,0,0,0,6.39,20.64c4.38,9.45,24,22.75,31.19,23l12.48-39Z"
      style="fill: #150035"
    />
    <path
      d="M754.22,1483s29.52,192.58-99,380.4l-65.38,52.37-113,29.87-178.7,67.16a11.43,11.43,0,0,1-9.08-.45l-6.46-3.17a53.48,53.48,0,0,1-28.92-38l-2.07-10.84a11.35,11.35,0,0,1,4.3-11.25c20-15.05,88.37-66.44,130.84-95.92,63.74-44.22,103.42-69.44,147.52-78.82s-17.62-300.7-17.62-300.7l117.8-56.32Z"
      style="fill: #fff"
    />
    <path
      d="M294.13,2022.83a20.68,20.68,0,0,1-9.16-2.13l-6.46-3.17A63.06,63.06,0,0,1,244.57,1973l-2.07-10.85a20.56,20.56,0,0,1,7.83-20.38c20-15.06,88.46-66.51,131.14-96.13,60.47-42,103.65-70.22,150.88-80.27,18.66-4,7.09-139.35-24.76-289.72l-1.52-7.13L634.74,1407l128,70.14.69,4.52c.31,2,28.59,198.38-100.49,387l-1.86,2-66.92,53.6-114.9,30.37L301.4,2021.51A20.64,20.64,0,0,1,294.13,2022.83Zm233.09-543.9c19.59,93.81,55.73,294.59,9,304.54-43.84,9.33-85.54,36.69-144.16,77.37-42.4,29.43-110.64,80.69-130.55,95.7a2.11,2.11,0,0,0-.78,2.11l2.07,10.85a44.4,44.4,0,0,0,23.91,31.4l6.46,3.18a2.21,2.21,0,0,0,1.73.08L473.59,1937l112-29.65,62.78-50.28c113.33-166.5,100.48-338.58,97.24-368.19l-111.44-61.09Z"
      style="fill: #150035"
    />
    <path
      d="M659.6,1544.19s-240.46-98.91-241.46-3.77,89,244.78,151.12,301.72,105.83,182.91,105.83,182.91-21.28,129.41,10.51,210.51c26.57,67.77,41.57,150,45.79,175.2a13.69,13.69,0,0,0,8.59,10.53l3.2,1.23a72.9,72.9,0,0,0,53.46-.43,13.57,13.57,0,0,0,8.57-13.24c-2.72-58.69-17-368.47-18.54-435.57-1.15-49.52-61.66-235.79-98.93-346.42,0,0-9.94-29.11,8.73-38Z"
      style="fill: #fff"
    />
    <path
      d="M769.37,2436.67a82,82,0,0,1-29.52-5.5l-3.22-1.24a23,23,0,0,1-14.38-17.64c-4-23.7-19-106.22-45.28-173.35-30.32-77.37-14.26-194.25-11.4-213-6.06-16.7-47.27-126.27-102.58-177-62.05-56.89-155.16-209-154.12-308.65.17-16.91,7.1-30.38,20-38.94,56.22-37.27,216.18,26.79,234.24,34.22l-7,17.14c-46.54-19.12-176.23-62.88-217-35.9-7.88,5.22-11.61,12.74-11.73,23.67-.95,91.36,87.82,239.51,148.13,294.8C638.64,1893.17,682,2016.78,683.85,2022l.76,2.22-.37,2.32c-.21,1.27-20.49,127.87,10,205.62,27,68.8,42.27,152.91,46.31,177.06a4.41,4.41,0,0,0,2.77,3.41l3.23,1.24a63.26,63.26,0,0,0,46.64-.38,4.32,4.32,0,0,0,2.78-4.23c-2.82-61-17-368.84-18.53-435.77-.84-35.64-35.8-157.69-98.47-343.68-4.66-13.68-7.09-39.51,13.53-49.34l8,16.72c-10.8,5.16-4,26.48-3.94,26.7,44.74,132.8,98.31,301.16,99.42,349.16,1.56,66.75,15.71,374.37,18.53,435.36a22.93,22.93,0,0,1-14.38,22.28A82.08,82.08,0,0,1,769.37,2436.67Z"
      style="fill: #150035"
    />
    <path
      d="M334.52,959.84C369.57,893.91,505.74,843,505.74,843l56,8.56,85.37-39.45S768.2,831,786.6,855.28s28.76,195.44,12.66,261c-10.87,44.23-8.64,195.82-6,289.76a134.35,134.35,0,0,1-65.89,119.44l-.53.31c-17.61,10.36-37.95-43-37.95-43l-3.86-.69c-8.6,38.48-16.24,62.1-16.24,62.1S359.83,1606.33,384,1462.53s-5.75-365.8-5.75-365.8S299.47,1025.77,334.52,959.84Z"
      style="fill: #fdce4a"
    />
    <path
      d="M534.36,1566.84c-53.91,0-109.93-8.07-139.42-36.63-18.11-17.53-24.87-40.81-20.1-69.21,22.09-131.42-1.85-331.92-5.37-359.79-14.1-13.64-77.79-80.53-43.13-145.72,36.28-68.24,170.46-119,176.16-121.13l2.26-.84L560.35,842l85.39-39.45,2.77.43c20.84,3.25,125.82,20.74,145.48,46.7,21,27.68,30.3,203.53,14.26,268.81-7.94,32.35-10,134.38-5.78,287.3A143.59,143.59,0,0,1,732,1533.46a18.72,18.72,0,0,1-16.44,1.81c-10.73-3.77-20.12-17.57-26.6-29.78-6.33,25.64-11.19,40.76-11.45,41.55l-1.67,5.16-5.32,1.07C665.83,1554.23,601.75,1566.83,534.36,1566.84ZM342.7,964.19c-31.2,58.7,41,125,41.74,125.66l2.52,2.27.46,3.37c1.23,9.12,29.82,225.06,5.71,368.58-3.76,22.33,1.06,39.61,14.7,52.82,53.84,52.17,221.44,25,253.69,19.21,2.67-8.91,8.32-28.77,14.42-56l1.94-8.68,17.75,3.21,1.87,4.88c8,21,20,38.14,24.58,38.4A125.49,125.49,0,0,0,784,1406.31c-3-109.32-4.37-248.76,6.31-292.23,16.82-68.5,3.87-233.52-11-253.19-10.91-14.41-82.06-31.34-130.8-39.15l-85.34,39.43-56.29-8.6C489.27,859.43,373.33,906.59,342.7,964.19Z"
      style="fill: #150035"
    />
    <path
      d="M559,785.45s-.13,22.55-13.94,55.91A178.72,178.72,0,0,0,586,885c29.4,22.19,68.88,25.84,102.85,11.59,0,0-18.4-57.51-14.95-93.17S559,785.45,559,785.45Z"
      style="fill: #fff"
    />
    <path
      d="M647.08,914.29a110.42,110.42,0,0,1-66.63-21.91A186.94,186.94,0,0,1,537.2,846.2l-2.46-4,1.8-4.37c12.82-31,13.22-52.24,13.23-52.45l.1-7.89,7.8-1.19c15.7-2.34,95.19-12.95,118.33,9a22.41,22.41,0,0,1,7.17,19c-3.23,33.38,14.37,88.9,14.56,89.46l2.59,8.09-7.84,3.29A117.49,117.49,0,0,1,647.08,914.29Zm-91.54-74a174.73,174.73,0,0,0,36.08,37.32c24,18.12,56.26,23,85.91,13.34-5.07-17.75-15.63-59.29-12.81-88.42a4,4,0,0,0-1.48-3.76c-11.42-10.83-60.33-9.62-95.54-5.13C566.63,802.82,563.67,819.33,555.54,840.26Z"
      style="fill: #150035"
    />
    <path
      d="M554.79,812.15s-60.3,10.19-68.35,52.48c0,0,40.74,83.71,151.51,95.21L646.33,905s-32.29.44-67.88-24.58c-21.46-15.09-32-42.28-24-67.25Z"
      style="fill: #fdce4a"
    />
    <path
      d="M645.77,970l-8.78-.91C522.42,957.16,479.85,872.3,478.1,868.7l-1.34-2.77.56-3c9.16-48.07,73.19-59.43,75.92-59.89l15.11-2.56L563.28,816c-6.54,20.34,1.89,43.72,20.5,56.8,32.64,22.94,62.5,23,62.46,22.87H657.1ZM496.24,863.35c7.79,13.88,46,73.56,133.91,86.18l5.53-36.15c-13.28-1.83-37.16-7.57-62.56-25.42-20.9-14.7-32.24-39.19-30.35-63.12C527,830,502.34,841.3,496.24,863.35Z"
      style="fill: #150035"
    />
    <path
      d="M665.6,903.39,697,950.06s42.68-32.53,21.34-94.78l-45.16,6.32S684.28,884.32,665.6,903.39Z"
      style="fill: #fdce4a"
    />
    <path
      d="M694.74,963.4l-41-61.12L659,896.9c13.7-14,6.13-30.58,5.8-31.28l-5.35-11.38,65.14-9.19,2.48,7.23c23.24,67.78-24,104.79-24.49,105.16ZM677.18,904,698.4,935.6c9.18-10.92,22.91-34.37,13.34-70L685,869.3A44.92,44.92,0,0,1,677.18,904Z"
      style="fill: #150035"
    />
    <path
      d="M734.91,644.65s20.9,46.14,13.06,115c-3.19,28.07-11.55,55.31-23.15,81.08l-6.53,14.52a15.75,15.75,0,0,1-14.6,9.35c-22.38-.3-76.29-5.75-120.63-47.43l-16.38-19.11a46.67,46.67,0,0,1-11.23-30.36S536,763.56,528.39,743.3c-3.95-10.58-2.41-22.45,2.64-32.55a14.9,14.9,0,0,1,18.6-7.26l69.09-89.9Z"
      style="fill: #150035"
    />
    <path
      d="M703.91,873.9h-.36c-22.48-.31-79.87-5.8-126.83-49.94l-17.08-19.84a56,56,0,0,1-13-29.67,48.83,48.83,0,0,1-26.88-27.9c-4.61-12.31-3.51-26.87,3-39.95a24.32,24.32,0,0,1,23-13.32L615.15,603l126.38,33.79,1.82,4c.89,2,21.87,49.28,13.83,119.9-3.1,27.26-11.14,55.48-23.9,83.84l-6.54,14.52A25,25,0,0,1,703.91,873.9ZM544.34,711.78a5.6,5.6,0,0,0-5,3.11c-4.25,8.48-5.06,17.65-2.25,25.16a30.66,30.66,0,0,0,20.39,18.64l7.17,1.67.08,7.37a37.42,37.42,0,0,0,9,24.33l16.39,19.11c41.54,39,93.38,43.92,113.7,44.19,2.83-.48,4.94-1.49,6-3.87L716.37,837c12-26.61,19.51-53,22.39-78.33,6.19-54.4-6.21-94-10.73-106.22L622.29,624.14l-69.48,90.48-6.47-2.47A5.65,5.65,0,0,0,544.34,711.78Z"
      style="fill: #150035"
    />
    <path
      d="M694.18,1483.21,675.79,1481C706,1233.85,666.36,996,666,993.61l18.27-3.11C684.63,992.9,724.72,1233.33,694.18,1483.21Z"
      style="fill: #150035"
    />
    <path
      d="M452.18,1674.65l-3.54-18.2c20.49-4,35.11-13.26,43.45-27.56,17.47-29.92,3.53-72.58,3.39-73l17.58-5.88c.69,2.07,16.69,51.13-4.95,88.23C497,1657.35,478.14,1669.6,452.18,1674.65Z"
      style="fill: #150035"
    />
    <path
      d="M682.13,2031.08,668.05,2019c14.86-17.34,27.66-23.86,28.21-24.13l8.31,16.57-4.17-8.27,4.17,8.27C704.47,2011.51,694.33,2016.83,682.13,2031.08Z"
      style="fill: #150035"
    />
    <path
      d="M761.4,2400.47c-11.19,0-24.14-2.31-38.69-8.62l7.37-17c42.14,18.28,66-4.7,67-5.67l13.2,13C809.32,2383.17,791.91,2400.47,761.4,2400.47Z"
      style="fill: #150035"
    />
    <path
      d="M320,2010.65c-1.66-1.23-40.75-30.52-47.18-79.93l18.38-2.4c5.42,41.66,39.45,67.15,39.79,67.4Z"
      style="fill: #150035"
    />
    <path
      d="M825,2550v-18.55c23.78,0,39.45-21,39.6-21.24l15,10.95C878.65,2522.34,858,2550,825,2550Z"
      style="fill: #150035"
    />
    <path
      d="M274.12,2104.14a63.72,63.72,0,0,1-37.68-11.74l10.78-15.07c21.28,15.21,46.88,4.84,47.11,4.74l7.14,17.1A76.83,76.83,0,0,1,274.12,2104.14Z"
      style="fill: #150035"
    />
    <path
      d="M271.62,2139.89c-9.22,0-20.29-2-33.32-7.36l7.07-17.12c34.18,14.12,48.05-1.33,48.62-2l14.37,11.69C307.72,2125.92,296.19,2139.89,271.62,2139.89Z"
      style="fill: #150035"
    />
    <path
      d="M854.59,2570.48l-5.18-17.8c20.5-6,35.25-24.3,35.4-24.48l14.55,11.49C898.62,2540.62,880.91,2562.83,854.59,2570.48Z"
      style="fill: #150035"
    />
    <path
      d="M518.36,901.57l-16.48-8.51c15.79-30.53,50.11-46.29,51.55-46.94L561.08,863C560.78,863.14,531.13,876.86,518.36,901.57Z"
      style="fill: #150035"
    />
    <path
      d="M562.81,772.44l-14.14-1.84c2.29-17.67,12.23-27.87,12.64-28.3l10.18,10A38.55,38.55,0,0,0,562.81,772.44Z"
      style="fill: #fdce4a"
    />
    <path
      d="M812,586.44a33,33,0,0,0-17-28.78c0-.92-.1-1.86-.14-2.78a32.9,32.9,0,0,0-19.73-58.46c-.91-1.35-1.82-2.69-2.8-4A32.74,32.74,0,0,0,730,451.48c-1-.75-2-1.51-3.09-2.26A33,33,0,0,0,676,421.7c-1.93-.74-3.85-1.32-5.78-2A33,33,0,0,0,610.11,409c-.57,0-1.13.06-1.7.06a32.9,32.9,0,0,0-54.65,8.49c-3.58,1.12-7.11,2.38-10.63,3.71a32.71,32.71,0,0,0-17-4.82,33.05,33.05,0,0,0-33,32.11c-2.17,1.6-4.32,3.21-6.43,4.88a32.76,32.76,0,0,0-15.26-3.89,33.1,33.1,0,0,0-33.1,33.1A32.77,32.77,0,0,0,442.83,499c-1.32,1.81-2.54,3.69-3.82,5.53-1.07-.1-2.1-.32-3.2-.32a33.1,33.1,0,0,0-33.1,33.1A32.75,32.75,0,0,0,407,553.21a32.92,32.92,0,0,0-11.42,52.57,32.89,32.89,0,0,0,6,59.35c.2,1,.35,2.09.57,3.13A33.06,33.06,0,0,0,420,729.16c.15,0,.3,0,.46,0a32.61,32.61,0,0,0,42.19,36.11,32.8,32.8,0,0,0,53.16,23,173.13,173.13,0,0,0,31.45,4.72,2.85,2.85,0,0,0,2.16-4.9c-4.58-4.6-11.38-13.13-19.51-28.6-1-1.95-1.72-3.71-2.57-5.56a32.37,32.37,0,0,0-3.17-7.76c-7.47-21.44-2.23-36.14,9.54-49.28,14.07-15.71,42.55,8,42.55,8s-4.32-43.67,55.25-69.51c38.53-16.72,70.65-7.21,91.66,4.57a33,33,0,1,0,62.47-21A33.12,33.12,0,0,0,812,586.44Z"
      style="fill: #150035"
    />
    <path
      d="M495.44,802.5A39.87,39.87,0,0,1,457,773.69c-23.67,2.62-43.07-15.52-44.11-38.11A40.12,40.12,0,0,1,391.2,668a40.17,40.17,0,0,1-18.89-34,39.67,39.67,0,0,1,13.26-29.73,40,40,0,0,1,12.19-54.22,38.74,38.74,0,0,1-2.18-12.81A40.28,40.28,0,0,1,434,497.1a39,39,0,0,1-2.79-14.47,40.27,40.27,0,0,1,40.23-40.23,39,39,0,0,1,14.3,2.75l.53-.39a39.92,39.92,0,0,1,57.4-31.32c1.67-.62,3.36-1.21,5-1.77a40,40,0,0,1,59.78-12.24A40,40,0,0,1,638,386.55a40.47,40.47,0,0,1,38,27,39.8,39.8,0,0,1,17.92-4.28,40.38,40.38,0,0,1,39.7,33.84c25.12-5,47.49,14.91,47.49,39.5a35.76,35.76,0,0,1-.73,7.14,40,40,0,0,1,24.07,65.72,40.07,40.07,0,0,1-10.13,68.15,36.25,36.25,0,0,1,.53,6.21,40.14,40.14,0,0,1-77.4,15c-19-10.08-48.24-18.11-83-3-53.65,23.28-51.13,60.75-51,62.33l1.42,16.93-13.08-10.79c-.24-.21-23.69-18.8-32.68-8.75-11.67,13-14,25.25-8.11,42.18a32.19,32.19,0,0,1,3.33,8.28l.38.63c.49,1.12,1,2.24,1.6,3.43,7.89,15,14.28,22.91,18.25,26.89a10,10,0,0,1,2.08,11.17,10.31,10.31,0,0,1-9.66,5.89,181.33,181.33,0,0,1-29.55-4.17A39.54,39.54,0,0,1,495.44,802.5Zm-26.5-46.65.79,8.74a25.65,25.65,0,0,0,41.65,18l2.73-2.14,3.37.82a168.89,168.89,0,0,0,19.85,3.63,160.88,160.88,0,0,1-13.75-22.17c-.79-1.49-1.42-2.91-2-4.33l-.7-1.58A33.13,33.13,0,0,0,518,749.6c-8.09-22.83-4.61-40.74,10.43-57.54,11.25-12.56,28.61-7.77,41.76-.13,3.19-16.5,15.21-44.36,58.51-63.14,41.6-18.06,76.23-7.3,98,4.9l2.45,1.37.85,2.67a25.89,25.89,0,0,0,50.57-7.88,25.31,25.31,0,0,0-1.6-8.61l-2.74-7.72,8-1.65a25.85,25.85,0,0,0,7.27-48l-3.65-2-.3-10.2,2.76-2.27a25.77,25.77,0,0,0-15.46-45.83l-3.63-.13-2-3q-1.27-1.92-2.65-3.82l-2.1-2.89,1.06-3.41a25.68,25.68,0,0,0,1.31-7.65,25.64,25.64,0,0,0-34.45-24.41l-3.5,1.21-9-6.49,0-3.66a25.85,25.85,0,0,0-39.9-21.58l-3,1.93-3.36-1.26c-1.14-.44-2.28-.81-3.41-1.19l-6-2.05-.85-3.9a25.9,25.9,0,0,0-47.18-8.39L614,416.17l-7.08-.09-3.79-2.27a25.63,25.63,0,0,0-19.22-8.67,26,26,0,0,0-23.62,15.33L559,423.39l-3.06,1c-3.45,1.07-6.85,2.29-10.23,3.57l-3.24,1.22-3-1.78a25.52,25.52,0,0,0-13.31-3.81,25.82,25.82,0,0,0-25.87,25.21l-.1,3.46-2.8,2.07c-2.1,1.53-4.19,3.09-6.23,4.72l-3.63,2.86-4.1-2.14c-17.79-9.26-37.93,4.54-37.93,22.9A25.63,25.63,0,0,0,449,495.44l2.3,4-2.73,3.73c-.79,1.09-1.55,2.21-2.3,3.32L442.48,512l-6.67-.7a26,26,0,0,0-26,26,25.65,25.65,0,0,0,3.35,12.47l3.82,6.9-7.24,3.1a25.79,25.79,0,0,0-9,41.23l5.82,6.42-7.42,4.48a25.76,25.76,0,0,0,4.71,46.52l3.81,1.35,2.42,11.81L406,674.25A25.94,25.94,0,0,0,420,722h8.23l-.7,8.09a25.26,25.26,0,0,0-.4,3.56,26,26,0,0,0,26,26,24.94,24.94,0,0,0,7.47-1.26Z"
      style="fill: #150035"
    />
    <path
      d="M535.23,781.84c-1.21-1.25-29.62-31-20.45-65.12,4.31-16.08,13.35-26.93,25.44-30.56,10.68-3.19,22.44-.54,32.88,7.24l3.19-1.34c1-13.76,9.22-50,67.87-68.76,69.09-22.15,94.9,12.22,105.92,26.9l1.37,1.82-11.34,8.65-1.44-1.91c-10.73-14.3-30.71-40.92-90.16-21.89-61,19.52-58.08,58.9-58,59.29l.48,5.21-20.4,8.57-3.37-3c-7.38-6.56-16-9.23-22.86-7.14-7.28,2.19-12.74,9.3-15.76,20.59-7,26.28,16.67,51.25,16.9,51.49Z"
      style="fill: #fdce4a"
    />
    <path
      d="M494,727.05c-30.83-.76-53.87-9.76-68.5-26.76-19.68-22.89-16.33-51.57-16.17-52.78l14.14,1.76c0,.24-2.63,23.85,12.95,41.84,11.9,13.74,31.38,21,57.93,21.68Z"
      style="fill: #fdce4a"
    />
    <path
      d="M757.58,614.11l-11.92-7.82c17.39-26.48,18.82-54.4,4.25-83-37.27-73.13-122.65-78.07-123.51-78.11l.66-14.25c3.84.18,94.45,5.24,135.56,85.88C783.87,558.54,771.61,592.76,757.58,614.11Z"
      style="fill: #fdce4a"
    />
    <path
      d="M666.44,502.58c-68.14-36.56-120.53-1.9-122.72-.4l-8.06-11.76c2.47-1.69,61.5-41.22,137.52-.4Z"
      style="fill: #fdce4a"
    />
    <path
      d="M442.17,665.41c-.35-.93-8.33-23.15.5-42,4.56-9.71,12.58-16.67,23.86-20.68l4.77,13.44c-7.65,2.72-12.8,7.07-15.72,13.3-6.23,13.28-.1,30.82,0,31Z"
      style="fill: #fdce4a"
    />
    <path
      d="M692.84,781a40.6,40.6,0,0,1-12.6-1.69l4.48-13.54c2.6.87,6.88,1.16,12,.83l1.26-1.58-8.93-39.91L703,722l8.93,39.91a15.56,15.56,0,0,1-14.27,18.94C696,781,694.38,781,692.84,781Z"
      style="fill: #fdce4a"
    />
    <path
      d="M660,717.32c2.05,10.6-2.42,20.38-10,21.85s-15.38-5.95-17.43-16.55,2.43-20.38,10-21.85S658,706.71,660,717.32Z"
      style="fill: #fdce4a"
    />
    <path
      d="M740.18,702.71c2.05,10.6-1.21,20.15-7.28,21.32s-12.66-6.46-14.71-17.07,1.21-20.15,7.28-21.32S738.13,692.11,740.18,702.71Z"
      style="fill: #fdce4a"
    />
    <path
      d="M692.67,826.67a43.78,43.78,0,0,1-24.42-7.4l8.45-11.49-4.21,5.75,4.21-5.75c.6.43,14.87,10.33,32.92-.37l7.28,12.25A47,47,0,0,1,692.67,826.67Z"
      style="fill: #fdce4a"
    />
    <path
      d="M538.17,1115.82c-11.83,20.5-31,31.58-42.86,24.74s-11.83-29,0-49.49,31-31.58,42.86-24.74S550,1095.32,538.17,1115.82Z"
      style="fill: #fdce4a"
    />
    <path
      d="M503,1151.8a24.34,24.34,0,0,1-12.34-3.21c-16.52-9.53-18-36.83-3.4-62.14,6.53-11.31,15.35-20.55,24.82-26,10.94-6.32,22.12-7.08,30.71-2.13s13.51,15,13.51,27.65c0,11-3.6,23.21-10.12,34.51C534.92,1140,517.82,1151.8,503,1151.8Zm27.26-78.21a18.65,18.65,0,0,0-8.9,2.89c-6.62,3.82-13.19,10.83-18,19.23-10.25,17.76-8.86,33.67-3.39,36.83s19.95-3.61,30.19-21.36c4.86-8.4,7.64-17.6,7.64-25.23,0-5.73-1.59-10.06-4.24-11.59A6.45,6.45,0,0,0,530.28,1073.59Z"
      style="fill: #150035"
    />
    <path
      d="M548.14,1121c-11.84,20.5-31,31.58-42.86,24.74s-11.84-29,0-49.49,31-31.57,42.86-24.74S560,1100.49,548.14,1121Z"
      style="fill: #fdce4a"
    />
    <path
      d="M513.12,1157a24.73,24.73,0,0,1-12.48-3.23c-8.58-5-13.5-15-13.5-27.64,0-11,3.59-23.21,10.11-34.52,14.62-25.32,39-37.66,55.52-28.13s18,36.84,3.4,62.15c-6.52,11.3-15.35,20.54-24.82,26A36.9,36.9,0,0,1,513.12,1157Zm27.18-78.22c-6.72,0-18.36,7.15-27,22.11-4.86,8.4-7.64,17.6-7.64,25.24,0,5.72,1.59,10.05,4.24,11.58s7.22.74,12.16-2.11c6.62-3.82,13.19-10.83,18-19.24,10.26-17.76,8.86-33.67,3.4-36.83A6.38,6.38,0,0,0,540.3,1078.77Z"
      style="fill: #150035"
    />
    <path
      d="M1057.49,1123.63c-33.92-28.29-62.22-15.49-140.5-16.94a427.54,427.54,0,0,0-194.91,42.68c-60.09,29.29-96.58,47.75-116.73,82.88l-30.24,24.45,14.43,70.2.58,1.7c11.09,47.05,58.84,83.51,142.23,99.48,82.94,15.89,169.23,3.3,245.71-32.51,108-50.59,153.45-119.37,143.45-177.31l-14.13-70.32Z"
      style="fill: #150035"
    />
    <path
      d="M803.65,1444a387.91,387.91,0,0,1-73-6.86c-84-16.09-137.11-53.9-149.5-106.45l-.34-.86L564.89,1253l33.32-26.92c22.32-37.54,63.33-57.54,119.81-85.07a437.48,437.48,0,0,1,199.14-43.61c21.83.43,39.49-.3,55.06-.94,39.5-1.57,63.59-2.55,90.33,19.29l53,25.83,15.18,75.54c11.7,67.71-43.88,137.72-148.73,186.82A422.44,422.44,0,0,1,803.65,1444ZM585.32,1260.35l13.58,65.28c10.85,45.86,58.78,78.71,135.19,93.35,78.78,15.06,164,3.78,240-31.8,95.37-44.66,148.35-108.78,138.25-167.35l-13.16-65.56-47.66-23.52c-21.59-18-40.67-17.26-78.59-15.73-15.83.63-33.8,1.33-56.15.94a415.72,415.72,0,0,0-190.68,41.75c-61.42,29.94-94.34,47.06-112.75,79.15l-2.21,2.59Z"
      style="fill: #150035"
    />
    <ellipse
      cx="841.25"
      cy="1202.32"
      rx="271.63"
      ry="156.83"
      transform="translate(-223.67 192.76) rotate(-11.55)"
      style="fill: #fff"
    />
    <path
      d="M781.28,1374.47c-38.6,0-75.87-5.22-108.95-16.26-59.47-19.84-97.22-55.23-106.3-99.65s11.76-91.79,58.68-133.38c93.74-83.06,266.66-118.38,385.45-78.76,59.46,19.85,97.23,55.24,106.31,99.66s-11.77,91.79-58.7,133.37C990.15,1339.39,881.29,1374.47,781.28,1374.47Zm119.19-326c-95.28,0-199,33.44-263.46,90.55-41.76,37-60.52,78.12-52.82,115.79s41.08,68.12,94,85.78c113.22,37.78,278,4.1,367.3-75,41.75-37,60.51-78.14,52.81-115.8s-41.08-68.12-94-85.78C972.77,1053.49,937.25,1048.51,900.47,1048.51Z"
      style="fill: #150035"
    />
    <path
      d="M959.12,1109.19c-80.06-21.77-197.73,2.28-262.83,53.71s-53,110.77,27.08,132.54,197.73-2.27,262.83-53.7S1039.17,1131,959.12,1109.19Z"
      style="fill: #150035"
    />
    <path
      d="M788.57,1312.63c-24,0-47-2.65-67.63-8.24-42.28-11.5-68.77-33.6-74.63-62.25s9.86-59.36,44.24-86.52c67-52.92,188.55-77.75,271-55.37,42.26,11.5,68.76,33.6,74.63,62.24s-9.86,59.36-44.23,86.52C941.67,1288.73,860.69,1312.63,788.57,1312.63Zm104.58-202.24c-67.77,0-143.87,22.45-191.11,59.79-28.6,22.58-41.94,46.83-37.56,68.26s26.15,38.49,61.32,48c77.46,21.07,191.69-2.27,254.65-52,28.6-22.58,41.94-46.84,37.55-68.26s-26.15-38.5-61.32-48.06C937.35,1112.87,915.7,1110.39,893.15,1110.39Z"
      style="fill: #150035"
    />
    <path
      d="M967.22,1148.87c-80.05-21.78-197.72,2.27-262.83,53.7-23.51,18.58-36.8,38.17-40.6,56.67,10.75,15.53,30.66,28.34,59.58,36.2,80.06,21.77,197.73-2.27,262.83-53.7,23.51-18.58,36.81-38.18,40.61-56.67C1016.05,1169.54,996.14,1156.73,967.22,1148.87Z"
      style="fill: #fdce4a"
    />
    <path
      d="M788.57,1312.63c-24,0-47-2.65-67.63-8.24-30-8.15-52.35-21.93-64.77-39.87l-2.26-3.26.8-3.89c4.39-21.36,19.59-42.83,43.94-62.07,67-53,188.6-77.78,271-55.38,30,8.15,52.34,21.94,64.76,39.86l2.26,3.26-.8,3.89c-4.4,21.38-19.59,42.85-43.93,62.08C941.67,1288.73,860.69,1312.63,788.57,1312.63Zm-114.73-55.44c10.39,12.77,28.25,22.85,52,29.3,77.44,21.07,191.69-2.27,254.65-52,19.29-15.22,31.76-31.51,36.31-47.34-10.4-12.77-28.25-22.86-52-29.31-77.4-21.07-191.66,2.28-254.64,52C690.85,1225.08,678.38,1241.37,673.84,1257.19Z"
      style="fill: #150035"
    />
    <rect
      x="1045.17"
      y="1280.33"
      width="14.27"
      height="59.1"
      transform="translate(-240.77 236.99) rotate(-11.54)"
      style="fill: #fdce4a"
    />
    <rect
      x="844.14"
      y="1105.43"
      width="14.27"
      height="38.14"
      transform="translate(-208.09 193.42) rotate(-11.56)"
      style="fill: #fdce4a"
    />
    <path
      d="M700.24,1210.71l6.49,31.72,47.2,7.26,13.69-37.55.56-.49L941,1269.32a254.46,254.46,0,0,0,35.11-20.25l14.72-13-6.52-31.71-222.87-44.82Z"
      style="fill: #150035"
    />
    <path
      d="M941.51,1277l-169.34-56.51-13.55,37.14-57.88-8.91L692.41,1208l67.1-56.15,230.91,46.43,8.24,40.38-17.79,15.77a257.53,257.53,0,0,1-36.77,21.34ZM766,1204.07l4.47.81,170.08,56.76a245.86,245.86,0,0,0,31.54-18.43l11-9.78-4.71-23.07-214.92-43.21-55.32,46.3,4.63,22.68,36.51,5.62L761.55,1208Z"
      style="fill: #150035"
    />
    <polygon
      points="761.7 1179.93 761.14 1180.42 747.45 1217.97 700.24 1210.71 720.18 1158.61 754.98 1127.77 984.34 1204.31 943.45 1240.57 761.7 1179.93"
      style="fill: #fff"
    />
    <path
      d="M945.09,1248.63l-179.41-59.86-13.54,37.14-61.71-9.49,23.71-62,39.19-34.73,238.13,79.45v9.57l-3.1,1.57Zm-185.57-76.27,4.43.81,177.86,59.34,28.64-25.4-213.82-71.28-30.41,27L710.06,1205l32.69,5,12.32-33.78Z"
      style="fill: #150035"
    />
    <rect
      x="985.36"
      y="1320.32"
      width="14.27"
      height="59.1"
      transform="translate(-250.28 226.17) rotate(-11.56)"
      style="fill: #fdce4a"
    />
    <rect
      x="661.35"
      y="1349.93"
      width="14.26"
      height="59.1"
      transform="translate(-262.77 161.86) rotate(-11.55)"
      style="fill: #fdce4a"
    />
    <path
      d="M496.4,1446.83c17.17,8.9,93.46,24.76,118.07,24.44,15.54-.21,34.28-1,53.65-3.09,30.5-3.29,75.22-51.64-6.93-62l-39.58-4.8-2.89-3.59,27.52-18.48-5-7.2H615.93s-32.63-3-52,33.88-28.83,47.19-28.83,47.19Z"
      style="fill: #150035"
    />
    <path
      d="M613.74,1480.54c-26.83,0-103.22-16-121.61-25.48l-51.82-26.86,90.86,15c4-5.55,12.22-17.94,24.55-41.45,22-41.9,59.49-39,61.07-38.82h29.38l13,18.94-18.67,12.53,21.81,2.64c45.66,5.75,55.09,23.13,55,36.71-.19,21.34-26.5,41.34-48.16,43.68-17,1.84-35.35,2.89-54.54,3.14ZM547.63,1452c25.6,5.55,53.92,9.86,66.71,10,18.61-.25,36.37-1.26,52.78-3,14.1-1.52,31.54-15.53,31.63-25.42,0-6.4-10.09-14.54-38.71-18.14l-43.27-5.24-11.63-14.39,21.39-14.34H616c-1.89-.09-27.76-1.7-43.81,28.89C560.68,1432.16,552.56,1445,547.63,1452Z"
      style="fill: #150035"
    />
    <path
      d="M571.06,1402.72,540,1388.34s-90.88-53.49-117.34-74.2-65.91-44.18-105-48.78c0,0,111.61-158,119.66-224.71s-29-90.59-29-90.59l-.36-.22c-22.28-13.68-56.05-12.9-68.66,10-28.64,52-117.13,223.55-146.79,311.95a20.92,20.92,0,0,0,9,24.41c50.8,31.32,222.91,147.57,324.78,155.41l35.33,4.12C601.59,1405.19,570.25,1398.47,571.06,1402.72Z"
      style="fill: #150035"
    />
    <path
      d="M565.54,1465.54l-40.44-4.72c-92.48-7.11-237.67-99.18-307.46-143.43-8.36-5.3-15.5-9.82-21.13-13.29a30.07,30.07,0,0,1-12.89-35.26c29.91-89.14,118.56-261,147.46-313.47,6-10.87,16-18.43,29-21.85,16.82-4.44,37-1.21,52.67,8.42,2.24,1.43,42.41,28.16,33.76,99.82-7,58.07-86.53,178.31-113,216.93,40.11,9,75.92,33.34,94.83,48.15,25.68,20.1,115.43,73,116.33,73.52L571,1392.49c5.32-.68,11.49,2,15.48,7.17,7.09,9.07,9.75,27.17-17.75,61.83ZM375.64,950.1a42.3,42.3,0,0,0-10.86,1.35c-5.54,1.46-13.07,4.88-17.46,12.86-28.69,52.11-116.62,222.48-146.12,310.42a11.61,11.61,0,0,0,5,13.59c5.69,3.5,12.89,8.07,21.33,13.42,63.16,40,211.09,133.84,299.31,140.63l30.48,3.55c14.24-19,15.56-28.58,15.3-32.26l-36.59-16.91c-4.53-2.62-92.51-54.47-119.15-75.31-15.85-12.41-57.37-41.81-100.39-46.87l-15.48-1.83,9-12.73c1.1-1.55,110.35-156.83,118-220.47,7.18-59.52-23.61-80.85-24.93-81.73A53.81,53.81,0,0,0,375.64,950.1Z"
      style="fill: #150035"
    />
    <path
      d="M263.78,1297l-8.45-11.47c30.09-22.18,59.94-27,61.19-27.2l2.2,14.09C318.44,1272.45,290.93,1277,263.78,1297Z"
      style="fill: #fdce4a"
    />
    <path
      d="M268.68,1055.8c-1.37,3.57.92,7.76,4.72,8.14,11.5,1.17,35.4,9.16,70.53,48.37,28.53,31.84,38.93,53.54,42.56,66.5a5.85,5.85,0,0,0,10.56,1.46c25.21-39.82,89.89-158.06,21.08-230.21C418.13,950.06,336.51,879.07,268.68,1055.8Z"
      style="fill: #fff"
    />
    <path
      d="M392.07,1192.27a16.55,16.55,0,0,1-2.21-.16,14.86,14.86,0,0,1-12.3-10.79c-3.27-11.67-12.95-32-40.53-62.83-34.51-38.51-56.65-44.53-64.57-45.33a14.73,14.73,0,0,1-11.13-7.05,15.53,15.53,0,0,1-1.31-13.62c27.76-72.31,61.64-113.92,100.7-123.65,36.2-9,62.39,13.27,63.5,14.23,72.76,76.24,10.7,194.73-19.33,242.16A15.21,15.21,0,0,1,392.07,1192.27ZM278.79,1055.38c15.59,3,39.74,14.69,72,50.75,25.23,28.15,36.89,49,42.21,63,24.42-40.31,79.81-148.29,18.38-212.7-.15-.08-19.71-16.35-46.5-9.57C333.27,955,303.53,992.44,278.79,1055.38Z"
      style="fill: #150035"
    />
    <path
      d="M534.1,1454c-.71-1.07-17.33-26.44,9.48-61.73l11.35,8.64c-20.68,27.21-9.14,44.91-9,45.08Z"
      style="fill: #fdce4a"
    />
    <path
      d="M497.41,1443.79c-.35-1.2-8-29.9,17.9-64l11.35,8.63c-21.35,28.09-15.76,50.59-15.51,51.53Z"
      style="fill: #fdce4a"
    />
    <path
      d="M697.3,1425.93a79.89,79.89,0,0,0-11.58-10.16c-18.57-13.41-43.55-18.17-68.56-13l-4.2.83-2.57-14,3.9-.77c28.91-6,58-.31,79.77,15.45a91.52,91.52,0,0,1,13.69,12Z"
      style="fill: #fdce4a"
    />
    <path
      d="M1079.9,1328.27l-18.23-.75a24.8,24.8,0,0,0-18,6.71l-45,42.3a24.84,24.84,0,0,0,20.34,42.71l17.17-2.33a85.54,85.54,0,0,0,46.63-22,61.71,61.71,0,0,0,19.69-41.76A23.56,23.56,0,0,0,1079.9,1328.27Z"
      style="fill: #150035"
    />
    <path
      d="M1015.61,1428.74a34.11,34.11,0,0,1-23.34-59l45-42.31a33.55,33.55,0,0,1,24.77-9.21l18.22.75a32.8,32.8,0,0,1,31.41,34.68,70.59,70.59,0,0,1-22.63,48,94.27,94.27,0,0,1-51.69,24.38l-17.15,2.33A34.36,34.36,0,0,1,1015.61,1428.74Zm45.05-92A15.64,15.64,0,0,0,1050,1341l-45,42.31a15.53,15.53,0,0,0-4.76,13.43,15.57,15.57,0,0,0,17.51,13.34l17.16-2.34a75.86,75.86,0,0,0,41.6-19.62,52.11,52.11,0,0,0,16.71-35.47,14.29,14.29,0,0,0-13.67-15.1Z"
      style="fill: #150035"
    />
    <path
      d="M990.49,1399.86l-13.4-4.86c1-2.81,25.58-68.86,83.55-77.29l2.06,14.1C1013.07,1339,990.71,1399.25,990.49,1399.86Z"
      style="fill: #fdce4a"
    />
  </g>
</svg>
