<svg width="263" height="259" viewBox="0 0 263 259" fill="none" xmlns="http://www.w3.org/2000/svg">
<mask id="mask0_35_1698" style="mask-type:alpha" maskUnits="userSpaceOnUse" x="7" y="25" width="221" height="221">
<circle cx="117.5" cy="135.5" r="110.5" fill="#C4C4C4"/>
</mask>
<g mask="url(#mask0_35_1698)">
<path d="M117.86 245.39C89.7911 245.376 62.7924 234.618 42.4071 215.323C22.0217 196.027 9.79664 169.66 8.24178 141.635C6.68693 113.609 15.9203 86.0511 34.0461 64.6194C52.172 43.1878 77.8149 29.5084 105.71 26.39C109.827 25.9279 113.967 25.6942 118.11 25.69C146.179 25.7036 173.178 36.4624 193.563 55.7574C213.948 75.0525 226.173 101.42 227.728 129.445C229.283 157.471 220.05 185.029 201.924 206.461C183.798 227.892 158.155 241.572 130.26 244.69C126.146 245.149 122.01 245.379 117.87 245.38L117.86 245.39ZM118 128.04C117.713 128.025 117.426 128.025 117.14 128.04C115.151 128.15 113.287 129.046 111.958 130.53C110.63 132.015 109.945 133.966 110.055 135.955C110.165 137.944 111.061 139.808 112.545 141.137C114.029 142.465 115.981 143.15 117.97 143.04C118.257 143.038 118.544 143.021 118.83 142.99C119.809 142.881 120.756 142.579 121.618 142.103C122.48 141.627 123.24 140.986 123.854 140.216C124.468 139.446 124.924 138.562 125.196 137.616C125.468 136.669 125.551 135.679 125.44 134.7C125.236 132.869 124.364 131.178 122.992 129.949C121.619 128.721 119.842 128.041 118 128.04Z" fill="#34332E"/>
<path d="M105.94 28.39C84.7444 30.7725 64.7313 39.3869 48.4315 53.1437C32.1318 66.9005 20.2776 85.1819 14.3679 105.676C8.45829 126.17 8.75869 147.956 15.2311 168.28C21.7036 188.603 34.0573 206.551 50.7302 219.853C67.403 233.155 87.6461 241.214 108.899 243.012C130.153 244.809 151.462 240.263 170.131 229.95C188.801 219.636 203.993 204.018 213.787 185.07C223.58 166.122 227.534 144.695 225.15 123.5C223.568 109.427 219.23 95.8039 212.383 83.4079C205.536 71.0119 196.314 60.086 185.244 51.2541C174.175 42.4222 161.473 35.8572 147.866 31.9342C134.259 28.0112 120.013 26.8068 105.94 28.39ZM119.68 150.63C116.699 150.963 113.686 150.405 111.023 149.026C108.359 147.647 106.164 145.51 104.714 142.883C103.265 140.257 102.627 137.26 102.88 134.272C103.134 131.283 104.268 128.436 106.139 126.092C108.009 123.747 110.533 122.01 113.391 121.1C116.249 120.189 119.313 120.146 122.195 120.977C125.078 121.807 127.649 123.473 129.585 125.764C131.52 128.056 132.733 130.869 133.07 133.85C133.294 135.831 133.125 137.837 132.573 139.753C132.021 141.669 131.097 143.457 129.854 145.016C128.61 146.574 127.071 147.872 125.326 148.836C123.58 149.799 121.662 150.409 119.68 150.63Z" fill="#C3E2DD"/>
<g style="mix-blend-mode:color-burn" opacity="0.5">
<path d="M134.4 257.92C134.72 256.41 102.74 0 102.74 0L262.32 75.44L0 186.04C0 186.04 60.3 267.73 134.4 257.92Z" fill="#999999"/>
</g>
<g style="mix-blend-mode:soft-light">
<g style="mix-blend-mode:soft-light">
<path d="M109.04 250.95L115.75 140.09L16.46 236.29L109.04 250.95Z" fill="#F6F8ED"/>
</g>
<g style="mix-blend-mode:soft-light">
<path d="M120.4 135.28L122.63 0.220001L238.91 46.5L120.4 135.28Z" fill="#F6F8ED"/>
</g>
</g>
<g style="mix-blend-mode:soft-light">
<g style="mix-blend-mode:soft-light">
<path d="M207.01 107.56C206.51 107.68 209.35 115.47 210.01 128.56C211.095 145.571 207.546 162.557 199.74 177.71C190.58 195.38 176.84 207.96 165.74 214.66C154.63 221.54 146.74 223.84 146.9 224.37C146.96 224.54 148.9 223.99 152.45 222.84C154.597 222.155 156.693 221.316 158.72 220.33C161.48 219.158 164.153 217.791 166.72 216.24C178.3 209.84 192.72 197.11 202.11 178.91C210.164 163.373 213.564 145.841 211.9 128.42C211.506 123.185 210.561 118.006 209.08 112.97C208 109.34 207.17 107.46 207.01 107.56Z" fill="white"/>
</g>
<g style="mix-blend-mode:soft-light">
<path d="M27.61 158.82C28.08 158.73 25.68 150.53 25.61 137C25.91 130.28 26.19 122.19 28.61 113.6C31.0024 104.258 34.7846 95.3283 39.83 87.11C44.8595 78.8741 51.1801 71.5 58.55 65.27C64.5115 60.1068 71.1164 55.7371 78.2 52.27C90.33 46.27 98.75 44.86 98.6 44.27C98.6 44.1 96.49 44.46 92.74 45.27C91.8 45.48 90.74 45.68 89.62 45.98L86.02 47.18L81.9 48.56C80.46 49.13 78.99 49.85 77.42 50.56C70.0497 53.8787 63.1772 58.2069 57 63.42C49.3184 69.7205 42.7444 77.2612 37.55 85.73C32.3573 94.1755 28.5238 103.384 26.19 113.02C23.87 121.88 23.76 130.18 23.71 137.02C24 140.44 24.27 143.54 24.51 146.26C24.75 148.98 25.34 151.26 25.78 153.13C26.7 156.88 27.44 158.87 27.61 158.82Z" fill="white"/>
</g>
</g>
<path d="M147.27 132.26C146.619 126.471 144.266 121.004 140.508 116.552C136.751 112.1 131.758 108.862 126.16 107.247C120.562 105.632 114.612 105.713 109.06 107.48C103.509 109.247 98.6056 112.62 94.971 117.173C91.3364 121.726 89.1333 127.255 88.6403 133.06C88.1474 138.865 89.3867 144.686 92.2015 149.786C95.0163 154.887 99.2803 159.039 104.454 161.717C109.628 164.394 115.48 165.478 121.27 164.83C129.037 163.958 136.139 160.037 141.015 153.929C145.891 147.821 148.141 140.027 147.27 132.26Z" fill="#EDD05F"/>
<path d="M141.2 132.94C140.684 128.348 138.819 124.013 135.839 120.482C132.859 116.95 128.899 114.382 124.46 113.102C120.02 111.821 115.3 111.886 110.898 113.288C106.495 114.69 102.607 117.366 99.7256 120.978C96.844 124.59 95.0982 128.975 94.709 133.579C94.3198 138.183 95.3047 142.799 97.5392 146.844C99.7737 150.888 103.157 154.179 107.262 156.3C111.367 158.421 116.009 159.277 120.6 158.76C126.755 158.067 132.383 154.957 136.246 150.115C140.109 145.273 141.891 139.095 141.2 132.94Z" fill="#CB7178"/>
<path d="M117.86 245.39C89.7911 245.376 62.7924 234.618 42.4071 215.323C22.0217 196.027 9.79664 169.66 8.24178 141.635C6.68693 113.609 15.9203 86.0511 34.0461 64.6194C52.172 43.1878 77.8149 29.5084 105.71 26.39C109.827 25.9279 113.967 25.6942 118.11 25.69C146.179 25.7036 173.178 36.4624 193.563 55.7574C213.948 75.0525 226.173 101.42 227.728 129.445C229.283 157.471 220.05 185.029 201.924 206.461C183.798 227.892 158.155 241.572 130.26 244.69C126.146 245.149 122.01 245.379 117.87 245.38L117.86 245.39ZM118 128.04C117.713 128.025 117.426 128.025 117.14 128.04C115.151 128.15 113.287 129.046 111.958 130.53C110.63 132.015 109.945 133.966 110.055 135.955C110.165 137.944 111.061 139.808 112.545 141.137C114.029 142.465 115.981 143.15 117.97 143.04C118.257 143.038 118.544 143.021 118.83 142.99C119.809 142.881 120.756 142.579 121.618 142.103C122.48 141.627 123.24 140.986 123.854 140.216C124.468 139.446 124.924 138.562 125.196 137.616C125.468 136.669 125.551 135.679 125.44 134.7C125.236 132.869 124.364 131.178 122.992 129.949C121.619 128.721 119.842 128.041 118 128.04Z" fill="#34332E"/>
<path d="M105.94 28.39C84.7444 30.7725 64.7313 39.3869 48.4315 53.1437C32.1318 66.9005 20.2776 85.1819 14.3679 105.676C8.45829 126.17 8.75869 147.956 15.2311 168.28C21.7036 188.603 34.0573 206.551 50.7302 219.853C67.403 233.155 87.6461 241.214 108.899 243.012C130.153 244.809 151.462 240.263 170.131 229.95C188.801 219.636 203.993 204.018 213.787 185.07C223.58 166.122 227.534 144.695 225.15 123.5C223.568 109.427 219.23 95.8039 212.383 83.4079C205.536 71.0119 196.314 60.086 185.244 51.2541C174.175 42.4222 161.473 35.8572 147.866 31.9342C134.259 28.0112 120.013 26.8068 105.94 28.39ZM119.68 150.63C116.699 150.963 113.686 150.405 111.023 149.026C108.359 147.647 106.164 145.51 104.714 142.883C103.265 140.257 102.627 137.26 102.88 134.272C103.134 131.283 104.268 128.436 106.139 126.092C108.009 123.747 110.533 122.01 113.391 121.1C116.249 120.189 119.313 120.146 122.195 120.977C125.078 121.807 127.649 123.473 129.585 125.764C131.52 128.056 132.733 130.869 133.07 133.85C133.294 135.831 133.125 137.837 132.573 139.753C132.021 141.669 131.097 143.457 129.854 145.016C128.61 146.574 127.071 147.872 125.326 148.836C123.58 149.799 121.662 150.409 119.68 150.63Z" fill="#C3E2DD"/>
<g style="mix-blend-mode:color-burn" opacity="0.5">
<path d="M134.4 257.92C134.72 256.41 102.74 0 102.74 0L262.32 75.44L0 186.04C0 186.04 60.3 267.73 134.4 257.92Z" fill="#999999"/>
</g>
<g style="mix-blend-mode:soft-light">
<g style="mix-blend-mode:soft-light">
<path d="M109.04 250.95L115.75 140.09L16.46 236.29L109.04 250.95Z" fill="#F6F8ED"/>
</g>
<g style="mix-blend-mode:soft-light">
<path d="M120.4 135.28L122.63 0.220001L238.91 46.5L120.4 135.28Z" fill="#F6F8ED"/>
</g>
</g>
<g style="mix-blend-mode:soft-light">
<g style="mix-blend-mode:soft-light">
<path d="M207.01 107.56C206.51 107.68 209.35 115.47 210.01 128.56C211.095 145.571 207.546 162.557 199.74 177.71C190.58 195.38 176.84 207.96 165.74 214.66C154.63 221.54 146.74 223.84 146.9 224.37C146.96 224.54 148.9 223.99 152.45 222.84C154.597 222.155 156.693 221.316 158.72 220.33C161.48 219.158 164.153 217.791 166.72 216.24C178.3 209.84 192.72 197.11 202.11 178.91C210.164 163.373 213.564 145.841 211.9 128.42C211.506 123.185 210.561 118.006 209.08 112.97C208 109.34 207.17 107.46 207.01 107.56Z" fill="white"/>
</g>
<g style="mix-blend-mode:soft-light">
<path d="M27.61 158.82C28.08 158.73 25.68 150.53 25.61 137C25.91 130.28 26.19 122.19 28.61 113.6C31.0024 104.258 34.7846 95.3283 39.83 87.11C44.8595 78.8741 51.1801 71.5 58.55 65.27C64.5115 60.1068 71.1164 55.7371 78.2 52.27C90.33 46.27 98.75 44.86 98.6 44.27C98.6 44.1 96.49 44.46 92.74 45.27C91.8 45.48 90.74 45.68 89.62 45.98L86.02 47.18L81.9 48.56C80.46 49.13 78.99 49.85 77.42 50.56C70.0497 53.8787 63.1772 58.2069 57 63.42C49.3184 69.7205 42.7444 77.2612 37.55 85.73C32.3573 94.1755 28.5238 103.384 26.19 113.02C23.87 121.88 23.76 130.18 23.71 137.02C24 140.44 24.27 143.54 24.51 146.26C24.75 148.98 25.34 151.26 25.78 153.13C26.7 156.88 27.44 158.87 27.61 158.82Z" fill="white"/>
</g>
</g>
<path d="M147.27 132.26C146.619 126.471 144.266 121.004 140.508 116.552C136.751 112.1 131.758 108.862 126.16 107.247C120.562 105.632 114.612 105.713 109.06 107.48C103.509 109.247 98.6056 112.62 94.971 117.173C91.3364 121.726 89.1333 127.255 88.6403 133.06C88.1474 138.865 89.3867 144.686 92.2015 149.786C95.0163 154.887 99.2803 159.039 104.454 161.717C109.628 164.394 115.48 165.478 121.27 164.83C129.037 163.958 136.139 160.037 141.015 153.929C145.891 147.821 148.141 140.027 147.27 132.26Z" fill="#EDD05F"/>
<path d="M141.2 132.94C140.684 128.348 138.819 124.013 135.839 120.482C132.859 116.95 128.899 114.382 124.46 113.102C120.02 111.821 115.3 111.886 110.898 113.288C106.495 114.69 102.607 117.366 99.7256 120.978C96.844 124.59 95.0982 128.975 94.709 133.579C94.3198 138.183 95.3047 142.799 97.5392 146.844C99.7737 150.888 103.157 154.179 107.262 156.3C111.367 158.421 116.009 159.277 120.6 158.76C126.755 158.067 132.383 154.957 136.246 150.115C140.109 145.273 141.891 139.095 141.2 132.94Z" fill="#CB7178"/>
</g>
</svg>
