<?xml version="1.0" encoding="utf-8"?>
<!-- Generator: Adobe Illustrator 24.2.1, SVG Export Plug-In . SVG Version: 6.00 Build 0)  -->
<svg version="1.1" id="Layer_1" xmlns="http://www.w3.org/2000/svg" xmlns:xlink="http://www.w3.org/1999/xlink" x="0px" y="0px"
	 viewBox="0 0 220 220" style="enable-background:new 0 0 220 220;" xml:space="preserve">
<style type="text/css">
	.st0{fill:#FFFFFF;}
	.st1{filter:url(#Adobe_OpacityMaskFilter);}
	.st2{fill:#C4C4C4;}
	.st3{mask:url(#mask_1_);}
	.st4{fill:#34332E;}
	.st5{fill:#C3E2DD;}
	.st6{opacity:0.5;}
	.st7{fill:#999999;}
	.st8{fill:#F6F8ED;}
	.st9{fill:#EDD05F;}
	.st10{fill:#CB7178;}
</style>
<path class="st0" d="M111.4,213L111.4,213c-56.8,0-102.8-46-102.8-102.8v0c0-56.8,46-102.8,102.8-102.8h0
	c56.8,0,102.8,46,102.8,102.8v0C214.2,166.9,168.2,213,111.4,213z"/>
<defs>
	<filter id="Adobe_OpacityMaskFilter" filterUnits="userSpaceOnUse" x="-0.9" y="-18.8" width="248.2" height="244.8">
		<feColorMatrix  type="matrix" values="1 0 0 0 0  0 1 0 0 0  0 0 1 0 0  0 0 0 1 0"/>
	</filter>
</defs>
<mask maskUnits="userSpaceOnUse" x="-0.9" y="-18.8" width="248.2" height="244.8" id="mask_1_">
	<g id="mask0_35_1698_1_" class="st1">
		<circle class="st2" cx="110.3" cy="109.4" r="104.6"/>
	</g>
</mask>
<g class="st3">
	<path class="st4" d="M110.6,213.4c-57.4,0-103.9-46.6-103.9-104C6.7,56.5,46.5,12,99.1,6.1c3.9-0.4,7.8-0.7,11.7-0.7
		c57.4,0,103.9,46.6,103.9,104c0,52.9-39.8,97.4-92.4,103.3C118.4,213.2,114.5,213.4,110.6,213.4L110.6,213.4z M110.7,102.4
		c-0.3,0-0.5,0-0.8,0c-3.9,0.2-6.9,3.6-6.7,7.5s3.6,6.9,7.5,6.7c0.3,0,0.5,0,0.8,0c1.9-0.2,3.6-1.2,4.8-2.6c0.6-0.7,1-1.6,1.3-2.5
		c0.3-0.9,0.3-1.8,0.2-2.8c-0.2-1.7-1-3.3-2.3-4.5C114.2,103,112.5,102.4,110.7,102.4L110.7,102.4z"/>
	<path class="st5" d="M99.3,8c-56,6.3-96.3,56.7-90,112.7S66,217,122,210.7S218.3,154,212,98c-4.6-41-33.4-75.2-73-86.6
		C126.1,7.7,112.6,6.5,99.3,8z M112.3,123.7c-7.9,0.9-15-4.8-15.8-12.7s4.8-15,12.7-15.8c7.9-0.9,15,4.8,15.8,12.7
		C125.9,115.7,120.2,122.8,112.3,123.7C112.3,123.7,112.3,123.7,112.3,123.7L112.3,123.7z"/>
	<g class="st6">
		<path class="st7" d="M126.2,225.2c0.3-1.4-30-244.1-30-244.1l151,71.4L-0.9,157.2C-0.9,157.2,56.1,234.5,126.2,225.2z"/>
	</g>
	<path class="st8" d="M102.2,218.6l6.3-104.9l-94,91L102.2,218.6z"/>
	<path class="st8" d="M113,109.2l2.1-127.8l110,43.8L113,109.2z"/>
	<path class="st0" d="M195,83c-0.5,0.1,2.2,7.5,2.8,19.9c1,16.1-2.3,32.2-9.7,46.5c-8.7,16.7-21.7,28.6-32.2,35
		c-10.5,6.5-18,8.7-17.8,9.2c0.1,0.2,1.9-0.4,5.3-1.4c2-0.6,4-1.4,5.9-2.4c2.6-1.1,5.1-2.4,7.6-3.9c10.9-6.1,24.6-18.1,33.5-35.3
		c7.6-14.7,10.8-31.3,9.3-47.8c-0.4-5-1.3-9.9-2.7-14.6C195.9,84.6,195.1,82.9,195,83z"/>
	<path class="st0" d="M25.2,131.5c0.4-0.1-1.8-7.8-1.9-20.7c0.3-6.4,0.5-14,2.8-22.1c2.3-8.8,5.8-17.3,10.6-25.1
		c4.8-7.8,10.7-14.8,17.7-20.7c5.6-4.9,11.9-9,18.6-12.3c11.5-5.7,19.4-7,19.3-7.6c0-0.2-2,0.2-5.5,1c-0.9,0.2-1.9,0.4-2.9,0.7
		l-3.4,1.1l-3.9,1.3c-1.4,0.5-2.8,1.2-4.2,1.9c-7,3.1-13.5,7.2-19.3,12.1c-7.3,6-13.5,13.1-18.4,21.1c-4.9,8-8.5,16.7-10.8,25.8
		c-2.2,8.4-2.3,16.2-2.4,22.7c0.3,3.2,0.5,6.2,0.8,8.8c0.2,2.2,0.6,4.4,1.2,6.5C24.3,129.6,25,131.5,25.2,131.5z"/>
	<path class="st9" d="M138.4,106.3C136.7,91,122.9,80,107.6,81.7C92.3,83.4,81.3,97.2,83,112.5c1.7,15.3,15.5,26.3,30.8,24.6
		c7.4-0.8,14.1-4.5,18.7-10.3C137.1,121.1,139.2,113.7,138.4,106.3z"/>
	<path class="st10" d="M132.7,107c-1.4-12.1-12.3-20.9-24.4-19.5c-12.1,1.4-20.9,12.3-19.5,24.4c1.4,12.1,12.3,20.9,24.4,19.5
		c5.8-0.7,11.2-3.6,14.8-8.2C131.6,118.6,133.3,112.8,132.7,107z"/>
	<path class="st4" d="M110.6,213.4c-57.4,0-103.9-46.6-103.9-104C6.7,56.5,46.5,12,99.1,6.1c3.9-0.4,7.8-0.7,11.7-0.7
		c57.4,0,103.9,46.6,103.9,104c0,52.9-39.8,97.4-92.4,103.3C118.4,213.2,114.5,213.4,110.6,213.4L110.6,213.4z M110.7,102.4
		c-0.3,0-0.5,0-0.8,0c-3.9,0.2-6.9,3.6-6.7,7.5s3.6,6.9,7.5,6.7c0.3,0,0.5,0,0.8,0c1.9-0.2,3.6-1.2,4.8-2.6c0.6-0.7,1-1.6,1.3-2.5
		c0.3-0.9,0.3-1.8,0.2-2.8c-0.2-1.7-1-3.3-2.3-4.5C114.2,103,112.5,102.4,110.7,102.4L110.7,102.4z"/>
	<path class="st5" d="M99.3,8c-56,6.3-96.3,56.7-90,112.7S66,217,122,210.7S218.3,154,212,98c-4.6-41-33.4-75.2-73-86.6
		C126.1,7.7,112.6,6.5,99.3,8z M112.3,123.7c-7.9,0.9-15-4.8-15.8-12.7s4.8-15,12.7-15.8c7.9-0.9,15,4.8,15.8,12.7
		C125.9,115.7,120.2,122.8,112.3,123.7C112.3,123.7,112.3,123.7,112.3,123.7L112.3,123.7z"/>
	<g class="st6">
		<path class="st7" d="M126.2,225.2c0.3-1.4-30-244.1-30-244.1l151,71.4L-0.9,157.2C-0.9,157.2,56.1,234.5,126.2,225.2z"/>
	</g>
	<path class="st8" d="M102.2,218.6l6.3-104.9l-94,91L102.2,218.6z"/>
	<path class="st8" d="M113,109.2l2.1-127.8l110,43.8L113,109.2z"/>
	<path class="st0" d="M195,83c-0.5,0.1,2.2,7.5,2.8,19.9c1,16.1-2.3,32.2-9.7,46.5c-8.7,16.7-21.7,28.6-32.2,35
		c-10.5,6.5-18,8.7-17.8,9.2c0.1,0.2,1.9-0.4,5.3-1.4c2-0.6,4-1.4,5.9-2.4c2.6-1.1,5.1-2.4,7.6-3.9c10.9-6.1,24.6-18.1,33.5-35.3
		c7.6-14.7,10.8-31.3,9.3-47.8c-0.4-5-1.3-9.9-2.7-14.6C195.9,84.6,195.1,82.9,195,83z"/>
	<path class="st0" d="M25.2,131.5c0.4-0.1-1.8-7.8-1.9-20.7c0.3-6.4,0.5-14,2.8-22.1c2.3-8.8,5.8-17.3,10.6-25.1
		c4.8-7.8,10.7-14.8,17.7-20.7c5.6-4.9,11.9-9,18.6-12.3c11.5-5.7,19.4-7,19.3-7.6c0-0.2-2,0.2-5.5,1c-0.9,0.2-1.9,0.4-2.9,0.7
		l-3.4,1.1l-3.9,1.3c-1.4,0.5-2.8,1.2-4.2,1.9c-7,3.1-13.5,7.2-19.3,12.1c-7.3,6-13.5,13.1-18.4,21.1c-4.9,8-8.5,16.7-10.8,25.8
		c-2.2,8.4-2.3,16.2-2.4,22.7c0.3,3.2,0.5,6.2,0.8,8.8c0.2,2.2,0.6,4.4,1.2,6.5C24.3,129.6,25,131.5,25.2,131.5z"/>
	<path class="st9" d="M138.4,106.3C136.7,91,122.9,80,107.6,81.7C92.3,83.4,81.3,97.2,83,112.5c1.7,15.3,15.5,26.3,30.8,24.6
		c7.4-0.8,14.1-4.5,18.7-10.3C137.1,121.1,139.2,113.7,138.4,106.3z"/>
	<path class="st10" d="M132.7,107c-1.4-12.1-12.3-20.9-24.4-19.5c-12.1,1.4-20.9,12.3-19.5,24.4c1.4,12.1,12.3,20.9,24.4,19.5
		c5.8-0.7,11.2-3.6,14.8-8.2C131.6,118.6,133.3,112.8,132.7,107z"/>
</g>
</svg>
