<svg width="881" height="665" viewBox="0 0 881 665" fill="none" xmlns="http://www.w3.org/2000/svg">
<path d="M713.307 129.744H1.94727V607.065H713.307V129.744Z" fill="#FFEFE3"/>
<path d="M711.51 131.432V605.179H3.6443V131.432H711.51ZM715.004 127.958H711.51H3.6443H0.150391V131.432V605.179V608.653H3.6443H711.51H715.004V605.179V131.432V127.958Z" fill="#333333"/>
<path d="M713.606 189H1.54797V192.474H713.606V189Z" fill="#333333"/>
<path d="M50.762 181.754H17.6199V141.754H50.8618V181.754H50.762ZM21.1138 178.28H47.3679V145.228H21.1138V178.28Z" fill="#333333"/>
<path d="M20.7003 142.403L18.0004 144.608L46.8272 179.38L49.5271 177.175L20.7003 142.403Z" fill="#333333"/>
<path d="M47.6895 142.478L17.9583 178.95L20.6763 181.133L50.4075 144.66L47.6895 142.478Z" fill="#333333"/>
<path d="M144.798 181.754H111.556V141.754H144.798V181.754ZM115.05 178.28H141.304V145.228H115.05V178.28V178.28Z" fill="#333333"/>
<path d="M138.209 169.546H118.943V173.02H138.209V169.546Z" fill="#333333"/>
<path d="M96.8817 176.196H63.6396V141.754H96.8817V176.196ZM67.1336 172.722H93.3878V145.228H67.1336V172.722Z" fill="#333333"/>
<path d="M102.272 181.159H69.0303V175.402H72.5242V177.685H98.7784V150.191H95.8834V146.717H102.272V181.159Z" fill="#333333"/>
<path d="M89.7941 149.099H70.2283V169.546H89.7941V149.099Z" fill="#333333"/>
<path d="M725.286 157.337H13.9264V634.658H725.286V157.337Z" fill="#FFEFE3"/>
<path d="M723.489 159.124V632.871H15.6234V159.124H723.489ZM727.083 155.65H723.589H15.6234H12.1295V159.124V632.871V636.345H15.6234H723.489H726.983V632.871V159.124V155.65H727.083Z" fill="#333333"/>
<path d="M725.685 216.692H13.627V220.166H725.685V216.692Z" fill="#333333"/>
<path d="M62.841 209.447H29.599V169.447H62.841V209.447ZM33.0929 205.973H59.3471V172.921H33.0929V205.973Z" fill="#333333"/>
<path d="M32.6997 170.117L29.9998 172.322L58.8267 207.095L61.5266 204.89L32.6997 170.117Z" fill="#333333"/>
<path d="M59.7597 170.117L30.0284 206.589L32.7465 208.772L62.4777 172.3L59.7597 170.117Z" fill="#333333"/>
<path d="M156.777 209.447H123.535V169.447H156.777V209.447ZM127.129 205.973H153.383V172.921H127.129V205.973Z" fill="#333333"/>
<path d="M150.189 197.238H130.922V200.712H150.189V197.238Z" fill="#333333"/>
<path d="M108.861 203.888H75.6187V169.447H108.861V203.888V203.888ZM79.1126 200.414H105.367V172.921H79.1126V200.414Z" fill="#333333"/>
<path d="M114.351 208.851H81.1091V203.094H84.603V205.377H110.857V177.883H107.962V174.409H114.351V208.851Z" fill="#333333"/>
<path d="M101.773 176.792H82.2073V197.238H101.773V176.792Z" fill="#333333"/>
<path d="M744.851 185.328H33.4922V662.648H744.851V185.328Z" fill="#FFEFE3"/>
<path d="M743.154 187.114V660.861H35.2891V187.114H743.154ZM746.648 183.64H743.154H35.2891H31.7952V187.114V660.861V664.335H35.2891H743.154H746.648V660.861V187.114V183.64V183.64Z" fill="#333333"/>
<path d="M745.251 244.682H33.1927V248.156H745.251V244.682Z" fill="#333333"/>
<path d="M82.407 237.437H49.1649V197.437H82.407V237.437ZM52.7587 233.963H79.0129V200.911H52.7587V233.963Z" fill="#333333"/>
<path d="M52.3536 198.073L49.6537 200.278L78.4806 235.05L81.1805 232.845L52.3536 198.073Z" fill="#333333"/>
<path d="M79.3425 198.141L49.6113 234.613L52.3294 236.796L82.0605 200.324L79.3425 198.141Z" fill="#333333"/>
<path d="M176.443 237.437H143.201V197.437H176.443V237.437V237.437ZM146.695 233.963H172.949V200.911H146.695V233.963Z" fill="#333333"/>
<path d="M169.854 225.228H150.588V228.702H169.854V225.228Z" fill="#333333"/>
<path d="M128.526 231.878H95.2844V197.437H128.526V231.878ZM98.7783 228.404H124.933V200.911H98.7783V228.404Z" fill="#333333"/>
<path d="M133.917 236.841H100.675V231.084H104.169V233.367H130.423V205.873H127.528V202.399H133.917V236.841Z" fill="#333333"/>
<path d="M121.439 204.782H101.873V225.228H121.439V204.782Z" fill="#333333"/>
<path d="M743.753 248.156H34.6901V660.96H743.753V248.156Z" stroke="#34332E" stroke-width="0.5" stroke-miterlimit="10"/>
<mask id="mask0_198_4" style="mask-type:alpha" maskUnits="userSpaceOnUse" x="625" y="25" width="221" height="221">
<circle cx="735.5" cy="135.5" r="110.5" fill="#C4C4C4"/>
</mask>
<g mask="url(#mask0_198_4)">
<path d="M735.86 245.39C707.791 245.376 680.792 234.618 660.407 215.323C640.022 196.027 627.797 169.66 626.242 141.635C624.687 113.609 633.92 86.0511 652.046 64.6194C670.172 43.1878 695.815 29.5084 723.71 26.39C727.827 25.9279 731.967 25.6942 736.11 25.69C764.179 25.7036 791.178 36.4624 811.563 55.7574C831.948 75.0525 844.173 101.42 845.728 129.445C847.283 157.471 838.05 185.029 819.924 206.461C801.798 227.892 776.155 241.572 748.26 244.69C744.146 245.149 740.01 245.379 735.87 245.38L735.86 245.39ZM736 128.04C735.713 128.025 735.426 128.025 735.14 128.04C733.151 128.15 731.287 129.046 729.958 130.53C728.63 132.015 727.945 133.966 728.055 135.955C728.165 137.944 729.061 139.808 730.545 141.137C732.029 142.465 733.981 143.15 735.97 143.04C736.257 143.038 736.544 143.021 736.83 142.99C737.809 142.881 738.756 142.579 739.618 142.103C740.48 141.627 741.24 140.986 741.854 140.216C742.468 139.446 742.924 138.562 743.196 137.616C743.468 136.669 743.551 135.679 743.44 134.7C743.236 132.869 742.364 131.178 740.992 129.949C739.619 128.721 737.842 128.041 736 128.04V128.04Z" fill="#34332E"/>
<path d="M723.94 28.39C702.744 30.7725 682.731 39.3869 666.432 53.1437C650.132 66.9005 638.278 85.1819 632.368 105.676C626.458 126.17 626.759 147.956 633.231 168.28C639.704 188.603 652.057 206.551 668.73 219.853C685.403 233.155 705.646 241.214 726.899 243.012C748.153 244.809 769.462 240.263 788.131 229.95C806.801 219.636 821.993 204.018 831.787 185.07C841.58 166.122 845.534 144.695 843.15 123.5C841.568 109.427 837.23 95.8039 830.383 83.4079C823.536 71.0119 814.314 60.086 803.244 51.2541C792.175 42.4222 779.473 35.8572 765.866 31.9342C752.259 28.0112 738.013 26.8068 723.94 28.39V28.39ZM737.68 150.63C734.699 150.963 731.686 150.405 729.023 149.026C726.359 147.647 724.164 145.51 722.714 142.883C721.265 140.257 720.627 137.26 720.88 134.272C721.134 131.283 722.268 128.436 724.139 126.092C726.009 123.747 728.533 122.01 731.391 121.1C734.249 120.189 737.313 120.146 740.195 120.977C743.078 121.807 745.649 123.473 747.585 125.764C749.52 128.056 750.733 130.869 751.07 133.85C751.294 135.831 751.125 137.837 750.573 139.753C750.021 141.669 749.097 143.457 747.854 145.016C746.61 146.574 745.071 147.872 743.326 148.836C741.58 149.799 739.662 150.409 737.68 150.63V150.63Z" fill="#C3E2DD"/>
<g style="mix-blend-mode:color-burn" opacity="0.5">
<path d="M752.4 257.92C752.72 256.41 720.74 0 720.74 0L880.32 75.44L618 186.04C618 186.04 678.3 267.73 752.4 257.92Z" fill="#999999"/>
</g>
<g style="mix-blend-mode:soft-light">
<g style="mix-blend-mode:soft-light">
<path d="M727.04 250.95L733.75 140.09L634.46 236.29L727.04 250.95Z" fill="#F6F8ED"/>
</g>
<g style="mix-blend-mode:soft-light">
<path d="M738.4 135.28L740.63 0.220001L856.91 46.5L738.4 135.28Z" fill="#F6F8ED"/>
</g>
</g>
<g style="mix-blend-mode:soft-light">
<g style="mix-blend-mode:soft-light">
<path d="M825.01 107.56C824.51 107.68 827.35 115.47 828.01 128.56C829.095 145.571 825.546 162.557 817.74 177.71C808.58 195.38 794.84 207.96 783.74 214.66C772.63 221.54 764.74 223.84 764.9 224.37C764.96 224.54 766.9 223.99 770.45 222.84C772.597 222.155 774.693 221.316 776.72 220.33C779.48 219.158 782.153 217.791 784.72 216.24C796.3 209.84 810.72 197.11 820.11 178.91C828.164 163.373 831.564 145.841 829.9 128.42C829.506 123.185 828.561 118.006 827.08 112.97C826 109.34 825.17 107.46 825.01 107.56Z" fill="white"/>
</g>
<g style="mix-blend-mode:soft-light">
<path d="M645.61 158.82C646.08 158.73 643.68 150.53 643.61 137C643.91 130.28 644.19 122.19 646.61 113.6C649.002 104.258 652.785 95.3283 657.83 87.11C662.86 78.8741 669.18 71.5 676.55 65.27C682.511 60.1068 689.116 55.7371 696.2 52.27C708.33 46.27 716.75 44.86 716.6 44.27C716.6 44.1 714.49 44.46 710.74 45.27C709.8 45.48 708.74 45.68 707.62 45.98L704.02 47.18L699.9 48.56C698.46 49.13 696.99 49.85 695.42 50.56C688.05 53.8787 681.177 58.2069 675 63.42C667.318 69.7205 660.744 77.2612 655.55 85.73C650.357 94.1755 646.524 103.384 644.19 113.02C641.87 121.88 641.76 130.18 641.71 137.02C642 140.44 642.27 143.54 642.51 146.26C642.75 148.98 643.34 151.26 643.78 153.13C644.7 156.88 645.44 158.87 645.61 158.82Z" fill="white"/>
</g>
</g>
<path d="M765.27 132.26C764.619 126.471 762.266 121.004 758.508 116.552C754.751 112.1 749.758 108.862 744.16 107.247C738.562 105.632 732.612 105.713 727.06 107.48C721.509 109.247 716.606 112.62 712.971 117.173C709.336 121.726 707.133 127.255 706.64 133.06C706.147 138.865 707.387 144.686 710.201 149.786C713.016 154.887 717.28 159.039 722.454 161.717C727.628 164.394 733.48 165.478 739.27 164.83C747.037 163.958 754.139 160.037 759.015 153.929C763.891 147.821 766.141 140.027 765.27 132.26Z" fill="#EDD05F"/>
<path d="M759.2 132.94C758.684 128.348 756.819 124.013 753.839 120.482C750.859 116.95 746.899 114.382 742.46 113.102C738.02 111.821 733.3 111.886 728.898 113.288C724.495 114.69 720.607 117.366 717.726 120.978C714.844 124.59 713.098 128.975 712.709 133.579C712.32 138.183 713.305 142.799 715.539 146.844C717.774 150.888 721.157 154.179 725.262 156.3C729.367 158.421 734.009 159.277 738.6 158.76C744.755 158.067 750.383 154.957 754.246 150.115C758.109 145.273 759.891 139.095 759.2 132.94V132.94Z" fill="#CB7178"/>
<path d="M735.86 245.39C707.791 245.376 680.792 234.618 660.407 215.323C640.022 196.027 627.797 169.66 626.242 141.635C624.687 113.609 633.92 86.0511 652.046 64.6194C670.172 43.1878 695.815 29.5084 723.71 26.39C727.827 25.9279 731.967 25.6942 736.11 25.69C764.179 25.7036 791.178 36.4624 811.563 55.7574C831.948 75.0525 844.173 101.42 845.728 129.445C847.283 157.471 838.05 185.029 819.924 206.461C801.798 227.892 776.155 241.572 748.26 244.69C744.146 245.149 740.01 245.379 735.87 245.38L735.86 245.39ZM736 128.04C735.713 128.025 735.426 128.025 735.14 128.04C733.151 128.15 731.287 129.046 729.958 130.53C728.63 132.015 727.945 133.966 728.055 135.955C728.165 137.944 729.061 139.808 730.545 141.137C732.029 142.465 733.981 143.15 735.97 143.04C736.257 143.038 736.544 143.021 736.83 142.99C737.809 142.881 738.756 142.579 739.618 142.103C740.48 141.627 741.24 140.986 741.854 140.216C742.468 139.446 742.924 138.562 743.196 137.616C743.468 136.669 743.551 135.679 743.44 134.7C743.236 132.869 742.364 131.178 740.992 129.949C739.619 128.721 737.842 128.041 736 128.04V128.04Z" fill="#34332E"/>
<path d="M723.94 28.39C702.744 30.7725 682.731 39.3869 666.432 53.1437C650.132 66.9005 638.278 85.1819 632.368 105.676C626.458 126.17 626.759 147.956 633.231 168.28C639.704 188.603 652.057 206.551 668.73 219.853C685.403 233.155 705.646 241.214 726.899 243.012C748.153 244.809 769.462 240.263 788.131 229.95C806.801 219.636 821.993 204.018 831.787 185.07C841.58 166.122 845.534 144.695 843.15 123.5C841.568 109.427 837.23 95.8039 830.383 83.4079C823.536 71.0119 814.314 60.086 803.244 51.2541C792.175 42.4222 779.473 35.8572 765.866 31.9342C752.259 28.0112 738.013 26.8068 723.94 28.39V28.39ZM737.68 150.63C734.699 150.963 731.686 150.405 729.023 149.026C726.359 147.647 724.164 145.51 722.714 142.883C721.265 140.257 720.627 137.26 720.88 134.272C721.134 131.283 722.268 128.436 724.139 126.092C726.009 123.747 728.533 122.01 731.391 121.1C734.249 120.189 737.313 120.146 740.195 120.977C743.078 121.807 745.649 123.473 747.585 125.764C749.52 128.056 750.733 130.869 751.07 133.85C751.294 135.831 751.125 137.837 750.573 139.753C750.021 141.669 749.097 143.457 747.854 145.016C746.61 146.574 745.071 147.872 743.326 148.836C741.58 149.799 739.662 150.409 737.68 150.63V150.63Z" fill="#C3E2DD"/>
<g style="mix-blend-mode:color-burn" opacity="0.5">
<path d="M752.4 257.92C752.72 256.41 720.74 0 720.74 0L880.32 75.44L618 186.04C618 186.04 678.3 267.73 752.4 257.92Z" fill="#999999"/>
</g>
<g style="mix-blend-mode:soft-light">
<g style="mix-blend-mode:soft-light">
<path d="M727.04 250.95L733.75 140.09L634.46 236.29L727.04 250.95Z" fill="#F6F8ED"/>
</g>
<g style="mix-blend-mode:soft-light">
<path d="M738.4 135.28L740.63 0.220001L856.91 46.5L738.4 135.28Z" fill="#F6F8ED"/>
</g>
</g>
<g style="mix-blend-mode:soft-light">
<g style="mix-blend-mode:soft-light">
<path d="M825.01 107.56C824.51 107.68 827.35 115.47 828.01 128.56C829.095 145.571 825.546 162.557 817.74 177.71C808.58 195.38 794.84 207.96 783.74 214.66C772.63 221.54 764.74 223.84 764.9 224.37C764.96 224.54 766.9 223.99 770.45 222.84C772.597 222.155 774.693 221.316 776.72 220.33C779.48 219.158 782.153 217.791 784.72 216.24C796.3 209.84 810.72 197.11 820.11 178.91C828.164 163.373 831.564 145.841 829.9 128.42C829.506 123.185 828.561 118.006 827.08 112.97C826 109.34 825.17 107.46 825.01 107.56Z" fill="white"/>
</g>
<g style="mix-blend-mode:soft-light">
<path d="M645.61 158.82C646.08 158.73 643.68 150.53 643.61 137C643.91 130.28 644.19 122.19 646.61 113.6C649.002 104.258 652.785 95.3283 657.83 87.11C662.86 78.8741 669.18 71.5 676.55 65.27C682.511 60.1068 689.116 55.7371 696.2 52.27C708.33 46.27 716.75 44.86 716.6 44.27C716.6 44.1 714.49 44.46 710.74 45.27C709.8 45.48 708.74 45.68 707.62 45.98L704.02 47.18L699.9 48.56C698.46 49.13 696.99 49.85 695.42 50.56C688.05 53.8787 681.177 58.2069 675 63.42C667.318 69.7205 660.744 77.2612 655.55 85.73C650.357 94.1755 646.524 103.384 644.19 113.02C641.87 121.88 641.76 130.18 641.71 137.02C642 140.44 642.27 143.54 642.51 146.26C642.75 148.98 643.34 151.26 643.78 153.13C644.7 156.88 645.44 158.87 645.61 158.82Z" fill="white"/>
</g>
</g>
<path d="M765.27 132.26C764.619 126.471 762.266 121.004 758.508 116.552C754.751 112.1 749.758 108.862 744.16 107.247C738.562 105.632 732.612 105.713 727.06 107.48C721.509 109.247 716.606 112.62 712.971 117.173C709.336 121.726 707.133 127.255 706.64 133.06C706.147 138.865 707.387 144.686 710.201 149.786C713.016 154.887 717.28 159.039 722.454 161.717C727.628 164.394 733.48 165.478 739.27 164.83C747.037 163.958 754.139 160.037 759.015 153.929C763.891 147.821 766.141 140.027 765.27 132.26Z" fill="#EDD05F"/>
<path d="M759.2 132.94C758.684 128.348 756.819 124.013 753.839 120.482C750.859 116.95 746.899 114.382 742.46 113.102C738.02 111.821 733.3 111.886 728.898 113.288C724.495 114.69 720.607 117.366 717.726 120.978C714.844 124.59 713.098 128.975 712.709 133.579C712.32 138.183 713.305 142.799 715.539 146.844C717.774 150.888 721.157 154.179 725.262 156.3C729.367 158.421 734.009 159.277 738.6 158.76C744.755 158.067 750.383 154.957 754.246 150.115C758.109 145.273 759.891 139.095 759.2 132.94V132.94Z" fill="#CB7178"/>
</g>
</svg>
