<svg width="351" height="30" viewBox="0 0 351 30" fill="none" xmlns="http://www.w3.org/2000/svg">
<g clip-path="url(#clip0_35_1688)">
<path d="M335.4 28.2H14.9C7.59997 28.2 1.59998 22.2 1.59998 14.9C1.59998 7.59997 7.59997 1.59998 14.9 1.59998H335.5C342.8 1.59998 348.8 7.59997 348.8 14.9C348.8 22.2 342.8 28.2 335.4 28.2Z" fill="white"/>
<path d="M335.4 29.8H14.9C6.7 29.8 0 23.1 0 14.9C0 6.7 6.7 0 14.9 0H335.5C343.7 0 350.4 6.7 350.4 14.9C350.4 23.1 343.7 29.8 335.4 29.8ZM14.9 3.2C8.4 3.2 3.2 8.4 3.2 14.9C3.2 21.4 8.5 26.6 14.9 26.6H335.5C342 26.6 347.2 21.3 347.2 14.9C347.2 8.4 341.9 3.2 335.5 3.2H14.9Z" fill="#333333"/>
<path d="M198.9 28.2H14.9C7.59997 28.2 1.59998 22.2 1.59998 14.9C1.59998 7.59997 7.59997 1.59998 14.9 1.59998H198.9C206.2 1.59998 212.2 7.59997 212.2 14.9C212.2 22.2 206.3 28.2 198.9 28.2Z" fill="#6EC458"/>
<path d="M198.9 29.8H14.9C6.7 29.8 0 23.1 0 14.9C0 6.7 6.7 0 14.9 0H198.9C207.1 0 213.8 6.7 213.8 14.9C213.8 23.1 207.1 29.8 198.9 29.8ZM14.9 3.2C8.4 3.2 3.2 8.4 3.2 14.9C3.2 21.4 8.5 26.6 14.9 26.6H198.9C205.4 26.6 210.6 21.3 210.6 14.9C210.6 8.4 205.3 3.2 198.9 3.2H14.9Z" fill="#333333"/>
</g>
<defs>
<clipPath id="clip0_35_1688">
<rect width="350.3" height="29.8" fill="white"/>
</clipPath>
</defs>
</svg>
