<svg xmlns="http://www.w3.org/2000/svg" xmlns:xlink="http://www.w3.org/1999/xlink" viewBox="0 0 208.85 399.56"><defs><clipPath id="clip-path" transform="translate(-693.87 -1241.37)"><polygon points="733.86 1249.28 877.73 1268.08 900.98 1309.53 700.01 1285.79 733.86 1249.28" style="fill:#442309;clip-rule:evenodd"/></clipPath><clipPath id="clip-path-2" transform="translate(-693.87 -1241.37)"><polygon points="774.67 1518.33 733.86 1249.28 700.01 1285.79 738.46 1513.32 774.67 1518.33" style="fill:#442309;clip-rule:evenodd"/></clipPath><clipPath id="clip-path-3" transform="translate(-693.87 -1241.37)"><polygon points="757.3 1516.32 796.61 1522.58 900.98 1309.53 877.72 1268.08 757.3 1516.32" style="fill:#442309;clip-rule:evenodd"/></clipPath><clipPath id="clip-path-4" transform="translate(-693.87 -1241.37)"><polygon id="SVGID" points="729.47 1243.12 873.33 1261.92 896.58 1303.37 695.62 1279.63 729.47 1243.12" style="fill:#07739e;clip-rule:evenodd"/></clipPath><clipPath id="clip-path-5" transform="translate(-693.87 -1241.37)"><polygon id="SVGID-2" data-name="SVGID" points="770.27 1512.17 729.47 1243.12 695.62 1279.63 734.06 1507.16 770.27 1512.17" style="fill:#46c0ae;clip-rule:evenodd"/></clipPath><clipPath id="clip-path-6" transform="translate(-693.87 -1241.37)"><polygon id="SVGID-3" data-name="SVGID" points="752.9 1510.16 792.22 1516.42 896.58 1303.37 873.33 1261.92 752.9 1510.16" style="fill:#46c0ae;clip-rule:evenodd"/></clipPath></defs><g id="Line2"><g style="opacity:0.4000000059604645;isolation:isolate"><path d="M807,1529a11.53,11.53,0,0,0-9.58-13.2l-58.65-9.34a11.53,11.53,0,0,0-13.2,9.58h0a11.53,11.53,0,0,0,9.57,13.2l58.66,9.34A11.53,11.53,0,0,0,807,1529Zm-6.77-1.08a4.67,4.67,0,0,0-3.88-5.35l-58.66-9.33a4.67,4.67,0,0,0-5.35,3.88h0a4.67,4.67,0,0,0,3.88,5.35l58.66,9.34a4.67,4.67,0,0,0,5.35-3.88Z" transform="translate(-693.87 -1241.37)" style="fill:#442309;fill-rule:evenodd"/><path d="M734.6,1529.73a12.15,12.15,0,0,1,4.31-23.9l58.65,9.34a12.14,12.14,0,0,1,10.08,13.9v0h0a12.14,12.14,0,0,1-13.9,10.05l-58.65-9.33Zm-8.39-13.62v0a10.92,10.92,0,0,0,9.07,12.48l58.65,9.34a10.93,10.93,0,0,0,12.5-9.07h0a10.94,10.94,0,0,0-9.07-12.5L738.71,1507a10.93,10.93,0,0,0-12.5,9.07ZM736,1523a5.29,5.29,0,0,1,1.88-10.41l58.65,9.34a5.27,5.27,0,0,1,4.39,6v0h0a5.28,5.28,0,0,1-6,4.36l-58.65-9.33Zm-3-5.83v0a4.07,4.07,0,0,0,3.38,4.63l58.65,9.33a4,4,0,0,0,4.65-3.37h0a4.06,4.06,0,0,0-3.38-4.65l-58.65-9.34a4.08,4.08,0,0,0-4.66,3.37Z" transform="translate(-693.87 -1241.37)" style="fill:#442309"/><circle cx="756.48" cy="1587.49" r="51.68" transform="translate(-1594.83 -241.5) rotate(-45)" style="fill:#442309"/><path d="M796.05,1530.69a3.42,3.42,0,0,0-2.84-3.92l-52.8-8.4a3.42,3.42,0,0,0-3.92,2.84L733,1543.43l59.57,9.48Z" transform="translate(-693.87 -1241.37)" style="fill:#442309;fill-rule:evenodd"/><path d="M763.62,1542.63a45.42,45.42,0,1,1-52,37.72A45.45,45.45,0,0,1,763.62,1542.63Zm-.38,2.38A43,43,0,1,1,714,1580.73,43,43,0,0,1,763.24,1545Z" transform="translate(-693.87 -1241.37)" style="fill:#442309;fill-rule:evenodd"/><path d="M763.75,1541.82a46.25,46.25,0,1,0,38.39,52.94A46.27,46.27,0,0,0,763.75,1541.82Zm-.13.81a45.42,45.42,0,1,1-52,37.72A45.45,45.45,0,0,1,763.62,1542.63Zm-.38,2.38A43,43,0,1,1,714,1580.73,43,43,0,0,1,763.24,1545Zm-.13.82a42.18,42.18,0,1,1-48.29,35A42.21,42.21,0,0,1,763.11,1545.83Z" transform="translate(-693.87 -1241.37)" style="fill:#442309;fill-rule:evenodd"/><path d="M745.93,1639.87a53.43,53.43,0,0,1-14.22-99.71l2.91-18.29a6.1,6.1,0,0,1,7-5.08l50.93,8.11a6.11,6.11,0,0,1,5.08,7l-2.91,18.29a53.64,53.64,0,0,1,14.52,45.7,53.45,53.45,0,0,1-61.16,44.36C747.36,1640.14,746.64,1640,745.93,1639.87Zm46.18-111.5-.1,0-50.94-8.11a2.63,2.63,0,0,0-3,2.18L735,1541.59a1.75,1.75,0,0,1-.94,1.28,49.93,49.93,0,0,0,12.54,93.57q1,.19,2,.36a50,50,0,0,0,57.16-41.46A50.09,50.09,0,0,0,791.62,1552a1.76,1.76,0,0,1-.49-1.51l3-19.17a2.61,2.61,0,0,0-2.07-3Z" transform="translate(-693.87 -1241.37)" style="fill:#442309"/><path d="M732.31,1564.15a42.81,42.81,0,0,0-4.85,9.64,37.24,37.24,0,0,0-2.13,10.59,32,32,0,0,0,5.59,20.4c3.67,5.1,9.34,9.36,17.62,11.81a.45.45,0,0,0,.56-.31.45.45,0,0,0-.31-.55c-8.1-2.33-13.67-6.42-17.29-11.37a31.35,31.35,0,0,1-5.65-19.95,36.81,36.81,0,0,1,2-10.47,42.09,42.09,0,0,1,4.72-9.6.17.17,0,0,0-.05-.23A.17.17,0,0,0,732.31,1564.15Z" transform="translate(-693.87 -1241.37)" style="fill:#442309;fill-rule:evenodd"/><path d="M744.93,1604.18c.28.3,2.72,2.92,3,5a5.17,5.17,0,0,1-2.56,5.3,38.2,38.2,0,0,0,0-4.83C745.31,1608.16,745.07,1605.65,744.93,1604.18Z" transform="translate(-693.87 -1241.37)" style="fill:#442309;fill-rule:evenodd"/><path d="M744.93,1604.18c.14,1.47.38,4,.5,5.49a38.2,38.2,0,0,1,0,4.83h0s-2.88-2.81-2.52-5.53a11.13,11.13,0,0,1,2-4.81Z" transform="translate(-693.87 -1241.37)" style="fill:#442309;fill-rule:evenodd"/><path d="M736.42,1560.42a6.42,6.42,0,0,0-3,.86,2.77,2.77,0,0,0-.95,3,21.09,21.09,0,0,1,1.76-1.91C734.8,1561.84,735.82,1560.94,736.42,1560.42Z" transform="translate(-693.87 -1241.37)" style="fill:#442309;fill-rule:evenodd"/><path d="M736.42,1560.42c-.6.52-1.62,1.42-2.22,2a21.09,21.09,0,0,0-1.76,1.91h0s2.16,0,3-1.25a6,6,0,0,0,1-2.64Z" transform="translate(-693.87 -1241.37)" style="fill:#442309;fill-rule:evenodd"/><path d="M723.76,1567.05c-.09.3-.81,3-.24,4.5a4,4,0,0,0,3.65,2.68,30.3,30.3,0,0,1-1.78-3.27C724.93,1569.89,724.19,1568.1,723.76,1567.05Z" transform="translate(-693.87 -1241.37)" style="fill:#442309;fill-rule:evenodd"/><path d="M723.76,1567.05c.43,1,1.17,2.84,1.63,3.91a30.3,30.3,0,0,0,1.78,3.27h0s1-3-.28-4.67a8.53,8.53,0,0,0-3.13-2.54Z" transform="translate(-693.87 -1241.37)" style="fill:#442309;fill-rule:evenodd"/><path d="M719.39,1578.16c0,.34.16,3.33,1.26,4.72a4.3,4.3,0,0,0,4.66,1.54,33.16,33.16,0,0,1-2.92-2.77C721.55,1580.7,720.19,1579.1,719.39,1578.16Z" transform="translate(-693.87 -1241.37)" style="fill:#442309;fill-rule:evenodd"/><path d="M719.39,1578.16c.8.94,2.16,2.54,3,3.49a33.16,33.16,0,0,0,2.92,2.77h0s0-3.36-1.85-4.72a9.31,9.31,0,0,0-4.07-1.58Z" transform="translate(-693.87 -1241.37)" style="fill:#442309;fill-rule:evenodd"/><path d="M730.45,1591.28c.11.26,1.11,2.53.81,4a3.55,3.55,0,0,1-2.89,2.86,27.29,27.29,0,0,0,1.15-3.14C729.79,1594,730.2,1592.27,730.45,1591.28Z" transform="translate(-693.87 -1241.37)" style="fill:#442309;fill-rule:evenodd"/><path d="M730.45,1591.28c-.25,1-.66,2.68-.93,3.69a27.29,27.29,0,0,1-1.15,3.14h0s-1.23-2.49-.37-4.19a7.76,7.76,0,0,1,2.44-2.67Z" transform="translate(-693.87 -1241.37)" style="fill:#442309;fill-rule:evenodd"/><path d="M735.84,1568.73a7.49,7.49,0,0,1-2.77,2.38,3.21,3.21,0,0,1-3.53-1,21.66,21.66,0,0,0,3-.47C733.44,1569.38,735,1569,735.84,1568.73Z" transform="translate(-693.87 -1241.37)" style="fill:#442309;fill-rule:evenodd"/><path d="M735.84,1568.73c-.88.24-2.4.65-3.32.88a21.66,21.66,0,0,1-3,.47h0s1.43-2.06,3.14-2.12a7,7,0,0,1,3.18.75Z" transform="translate(-693.87 -1241.37)" style="fill:#442309;fill-rule:evenodd"/><path d="M720.28,1602.23c.24.29,2.41,2.81,4.44,3.37a5.5,5.5,0,0,0,5.65-1.43,43.68,43.68,0,0,1-4.77-.68C724.13,1603.16,721.7,1602.58,720.28,1602.23Z" transform="translate(-693.87 -1241.37)" style="fill:#442309;fill-rule:evenodd"/><path d="M720.28,1602.23c1.42.35,3.85.93,5.32,1.26a43.68,43.68,0,0,0,4.77.68h0s-2.29-2.92-5-3a12.36,12.36,0,0,0-5.08,1Z" transform="translate(-693.87 -1241.37)" style="fill:#442309;fill-rule:evenodd"/><path d="M729.13,1560.24a7,7,0,0,0-.5,3.24A3.24,3.24,0,0,0,731,1566a24.29,24.29,0,0,1-1-2.66C729.73,1562.49,729.35,1561.07,729.13,1560.24Z" transform="translate(-693.87 -1241.37)" style="fill:#442309;fill-rule:evenodd"/><path d="M729.13,1560.24c.22.83.6,2.25.84,3.11a24.29,24.29,0,0,0,1,2.66h0a4.82,4.82,0,0,0,.16-3.45,7.15,7.15,0,0,0-2-2.34Z" transform="translate(-693.87 -1241.37)" style="fill:#442309;fill-rule:evenodd"/><path d="M735.64,1618.48c1.28-.88,2.86-2.69,5-3.33a7.29,7.29,0,0,1,4.39.35,7.83,7.83,0,0,1-3.67,2.06,44.49,44.49,0,0,1-5.08.85Z" transform="translate(-693.87 -1241.37)" style="fill:#442309;fill-rule:evenodd"/><path d="M745,1615.5s.22,3.28-2.29,4.12c-2.94,1-7.1-1.14-7.1-1.14l.64-.07a44.49,44.49,0,0,0,5.08-.85A7.83,7.83,0,0,0,745,1615.5Z" transform="translate(-693.87 -1241.37)" style="fill:#442309;fill-rule:evenodd"/><path d="M721.23,1596.09c1.17.24,3,.14,4.52,1a5.62,5.62,0,0,1,2.16,2.62,6.11,6.11,0,0,1-3.11-.92,35.65,35.65,0,0,1-3.19-2.36Z" transform="translate(-693.87 -1241.37)" style="fill:#442309;fill-rule:evenodd"/><path d="M727.91,1599.69s-1.69,1.88-3.51.94c-2.12-1.1-3.17-4.54-3.17-4.54l.38.32a35.65,35.65,0,0,0,3.19,2.36A6.11,6.11,0,0,0,727.91,1599.69Z" transform="translate(-693.87 -1241.37)" style="fill:#442309;fill-rule:evenodd"/><path d="M725.51,1607.61c1.27-.29,3.07-1.21,4.94-1a6.12,6.12,0,0,1,3.32,1.64,6.64,6.64,0,0,1-3.51.47,36.38,36.38,0,0,1-4.22-.93Z" transform="translate(-693.87 -1241.37)" style="fill:#442309;fill-rule:evenodd"/><path d="M733.77,1608.21s-.85,2.63-3.07,2.5c-2.61-.14-5.19-3.1-5.19-3.1l.53.14a36.38,36.38,0,0,0,4.22.93A6.64,6.64,0,0,0,733.77,1608.21Z" transform="translate(-693.87 -1241.37)" style="fill:#442309;fill-rule:evenodd"/><path d="M735,1600.12c-.49,1-1.61,2.31-1.84,3.9a5.22,5.22,0,0,0,.71,3.09,5.79,5.79,0,0,0,1.08-2.83,30.84,30.84,0,0,0,.07-3.7Z" transform="translate(-693.87 -1241.37)" style="fill:#442309;fill-rule:evenodd"/><path d="M733.89,1607.11s2.35-.19,2.69-2.06c.39-2.2-1.56-4.93-1.56-4.93l0,.46a30.84,30.84,0,0,1-.07,3.7A5.79,5.79,0,0,1,733.89,1607.11Z" transform="translate(-693.87 -1241.37)" style="fill:#442309;fill-rule:evenodd"/><path d="M740.27,1611.77a4.46,4.46,0,0,1-3.19-4.57c0-2.19,1.52-3.83,2.18-5.12l.67,5.06c.19,1.41.49,4.67.49,4.67Z" transform="translate(-693.87 -1241.37)" style="fill:#442309;fill-rule:evenodd"/><path d="M739.67,1602.44a7.89,7.89,0,0,1,2.51,4,6.54,6.54,0,0,1-1.67,5.33l-.09.09s-.3-3.26-.49-4.67-.67-5.06-.67-5.06Z" transform="translate(-693.87 -1241.37)" style="fill:#442309;fill-rule:evenodd"/><path d="M726.78,1580.63a3.24,3.24,0,0,1,1.93-3.59,8.79,8.79,0,0,1,4.1-.75l-3.1,2.36c-.86.66-2.91,2.09-2.91,2.09Z" transform="translate(-693.87 -1241.37)" style="fill:#442309;fill-rule:evenodd"/><path d="M732.72,1576.7a6,6,0,0,1-1.66,3.16,5,5,0,0,1-4.16.9l-.1,0s2.05-1.43,2.91-2.09l3.1-2.36Z" transform="translate(-693.87 -1241.37)" style="fill:#442309;fill-rule:evenodd"/><path d="M725.21,1589.7a4,4,0,0,1-4.88-.75c-1.38-1.36-1.51-3.32-1.94-4.52l3.65,2.66c1,.74,3.29,2.54,3.29,2.54Z" transform="translate(-693.87 -1241.37)" style="fill:#442309;fill-rule:evenodd"/><path d="M718.87,1584.38a7,7,0,0,1,4.06.81,5.75,5.75,0,0,1,2.39,4.32v.12s-2.27-1.8-3.29-2.54l-3.65-2.66Z" transform="translate(-693.87 -1241.37)" style="fill:#442309;fill-rule:evenodd"/><path d="M729.06,1569.57a3,3,0,0,1-2.89-2.35c-.38-1.41.28-2.74.46-3.69l1.36,3.13c.38.87,1.17,2.91,1.17,2.91Z" transform="translate(-693.87 -1241.37)" style="fill:#442309;fill-rule:evenodd"/><path d="M727,1563.69a5.26,5.26,0,0,1,2.34,2.08,4.37,4.37,0,0,1-.1,3.72l0,.08s-.79-2-1.17-2.91l-1.36-3.13Z" transform="translate(-693.87 -1241.37)" style="fill:#442309;fill-rule:evenodd"/><path d="M726.34,1586.51a4.14,4.14,0,0,1,.91-4c1.07-1.25,2.66-1.39,3.69-1.73l-2.32,3c-.65.85-2.22,2.74-2.22,2.74Z" transform="translate(-693.87 -1241.37)" style="fill:#442309;fill-rule:evenodd"/><path d="M731,1581.23a5.92,5.92,0,0,1-.76,3.43,4.88,4.88,0,0,1-3.71,1.94h-.1s1.57-1.89,2.22-2.74l2.32-3Z" transform="translate(-693.87 -1241.37)" style="fill:#442309;fill-rule:evenodd"/><path d="M728.56,1614.67a9.38,9.38,0,0,1,4.28-3.19,8.7,8.7,0,0,1,6.67,1.35l.15.1s-2.25.13-4.69.48c-1.22.17-2.82.49-4.12.76Z" transform="translate(-693.87 -1241.37)" style="fill:#442309;fill-rule:evenodd"/><path d="M739.34,1613.44c-.63.92-2.15,2.8-4.18,3-2.71.31-6.6-1.8-6.6-1.8l2.29-.5c1.3-.27,2.9-.59,4.12-.76,2.44-.35,4.69-.48,4.69-.48Z" transform="translate(-693.87 -1241.37)" style="fill:#442309;fill-rule:evenodd"/><path d="M737.81,1565.94a5.26,5.26,0,0,0-2.71-1.26,4.92,4.92,0,0,0-3.51,1.51l-.07.07s1.25-.18,2.63-.27c.69,0,1.6-.06,2.35-.06Z" transform="translate(-693.87 -1241.37)" style="fill:#442309;fill-rule:evenodd"/><path d="M731.76,1566.51a3.69,3.69,0,0,0,2.64,1.18,8.06,8.06,0,0,0,3.41-1.75H736.5c-.75,0-1.66,0-2.35.06-1.38.09-2.63.27-2.63.27Z" transform="translate(-693.87 -1241.37)" style="fill:#442309;fill-rule:evenodd"/><path d="M717.08,1591.39a7.85,7.85,0,0,1,4.34-.86,7.23,7.23,0,0,1,4.51,3.4l.08.13s-1.73-.7-3.68-1.32c-1-.31-2.29-.65-3.35-.91Z" transform="translate(-693.87 -1241.37)" style="fill:#442309;fill-rule:evenodd"/><path d="M725.58,1594.32a5.47,5.47,0,0,1-4.21.78c-2.13-.74-4.29-3.71-4.29-3.71l1.9.44c1.06.26,2.37.6,3.35.91,1.95.62,3.68,1.32,3.68,1.32Z" transform="translate(-693.87 -1241.37)" style="fill:#442309;fill-rule:evenodd"/><path d="M735,1572.47a6.41,6.41,0,0,0-3.56-.62,5.9,5.9,0,0,0-3.63,2.85l-.06.11s1.4-.61,3-1.14c.79-.27,1.85-.57,2.72-.8Z" transform="translate(-693.87 -1241.37)" style="fill:#442309;fill-rule:evenodd"/><path d="M728.09,1575a4.49,4.49,0,0,0,3.46.56c1.73-.64,3.44-3.11,3.44-3.11l-1.54.4c-.87.23-1.93.53-2.72.8-1.59.53-3,1.14-3,1.14Z" transform="translate(-693.87 -1241.37)" style="fill:#442309;fill-rule:evenodd"/><path d="M731,1585.45a7.11,7.11,0,0,0-3.4,2.21,6.56,6.56,0,0,0-.8,5.1l0,.14s.69-1.57,1.58-3.22c.45-.82,1.09-1.88,1.63-2.73Z" transform="translate(-693.87 -1241.37)" style="fill:#442309;fill-rule:evenodd"/><path d="M727.25,1592.8a5,5,0,0,0,3.26-2.17c.94-1.85.46-5.18.46-5.18l-1,1.5c-.54.85-1.18,1.91-1.63,2.73-.89,1.65-1.58,3.22-1.58,3.22Z" transform="translate(-693.87 -1241.37)" style="fill:#442309;fill-rule:evenodd"/><path d="M721.37,1572.48a7.11,7.11,0,0,1,3.48,2.09,6.6,6.6,0,0,1,1,5.07l0,.14s-.74-1.54-1.69-3.16c-.47-.81-1.16-1.84-1.73-2.67Z" transform="translate(-693.87 -1241.37)" style="fill:#442309;fill-rule:evenodd"/><path d="M725.35,1579.7a5.05,5.05,0,0,1-3.34-2.06c-1-1.82-.64-5.16-.64-5.16l1,1.47c.57.83,1.26,1.86,1.73,2.67.95,1.62,1.69,3.16,1.69,3.16Z" transform="translate(-693.87 -1241.37)" style="fill:#442309;fill-rule:evenodd"/><path d="M733.71,1594a8,8,0,0,0-3.26,3.16,7.43,7.43,0,0,0,.23,5.77l.07.14s.41-1.87,1-3.87c.31-1,.79-2.3,1.2-3.35Z" transform="translate(-693.87 -1241.37)" style="fill:#442309;fill-rule:evenodd"/><path d="M731.22,1602.82c.86-.4,2.64-1.42,3.1-3.09.63-2.23-.61-5.78-.61-5.78l-.73,1.85c-.41,1-.89,2.35-1.2,3.35-.62,2-1,3.87-1,3.87Z" transform="translate(-693.87 -1241.37)" style="fill:#442309;fill-rule:evenodd"/><path d="M789.64,1573.42a42.2,42.2,0,0,1,1.5,10.59,36.93,36.93,0,0,1-1.33,10.57,31.37,31.37,0,0,1-11.56,17.22c-5,3.58-11.55,5.74-20,5.44a.45.45,0,0,0-.47.43.46.46,0,0,0,.44.47c8.63.24,15.35-2.05,20.42-5.76a32,32,0,0,0,11.65-17.66,37.8,37.8,0,0,0,1.26-10.72,42.5,42.5,0,0,0-1.62-10.67.17.17,0,0,0-.21-.12A.16.16,0,0,0,789.64,1573.42Z" transform="translate(-693.87 -1241.37)" style="fill:#442309;fill-rule:evenodd"/><path d="M765.54,1607.46c-.36.2-3.5,1.93-4.42,3.84a5.17,5.17,0,0,0,.78,5.83,40.46,40.46,0,0,1,1.45-4.61C763.94,1611.12,764.94,1608.81,765.54,1607.46Z" transform="translate(-693.87 -1241.37)" style="fill:#442309;fill-rule:evenodd"/><path d="M765.54,1607.46c-.6,1.35-1.6,3.66-2.19,5.06a40.46,40.46,0,0,0-1.45,4.61h0s3.6-1.78,4.11-4.48a11.11,11.11,0,0,0-.45-5.2Z" transform="translate(-693.87 -1241.37)" style="fill:#442309;fill-rule:evenodd"/><path d="M787.21,1568.5a6.4,6.4,0,0,1,2.62,1.77,2.77,2.77,0,0,1,0,3.16,21.51,21.51,0,0,0-1.08-2.37C788.31,1570.35,787.62,1569.19,787.21,1568.5Z" transform="translate(-693.87 -1241.37)" style="fill:#442309;fill-rule:evenodd"/><path d="M787.21,1568.5c.41.69,1.1,1.85,1.5,2.56a21.51,21.51,0,0,1,1.08,2.37h0s-2-.71-2.49-2.12a5.91,5.91,0,0,1-.1-2.81Z" transform="translate(-693.87 -1241.37)" style="fill:#442309;fill-rule:evenodd"/><path d="M797.19,1578.74c0,.31-.16,3.07-1.17,4.35a4,4,0,0,1-4.31,1.41,28.24,28.24,0,0,0,2.71-2.55C795.2,1581.08,796.46,1579.6,797.19,1578.74Z" transform="translate(-693.87 -1241.37)" style="fill:#442309;fill-rule:evenodd"/><path d="M797.19,1578.74c-.73.86-2,2.34-2.77,3.21a28.24,28.24,0,0,1-2.71,2.55h0s0-3.09,1.73-4.35a8.52,8.52,0,0,1,3.75-1.44Z" transform="translate(-693.87 -1241.37)" style="fill:#442309;fill-rule:evenodd"/><path d="M797.89,1590.65c-.12.32-1.19,3.11-2.66,4.1a4.31,4.31,0,0,1-4.91,0A32.54,32.54,0,0,0,794,1593C795.05,1592.4,796.84,1591.3,797.89,1590.65Z" transform="translate(-693.87 -1241.37)" style="fill:#442309;fill-rule:evenodd"/><path d="M797.89,1590.65c-1,.65-2.84,1.75-3.93,2.39a32.54,32.54,0,0,1-3.64,1.73h0s1-3.19,3.23-3.92a9.28,9.28,0,0,1,4.35-.23Z" transform="translate(-693.87 -1241.37)" style="fill:#442309;fill-rule:evenodd"/><path d="M783.31,1599.69c-.19.21-1.84,2.06-2,3.52a3.54,3.54,0,0,0,1.85,3.62,27,27,0,0,1-.11-3.34C783.1,1602.45,783.23,1600.71,783.31,1599.69Z" transform="translate(-693.87 -1241.37)" style="fill:#442309;fill-rule:evenodd"/><path d="M783.31,1599.69c-.08,1-.21,2.76-.26,3.8a27,27,0,0,0,.11,3.34h0s2-2,1.65-3.86a7.68,7.68,0,0,0-1.48-3.3Z" transform="translate(-693.87 -1241.37)" style="fill:#442309;fill-rule:evenodd"/><path d="M785.18,1576.58a7.44,7.44,0,0,0,1.9,3.12,3.22,3.22,0,0,0,3.67.13,25.64,25.64,0,0,1-2.69-1.38C787.26,1578,786,1577.09,785.18,1576.58Z" transform="translate(-693.87 -1241.37)" style="fill:#442309;fill-rule:evenodd"/><path d="M785.18,1576.58c.77.51,2.08,1.37,2.88,1.87a25.64,25.64,0,0,0,2.69,1.38h0s-.72-2.4-2.33-3a6.93,6.93,0,0,0-3.25-.27Z" transform="translate(-693.87 -1241.37)" style="fill:#442309;fill-rule:evenodd"/><path d="M789.58,1613.26c-.32.2-3.17,1.92-5.28,1.82a5.49,5.49,0,0,1-4.92-3.11,46.22,46.22,0,0,0,4.75.84C785.63,1613,788.12,1613.15,789.58,1613.26Z" transform="translate(-693.87 -1241.37)" style="fill:#442309;fill-rule:evenodd"/><path d="M789.58,1613.26c-1.46-.11-4-.31-5.45-.45a46.22,46.22,0,0,1-4.75-.84h0s3.09-2.07,5.72-1.31a12.41,12.41,0,0,1,4.51,2.58Z" transform="translate(-693.87 -1241.37)" style="fill:#442309;fill-rule:evenodd"/><path d="M794.19,1570.59a6.74,6.74,0,0,1-.53,3.24,3.22,3.22,0,0,1-3,1.68,26.94,26.94,0,0,0,1.76-2.22C792.93,1572.55,793.73,1571.32,794.19,1570.59Z" transform="translate(-693.87 -1241.37)" style="fill:#442309;fill-rule:evenodd"/><path d="M794.19,1570.59c-.46.73-1.26,2-1.75,2.7a26.94,26.94,0,0,1-1.76,2.22h0a4.79,4.79,0,0,1,.92-3.33,7.28,7.28,0,0,1,2.59-1.61Z" transform="translate(-693.87 -1241.37)" style="fill:#442309;fill-rule:evenodd"/><path d="M769.93,1623.94c-.95-1.24-1.89-3.45-3.72-4.72a7.31,7.31,0,0,0-4.29-1,7.94,7.94,0,0,0,2.85,3.1,43.56,43.56,0,0,0,4.57,2.38Z" transform="translate(-693.87 -1241.37)" style="fill:#442309;fill-rule:evenodd"/><path d="M761.92,1618.19s-1.22,3,.9,4.63c2.49,1.85,7.11,1.12,7.11,1.12l-.59-.27a43.56,43.56,0,0,1-4.57-2.38A7.94,7.94,0,0,1,761.92,1618.19Z" transform="translate(-693.87 -1241.37)" style="fill:#442309;fill-rule:evenodd"/><path d="M790.58,1607.13c-1.19-.14-2.92-.81-4.6-.48a5.65,5.65,0,0,0-2.87,1.82,6,6,0,0,0,3.24.09,33.81,33.81,0,0,0,3.76-1.25Z" transform="translate(-693.87 -1241.37)" style="fill:#442309;fill-rule:evenodd"/><path d="M783.11,1608.47s1,2.31,3,2c2.36-.39,4.43-3.33,4.43-3.33l-.47.18a33.81,33.81,0,0,1-3.76,1.25A6,6,0,0,1,783.11,1608.47Z" transform="translate(-693.87 -1241.37)" style="fill:#442309;fill-rule:evenodd"/><path d="M782.94,1616.75c-1.13-.67-2.55-2.11-4.38-2.53a6.15,6.15,0,0,0-3.67.54,6.79,6.79,0,0,0,3.19,1.53,37,37,0,0,0,4.31.43Z" transform="translate(-693.87 -1241.37)" style="fill:#442309;fill-rule:evenodd"/><path d="M774.89,1614.76s0,2.76,2.15,3.33c2.52.67,5.9-1.34,5.9-1.34l-.55,0a37,37,0,0,1-4.31-.43A6.79,6.79,0,0,1,774.89,1614.76Z" transform="translate(-693.87 -1241.37)" style="fill:#442309;fill-rule:evenodd"/><path d="M776.21,1606.67c.16,1.11.82,2.71.55,4.28a5.25,5.25,0,0,1-1.64,2.72,5.67,5.67,0,0,1-.15-3,30.66,30.66,0,0,1,1.08-3.54Z" transform="translate(-693.87 -1241.37)" style="fill:#442309;fill-rule:evenodd"/><path d="M775.12,1613.67s-2.17-.91-1.91-2.8c.3-2.2,3-4.2,3-4.2l-.16.44a30.66,30.66,0,0,0-1.08,3.54A5.67,5.67,0,0,0,775.12,1613.67Z" transform="translate(-693.87 -1241.37)" style="fill:#442309;fill-rule:evenodd"/><path d="M767.61,1616.12a4.46,4.46,0,0,0,4.45-3.36c.65-2.09-.26-4.11-.48-5.54l-2.21,4.6c-.62,1.29-1.92,4.3-1.92,4.3Z" transform="translate(-693.87 -1241.37)" style="fill:#442309;fill-rule:evenodd"/><path d="M771.08,1607.43a8,8,0,0,0-3.62,3,6.57,6.57,0,0,0-.07,5.58l.06.13s1.3-3,1.92-4.3,2.21-4.6,2.21-4.6Z" transform="translate(-693.87 -1241.37)" style="fill:#442309;fill-rule:evenodd"/><path d="M790.11,1590.7a3.27,3.27,0,0,0-.73-4,8.8,8.8,0,0,0-3.66-2l2.21,3.21c.61.89,2.11,2.88,2.11,2.88Z" transform="translate(-693.87 -1241.37)" style="fill:#442309;fill-rule:evenodd"/><path d="M785.67,1585.13a6,6,0,0,0,.6,3.51,5,5,0,0,0,3.67,2.16h.1s-1.5-2-2.11-2.88l-2.21-3.21Z" transform="translate(-693.87 -1241.37)" style="fill:#442309;fill-rule:evenodd"/><path d="M788.77,1599.82a4,4,0,0,0,4.88.8c1.73-.86,2.47-2.68,3.25-3.7l-4.3,1.4c-1.2.38-3.91,1.39-3.91,1.39Z" transform="translate(-693.87 -1241.37)" style="fill:#442309;fill-rule:evenodd"/><path d="M796.45,1596.73a6.94,6.94,0,0,0-4.11-.49,5.75,5.75,0,0,0-3.61,3.36l0,.11s2.71-1,3.91-1.39l4.3-1.4Z" transform="translate(-693.87 -1241.37)" style="fill:#442309;fill-rule:evenodd"/><path d="M791.37,1579.49a3,3,0,0,0,3.48-1.34c.8-1.22.58-2.69.7-3.65l-2.27,2.55c-.63.71-2,2.41-2,2.41Z" transform="translate(-693.87 -1241.37)" style="fill:#442309;fill-rule:evenodd"/><path d="M795.19,1574.55a5.16,5.16,0,0,0-2.87,1.25,4.33,4.33,0,0,0-1.06,3.57v.09s1.38-1.7,2-2.41l2.27-2.55Z" transform="translate(-693.87 -1241.37)" style="fill:#442309;fill-rule:evenodd"/><path d="M788.69,1596.43a4.13,4.13,0,0,0,.37-4c-.63-1.52-2.1-2.15-3-2.79l1.26,3.62c.35,1,1.26,3.28,1.26,3.28Z" transform="translate(-693.87 -1241.37)" style="fill:#442309;fill-rule:evenodd"/><path d="M785.94,1590a5.82,5.82,0,0,0-.35,3.49,4.9,4.9,0,0,0,2.92,3l.1,0s-.91-2.28-1.26-3.28l-1.26-3.62Z" transform="translate(-693.87 -1241.37)" style="fill:#442309;fill-rule:evenodd"/><path d="M777.84,1622.51a9.38,9.38,0,0,0-3.08-4.36c-2.69-1.76-6-1-6.76-.79l-.17.05s2.1.83,4.31,1.91c1.11.55,2.53,1.34,3.68,2Z" transform="translate(-693.87 -1241.37)" style="fill:#442309;fill-rule:evenodd"/><path d="M768,1618c.31,1.07,1.17,3.33,3,4.18,2.48,1.13,6.83.33,6.83.33l-2-1.19c-1.15-.66-2.57-1.45-3.68-2-2.21-1.08-4.31-1.91-4.31-1.91Z" transform="translate(-693.87 -1241.37)" style="fill:#442309;fill-rule:evenodd"/><path d="M784.18,1573.32a5.27,5.27,0,0,1,3-.35,4.87,4.87,0,0,1,2.86,2.52l0,.09s-1.13-.56-2.41-1.08c-.64-.26-1.51-.55-2.21-.78Z" transform="translate(-693.87 -1241.37)" style="fill:#442309;fill-rule:evenodd"/><path d="M789.76,1575.74a3.71,3.71,0,0,1-2.88.3,8,8,0,0,1-2.7-2.72l1.25.4c.7.23,1.57.52,2.21.78,1.28.52,2.41,1.08,2.41,1.08Z" transform="translate(-693.87 -1241.37)" style="fill:#442309;fill-rule:evenodd"/><path d="M796,1604a7.8,7.8,0,0,0-3.86-2.17,7.25,7.25,0,0,0-5.34,1.83l-.11.1s1.86-.13,3.9-.11c1,0,2.38.1,3.47.18Z" transform="translate(-693.87 -1241.37)" style="fill:#442309;fill-rule:evenodd"/><path d="M787,1604.1a5.45,5.45,0,0,0,3.76,2c2.26,0,5.23-2.19,5.23-2.19l-1.94-.17c-1.09-.08-2.44-.17-3.47-.18-2,0-3.9.11-3.9.11Z" transform="translate(-693.87 -1241.37)" style="fill:#442309;fill-rule:evenodd"/><path d="M784.83,1580.41a6.29,6.29,0,0,1,3.58.51,5.93,5.93,0,0,1,2.56,3.84l0,.11s-1.14-1-2.48-2c-.67-.5-1.59-1.11-2.34-1.6Z" transform="translate(-693.87 -1241.37)" style="fill:#442309;fill-rule:evenodd"/><path d="M790.59,1585a4.48,4.48,0,0,1-3.45-.54c-1.45-1.15-2.31-4-2.31-4l1.34.85c.75.49,1.67,1.1,2.34,1.6,1.34,1,2.48,2,2.48,2Z" transform="translate(-693.87 -1241.37)" style="fill:#442309;fill-rule:evenodd"/><path d="M784.62,1594a7.12,7.12,0,0,1,2.55,3.15,6.66,6.66,0,0,1-.82,5.11l-.08.11s-.17-1.7-.5-3.54c-.17-.93-.46-2.13-.7-3.11Z" transform="translate(-693.87 -1241.37)" style="fill:#442309;fill-rule:evenodd"/><path d="M785.88,1602.13a5,5,0,0,1-2.43-3.08c-.32-2,1.17-5.06,1.17-5.06l.45,1.72c.24,1,.53,2.18.7,3.11.33,1.84.5,3.54.5,3.54Z" transform="translate(-693.87 -1241.37)" style="fill:#442309;fill-rule:evenodd"/><path d="M797.77,1584.64a7.1,7.1,0,0,0-3.95.9,6.6,6.6,0,0,0-2.51,4.52l0,.14s1.19-1.23,2.59-2.48c.71-.62,1.68-1.39,2.47-2Z" transform="translate(-693.87 -1241.37)" style="fill:#442309;fill-rule:evenodd"/><path d="M791.75,1590.26a5,5,0,0,0,3.81-.91c1.51-1.42,2.21-4.71,2.21-4.71l-1.42,1.08c-.79.61-1.76,1.38-2.47,2-1.4,1.25-2.59,2.48-2.59,2.48Z" transform="translate(-693.87 -1241.37)" style="fill:#442309;fill-rule:evenodd"/><path d="M779.38,1601.22a8,8,0,0,1,2.11,4,7.37,7.37,0,0,1-2,5.42l-.1.11s.18-1.9.21-4c0-1,0-2.43-.09-3.55Z" transform="translate(-693.87 -1241.37)" style="fill:#442309;fill-rule:evenodd"/><path d="M779,1610.42c-.69-.65-2.06-2.16-2-3.9.1-2.31,2.38-5.3,2.38-5.3l.12,2c.06,1.12.11,2.51.09,3.55,0,2.1-.21,4-.21,4Z" transform="translate(-693.87 -1241.37)" style="fill:#442309;fill-rule:evenodd"/><path d="M759.37,1562.66a1.09,1.09,0,0,1,1.15-.58,1.08,1.08,0,0,1,.91.91l2.32,14.67a1.1,1.1,0,0,0,.91.92l14.67,2.33a1.1,1.1,0,0,1,.32,2.06l-13.24,6.74a1.08,1.08,0,0,0-.58,1.14c.39,2.48,1.6,10.19,2.31,14.68a1.09,1.09,0,0,1-1.86.94L755.78,1596a1.09,1.09,0,0,0-1.27-.2l-13.24,6.73a1.08,1.08,0,0,1-1.27-.2,1.1,1.1,0,0,1-.21-1.27l6.76-13.23a1.12,1.12,0,0,0-.2-1.28L735.85,1576a1.1,1.1,0,0,1,.95-1.86l14.67,2.34a1.1,1.1,0,0,0,1.15-.59C753.76,1573.66,757.31,1566.71,759.37,1562.66Z" transform="translate(-693.87 -1241.37)" style="fill:#442309;fill-rule:evenodd"/><path d="M759.37,1562.66a1.09,1.09,0,0,1,1.15-.58,1.08,1.08,0,0,1,.91.91l2.32,14.67a1.1,1.1,0,0,0,.91.92l14.67,2.33a1.1,1.1,0,0,1,.32,2.06l-13.24,6.74a1.08,1.08,0,0,0-.58,1.14c.39,2.48,1.6,10.19,2.31,14.68a1.09,1.09,0,0,1-1.86.94L755.78,1596a1.09,1.09,0,0,0-1.27-.2l-13.24,6.73a1.08,1.08,0,0,1-1.27-.2,1.1,1.1,0,0,1-.21-1.27l6.76-13.23a1.12,1.12,0,0,0-.2-1.28L735.85,1576a1.1,1.1,0,0,1,.95-1.86l14.67,2.34a1.1,1.1,0,0,0,1.15-.59C753.76,1573.66,757.31,1566.71,759.37,1562.66Z" transform="translate(-693.87 -1241.37)" style="fill:#442309;fill-rule:evenodd"/><path d="M740.45,1603.11a1.62,1.62,0,0,1-1.12-2.33l6.75-13.23a.59.59,0,0,0-.1-.67l-10.5-10.51a1.62,1.62,0,0,1,1.4-2.75l14.67,2.34a.56.56,0,0,0,.6-.31l6.76-13.23a1.62,1.62,0,0,1,3,.49l2.32,14.67a.55.55,0,0,0,.47.48l14.67,2.33a1.62,1.62,0,0,1,.48,3l-13.24,6.73a.6.6,0,0,0-.31.6l2.32,14.68a1.6,1.6,0,0,1-.87,1.69,1.62,1.62,0,0,1-1.88-.29l-10.5-10.52a.58.58,0,0,0-.66-.1L741.51,1603A1.64,1.64,0,0,1,740.45,1603.11Zm20-40.51h0a.56.56,0,0,0-.6.3h0l-6.75,13.23a1.62,1.62,0,0,1-1.7.87l-14.67-2.34a.57.57,0,0,0-.6.31.58.58,0,0,0,.1.66l10.5,10.51a1.61,1.61,0,0,1,.3,1.88l-6.76,13.24a.58.58,0,0,0,.77.77l13.24-6.74a1.61,1.61,0,0,1,1.88.3l10.5,10.51a.57.57,0,0,0,1-.49l-2.31-14.67a1.61,1.61,0,0,1,.86-1.7l13.24-6.74a.55.55,0,0,0,.31-.59.57.57,0,0,0-.48-.48l-14.66-2.33a1.62,1.62,0,0,1-1.35-1.35l-2.31-14.68A.59.59,0,0,0,760.46,1562.6Zm-1.09.06h0Z" transform="translate(-693.87 -1241.37)" style="fill:#442309"/><polygon points="39.99 7.91 183.85 26.7 207.11 68.16 6.14 44.42 39.99 7.91" style="fill:#442309;fill-rule:evenodd"/><g style="clip-path:url(#clip-path)"><path d="M719.6,1256.82l169.81,20.78,10.21,21.4-193.2-24.91Z" transform="translate(-693.87 -1241.37)" style="fill:#442309;fill-rule:evenodd"/></g><path d="M699.67,1287.51a1.75,1.75,0,0,1-.94-2.9l33.85-36.52a1.75,1.75,0,0,1,1.51-.54L878,1266.34a1.79,1.79,0,0,1,1.3.88l23.25,41.46a1.75,1.75,0,0,1-1.73,2.59l-201-23.74Zm34.86-36.38-30.9,33.33,194.14,22.93-21.14-37.69Z" transform="translate(-693.87 -1241.37)" style="fill:#442309"/><polygon points="80.8 276.95 39.99 7.91 6.15 44.42 44.59 271.95 80.8 276.95" style="fill:#442309;fill-rule:evenodd"/><g style="clip-path:url(#clip-path-2)"><path d="M706.82,1267.49l40.71,247.08,18.67,3.17-44.43-267.83Z" transform="translate(-693.87 -1241.37)" style="fill:#442309;fill-rule:evenodd"/></g><path d="M738.12,1515a1.73,1.73,0,0,1-1.38-1.42l-38.45-227.53a1.75,1.75,0,0,1,.44-1.47l33.85-36.52a1.75,1.75,0,0,1,3,.93l40.81,269a1.75,1.75,0,0,1-2,2l-36.21-5Zm-36.24-228.68L740,1511.77l32.62,4.51-39.91-263.16Z" transform="translate(-693.87 -1241.37)" style="fill:#442309"/><polygon points="63.43 274.95 102.74 281.21 207.11 68.16 183.85 26.7 63.43 274.95" style="fill:#442309;fill-rule:evenodd"/><g style="clip-path:url(#clip-path-3)"><path d="M768.05,1522.24l120.08-247.59,12.47,16.66-117,234.61Z" transform="translate(-693.87 -1241.37)" style="fill:#442309;fill-rule:evenodd"/></g><path d="M757,1518a1.74,1.74,0,0,1-1.22-2.47l120.42-248.24a1.75,1.75,0,0,1,3.1-.1l23.25,41.46a1.72,1.72,0,0,1,0,1.62l-104.36,213a1.74,1.74,0,0,1-1.84,1L757,1518Zm120.89-246.18L759.9,1515l35.71,5.69L899,1309.59Z" transform="translate(-693.87 -1241.37)" style="fill:#442309"/></g><path d="M802.64,1522.81a11.53,11.53,0,0,0-9.57-13.2l-58.66-9.33a11.53,11.53,0,0,0-13.2,9.57h0a11.54,11.54,0,0,0,9.58,13.2l58.65,9.33a11.53,11.53,0,0,0,13.2-9.57Zm-6.77-1.08a4.67,4.67,0,0,0-3.88-5.35l-58.66-9.33a4.67,4.67,0,0,0-5.35,3.88h0a4.69,4.69,0,0,0,3.88,5.36l58.66,9.33a4.67,4.67,0,0,0,5.35-3.88Z" transform="translate(-693.87 -1241.37)" style="fill:#eca400;fill-rule:evenodd"/><path d="M730.2,1523.57a12.15,12.15,0,0,1,4.31-23.9l58.65,9.34a12.15,12.15,0,0,1,10.09,13.9v0h0a12.16,12.16,0,0,1-13.9,10.06l-58.65-9.34C730.53,1523.63,730.36,1523.61,730.2,1523.57ZM721.82,1510v0a10.92,10.92,0,0,0,9.07,12.47l58.66,9.34a10.94,10.94,0,0,0,12.5-9.07h0a10.93,10.93,0,0,0-9.07-12.5l-58.65-9.34a10.92,10.92,0,0,0-12.5,9.07Zm9.73,6.9a5.29,5.29,0,0,1,1.88-10.41l58.65,9.34a5.29,5.29,0,0,1,4.4,6v0h0a5.3,5.3,0,0,1-6.05,4.37l-58.65-9.34Zm-3-5.82v0a4.06,4.06,0,0,0,3.38,4.63l58.65,9.34a4.08,4.08,0,0,0,4.66-3.38h0a4.06,4.06,0,0,0-3.38-4.65l-58.65-9.34a4.07,4.07,0,0,0-4.65,3.38Z" transform="translate(-693.87 -1241.37)" style="fill:#312a3c"/><circle cx="752.08" cy="1581.33" r="51.68" transform="translate(-1591.76 -246.41) rotate(-45)" style="fill:#fbcb22"/><path d="M791.66,1524.54a3.44,3.44,0,0,0-2.85-3.93l-52.8-8.4a3.43,3.43,0,0,0-3.92,2.85c-1.11,7-3.54,22.21-3.54,22.21l59.57,9.48Z" transform="translate(-693.87 -1241.37)" style="fill:#fbcb22;fill-rule:evenodd"/><path d="M759.22,1536.48a45.41,45.41,0,1,1-52,37.71A45.44,45.44,0,0,1,759.22,1536.48Zm-.38,2.38a43,43,0,1,1-49.23,35.71A43,43,0,0,1,758.84,1538.86Z" transform="translate(-693.87 -1241.37)" style="fill:#fde282;fill-rule:evenodd"/><path d="M759.35,1535.66a46.25,46.25,0,1,0,38.4,52.94A46.27,46.27,0,0,0,759.35,1535.66Zm-.13.82a45.41,45.41,0,1,1-52,37.71A45.44,45.44,0,0,1,759.22,1536.48Zm-.38,2.38a43,43,0,1,1-49.23,35.71A43,43,0,0,1,758.84,1538.86Zm-.13.81a42.18,42.18,0,1,1-48.29,35A42.21,42.21,0,0,1,758.71,1539.67Z" transform="translate(-693.87 -1241.37)" style="fill:#3e364c;fill-rule:evenodd"/><path d="M741.53,1633.71A53.43,53.43,0,0,1,727.31,1534l2.91-18.29a6.12,6.12,0,0,1,7-5.08l50.94,8.11a6.11,6.11,0,0,1,5.07,7L790.32,1544a53.61,53.61,0,0,1,14.52,45.7,53.45,53.45,0,0,1-61.16,44.36C743,1634,742.24,1633.85,741.53,1633.71Zm46.18-111.5-.1,0-50.94-8.11a2.63,2.63,0,0,0-3,2.18l-3,19.17a1.75,1.75,0,0,1-.94,1.28,49.93,49.93,0,0,0,12.54,93.57c.67.14,1.33.26,2,.36a50,50,0,0,0,57.16-41.46,50.11,50.11,0,0,0-14.16-43.31,1.73,1.73,0,0,1-.5-1.51l3-19.17a2.61,2.61,0,0,0-2.07-3Z" transform="translate(-693.87 -1241.37)" style="fill:#312a3c"/><path d="M727.91,1558a42.81,42.81,0,0,0-4.85,9.64,37.58,37.58,0,0,0-2.13,10.59,32,32,0,0,0,5.59,20.4c3.67,5.1,9.34,9.36,17.62,11.81a.45.45,0,1,0,.26-.86c-8.11-2.32-13.68-6.42-17.3-11.37a31.34,31.34,0,0,1-5.64-20,36.81,36.81,0,0,1,2-10.47,42.51,42.51,0,0,1,4.72-9.6.17.17,0,0,0-.05-.23A.17.17,0,0,0,727.91,1558Z" transform="translate(-693.87 -1241.37)" style="fill:#eca400;stroke:#000;stroke-miterlimit:10;stroke-width:0.5px;fill-rule:evenodd"/><path d="M740.53,1598c.28.29,2.73,2.91,3,5a5.16,5.16,0,0,1-2.56,5.29,38.2,38.2,0,0,0,0-4.83C740.92,1602,740.67,1599.49,740.53,1598Z" transform="translate(-693.87 -1241.37)" style="fill:#eca400;stroke:#000;stroke-miterlimit:10;stroke-width:0.5px;fill-rule:evenodd"/><path d="M740.53,1598c.14,1.46.39,4,.5,5.48a38.2,38.2,0,0,1,0,4.83h0s-2.88-2.81-2.52-5.53a11.13,11.13,0,0,1,2-4.81Z" transform="translate(-693.87 -1241.37)" style="fill:#fde282;stroke:#000;stroke-miterlimit:10;stroke-width:0.5px;fill-rule:evenodd"/><path d="M732,1554.26a6.42,6.42,0,0,0-3,.86,2.78,2.78,0,0,0-1,3,19.87,19.87,0,0,1,1.76-1.92C730.4,1555.68,731.42,1554.78,732,1554.26Z" transform="translate(-693.87 -1241.37)" style="fill:#fde282;stroke:#000;stroke-miterlimit:10;stroke-width:0.5px;fill-rule:evenodd"/><path d="M732,1554.26c-.6.52-1.62,1.42-2.22,2a19.87,19.87,0,0,0-1.76,1.92h0s2.17-.05,3-1.25a6,6,0,0,0,1-2.64Z" transform="translate(-693.87 -1241.37)" style="fill:#eca400;stroke:#000;stroke-miterlimit:10;stroke-width:0.5px;fill-rule:evenodd"/><path d="M719.36,1560.89c-.09.3-.81,3-.24,4.5a4,4,0,0,0,3.65,2.68,31.07,31.07,0,0,1-1.78-3.26C720.53,1563.73,719.79,1561.94,719.36,1560.89Z" transform="translate(-693.87 -1241.37)" style="fill:#eca400;stroke:#000;stroke-miterlimit:10;stroke-width:0.5px;fill-rule:evenodd"/><path d="M719.36,1560.89c.43,1,1.17,2.84,1.63,3.92a31.07,31.07,0,0,0,1.78,3.26h0s.94-3-.29-4.67a8.67,8.67,0,0,0-3.12-2.54Z" transform="translate(-693.87 -1241.37)" style="fill:#fde282;stroke:#000;stroke-miterlimit:10;stroke-width:0.5px;fill-rule:evenodd"/><path d="M715,1572c0,.34.17,3.33,1.26,4.72a4.28,4.28,0,0,0,4.66,1.54,33.16,33.16,0,0,1-2.92-2.77C717.15,1574.54,715.79,1572.94,715,1572Z" transform="translate(-693.87 -1241.37)" style="fill:#eca400;stroke:#000;stroke-miterlimit:10;stroke-width:0.5px;fill-rule:evenodd"/><path d="M715,1572c.8.94,2.16,2.54,3,3.49a33.16,33.16,0,0,0,2.92,2.77h0s0-3.36-1.86-4.72A9.22,9.22,0,0,0,715,1572Z" transform="translate(-693.87 -1241.37)" style="fill:#fde282;stroke:#000;stroke-miterlimit:10;stroke-width:0.5px;fill-rule:evenodd"/><path d="M726.05,1585.12c.11.26,1.11,2.53.81,4A3.59,3.59,0,0,1,724,1592a26.16,26.16,0,0,0,1.15-3.14C725.39,1587.8,725.81,1586.11,726.05,1585.12Z" transform="translate(-693.87 -1241.37)" style="fill:#eca400;stroke:#000;stroke-miterlimit:10;stroke-width:0.5px;fill-rule:evenodd"/><path d="M726.05,1585.12c-.24,1-.66,2.68-.93,3.7A26.16,26.16,0,0,1,724,1592h0s-1.23-2.5-.37-4.19a7.64,7.64,0,0,1,2.44-2.67Z" transform="translate(-693.87 -1241.37)" style="fill:#fde282;stroke:#000;stroke-miterlimit:10;stroke-width:0.5px;fill-rule:evenodd"/><path d="M731.45,1562.57a7.54,7.54,0,0,1-2.78,2.38,3.23,3.23,0,0,1-3.53-1,24.9,24.9,0,0,0,3-.47C729,1563.23,730.56,1562.82,731.45,1562.57Z" transform="translate(-693.87 -1241.37)" style="fill:#eca400;stroke:#000;stroke-miterlimit:10;stroke-width:0.5px;fill-rule:evenodd"/><path d="M731.45,1562.57c-.89.25-2.41.66-3.33.89a24.9,24.9,0,0,1-3,.47h0s1.43-2.06,3.15-2.12a7,7,0,0,1,3.17.75Z" transform="translate(-693.87 -1241.37)" style="fill:#fde282;stroke:#000;stroke-miterlimit:10;stroke-width:0.5px;fill-rule:evenodd"/><path d="M715.88,1596.07c.24.29,2.42,2.81,4.44,3.37A5.47,5.47,0,0,0,726,1598a41.37,41.37,0,0,1-4.77-.68C719.73,1597,717.3,1596.42,715.88,1596.07Z" transform="translate(-693.87 -1241.37)" style="fill:#eca400;stroke:#000;stroke-miterlimit:10;stroke-width:0.5px;fill-rule:evenodd"/><path d="M715.88,1596.07c1.42.35,3.85.94,5.32,1.26a41.37,41.37,0,0,0,4.77.68h0s-2.29-2.92-5-3a12.3,12.3,0,0,0-5.09,1.06Z" transform="translate(-693.87 -1241.37)" style="fill:#fde282;stroke:#000;stroke-miterlimit:10;stroke-width:0.5px;fill-rule:evenodd"/><path d="M724.74,1554.08a6.85,6.85,0,0,0-.51,3.25,3.25,3.25,0,0,0,2.32,2.52,26.54,26.54,0,0,1-1-2.66C725.33,1556.34,725,1554.91,724.74,1554.08Z" transform="translate(-693.87 -1241.37)" style="fill:#eca400;stroke:#000;stroke-miterlimit:10;stroke-width:0.5px;fill-rule:evenodd"/><path d="M724.74,1554.08c.21.83.59,2.26.83,3.11a26.54,26.54,0,0,0,1,2.66h0a4.81,4.81,0,0,0,.16-3.45,7.29,7.29,0,0,0-2-2.34Z" transform="translate(-693.87 -1241.37)" style="fill:#fde282;stroke:#000;stroke-miterlimit:10;stroke-width:0.5px;fill-rule:evenodd"/><path d="M731.24,1612.32c1.28-.88,2.86-2.69,5-3.33a7.25,7.25,0,0,1,4.39.36,7.93,7.93,0,0,1-3.66,2.06,42.64,42.64,0,0,1-5.08.84Z" transform="translate(-693.87 -1241.37)" style="fill:#fde282;stroke:#000;stroke-miterlimit:10;stroke-width:0.5px;fill-rule:evenodd"/><path d="M740.63,1609.35s.22,3.27-2.29,4.11c-2.94,1-7.1-1.14-7.1-1.14l.65-.07a42.64,42.64,0,0,0,5.08-.84A7.93,7.93,0,0,0,740.63,1609.35Z" transform="translate(-693.87 -1241.37)" style="fill:#eca400;stroke:#000;stroke-miterlimit:10;stroke-width:0.5px;fill-rule:evenodd"/><path d="M716.83,1589.93c1.17.24,3,.14,4.52,1a5.55,5.55,0,0,1,2.16,2.62,6.06,6.06,0,0,1-3.1-.92,32.57,32.57,0,0,1-3.19-2.36Z" transform="translate(-693.87 -1241.37)" style="fill:#fde282;stroke:#000;stroke-miterlimit:10;stroke-width:0.5px;fill-rule:evenodd"/><path d="M723.51,1593.53s-1.69,1.88-3.5.94c-2.13-1.1-3.18-4.54-3.18-4.54l.39.32a32.57,32.57,0,0,0,3.19,2.36A6.06,6.06,0,0,0,723.51,1593.53Z" transform="translate(-693.87 -1241.37)" style="fill:#eca400;stroke:#000;stroke-miterlimit:10;stroke-width:0.5px;fill-rule:evenodd"/><path d="M721.11,1601.45c1.28-.29,3.07-1.21,4.94-1a6.12,6.12,0,0,1,3.32,1.64,6.59,6.59,0,0,1-3.5.47,34.18,34.18,0,0,1-4.23-.93Z" transform="translate(-693.87 -1241.37)" style="fill:#fde282;stroke:#000;stroke-miterlimit:10;stroke-width:0.5px;fill-rule:evenodd"/><path d="M729.37,1602.05s-.85,2.63-3.07,2.5c-2.61-.14-5.19-3.1-5.19-3.1l.53.14a34.18,34.18,0,0,0,4.23.93A6.59,6.59,0,0,0,729.37,1602.05Z" transform="translate(-693.87 -1241.37)" style="fill:#eca400;stroke:#000;stroke-miterlimit:10;stroke-width:0.5px;fill-rule:evenodd"/><path d="M730.62,1594c-.49,1-1.61,2.32-1.84,3.9a5.22,5.22,0,0,0,.71,3.09,5.61,5.61,0,0,0,1.08-2.82,30.91,30.91,0,0,0,.07-3.7Z" transform="translate(-693.87 -1241.37)" style="fill:#fde282;stroke:#000;stroke-miterlimit:10;stroke-width:0.5px;fill-rule:evenodd"/><path d="M729.49,1601s2.35-.19,2.69-2.06c.39-2.2-1.56-4.93-1.56-4.93l0,.47a30.91,30.91,0,0,1-.07,3.7A5.61,5.61,0,0,1,729.49,1601Z" transform="translate(-693.87 -1241.37)" style="fill:#eca400;stroke:#000;stroke-miterlimit:10;stroke-width:0.5px;fill-rule:evenodd"/><path d="M735.87,1605.61a4.46,4.46,0,0,1-3.19-4.57c0-2.19,1.53-3.83,2.18-5.12l.68,5.06c.19,1.41.48,4.67.48,4.67Z" transform="translate(-693.87 -1241.37)" style="fill:#fde282;stroke:#000;stroke-miterlimit:10;stroke-width:0.5px;fill-rule:evenodd"/><path d="M735.27,1596.28c.74.69,2.27,2.28,2.51,4a6.57,6.57,0,0,1-1.66,5.33l-.1.09s-.29-3.26-.48-4.67l-.68-5.06Z" transform="translate(-693.87 -1241.37)" style="fill:#eca400;stroke:#000;stroke-miterlimit:10;stroke-width:0.5px;fill-rule:evenodd"/><path d="M722.38,1574.47a3.24,3.24,0,0,1,1.94-3.59,8.75,8.75,0,0,1,4.09-.75l-3.1,2.37c-.86.65-2.9,2.08-2.9,2.08Z" transform="translate(-693.87 -1241.37)" style="fill:#fde282;stroke:#000;stroke-miterlimit:10;stroke-width:0.5px;fill-rule:evenodd"/><path d="M728.32,1570.54a6,6,0,0,1-1.66,3.16,5,5,0,0,1-4.15.91l-.1,0s2-1.43,2.9-2.08l3.1-2.37Z" transform="translate(-693.87 -1241.37)" style="fill:#eca400;stroke:#000;stroke-miterlimit:10;stroke-width:0.5px;fill-rule:evenodd"/><path d="M720.82,1583.54a4,4,0,0,1-4.89-.75c-1.38-1.36-1.51-3.31-1.94-4.52l3.65,2.66c1,.74,3.29,2.54,3.29,2.54Z" transform="translate(-693.87 -1241.37)" style="fill:#eca400;stroke:#000;stroke-miterlimit:10;stroke-width:0.5px;fill-rule:evenodd"/><path d="M714.47,1578.23a6.93,6.93,0,0,1,4.07.8,5.79,5.79,0,0,1,2.39,4.32v.12s-2.27-1.8-3.29-2.54l-3.65-2.66Z" transform="translate(-693.87 -1241.37)" style="fill:#fde282;stroke:#000;stroke-miterlimit:10;stroke-width:0.5px;fill-rule:evenodd"/><path d="M724.66,1563.42a3,3,0,0,1-2.89-2.36c-.38-1.41.28-2.74.46-3.69l1.36,3.13c.39.87,1.17,2.92,1.17,2.92Z" transform="translate(-693.87 -1241.37)" style="fill:#eca400;stroke:#000;stroke-miterlimit:10;stroke-width:0.5px;fill-rule:evenodd"/><path d="M722.56,1557.53a5.2,5.2,0,0,1,2.34,2.08,4.36,4.36,0,0,1-.1,3.72l0,.09s-.78-2.05-1.17-2.92l-1.36-3.13Z" transform="translate(-693.87 -1241.37)" style="fill:#fde282;stroke:#000;stroke-miterlimit:10;stroke-width:0.5px;fill-rule:evenodd"/><path d="M722,1580.35a4.15,4.15,0,0,1,.9-4c1.07-1.25,2.66-1.39,3.69-1.73l-2.32,3c-.65.85-2.22,2.74-2.22,2.74Z" transform="translate(-693.87 -1241.37)" style="fill:#fde282;stroke:#000;stroke-miterlimit:10;stroke-width:0.5px;fill-rule:evenodd"/><path d="M726.57,1575.07a5.92,5.92,0,0,1-.76,3.43,4.94,4.94,0,0,1-3.7,2H722s1.57-1.89,2.22-2.74l2.32-3Z" transform="translate(-693.87 -1241.37)" style="fill:#eca400;stroke:#000;stroke-miterlimit:10;stroke-width:0.5px;fill-rule:evenodd"/><path d="M724.16,1608.51a9.38,9.38,0,0,1,4.28-3.19,8.7,8.7,0,0,1,6.67,1.35l.15.1s-2.25.14-4.69.48c-1.22.17-2.82.49-4.12.76Z" transform="translate(-693.87 -1241.37)" style="fill:#fde282;stroke:#000;stroke-miterlimit:10;stroke-width:0.5px;fill-rule:evenodd"/><path d="M734.94,1607.28c-.63.93-2.15,2.8-4.18,3-2.71.31-6.6-1.8-6.6-1.8l2.29-.5c1.3-.27,2.9-.59,4.12-.76,2.44-.34,4.69-.48,4.69-.48Z" transform="translate(-693.87 -1241.37)" style="fill:#eca400;stroke:#000;stroke-miterlimit:10;stroke-width:0.5px;fill-rule:evenodd"/><path d="M733.41,1559.78a5.26,5.26,0,0,0-2.71-1.26,4.94,4.94,0,0,0-3.51,1.51l-.07.07s1.25-.18,2.63-.27c.69,0,1.61-.06,2.35-.06Z" transform="translate(-693.87 -1241.37)" style="fill:#fde282;stroke:#000;stroke-miterlimit:10;stroke-width:0.5px;fill-rule:evenodd"/><path d="M727.36,1560.35a3.71,3.71,0,0,0,2.64,1.18,8.06,8.06,0,0,0,3.41-1.75H732.1c-.74,0-1.66,0-2.35.06-1.38.09-2.63.27-2.63.27Z" transform="translate(-693.87 -1241.37)" style="fill:#eca400;stroke:#000;stroke-miterlimit:10;stroke-width:0.5px;fill-rule:evenodd"/><path d="M712.69,1585.23a7.82,7.82,0,0,1,4.34-.86,7.23,7.23,0,0,1,4.5,3.4l.08.13s-1.73-.7-3.68-1.32c-1-.31-2.29-.64-3.35-.9Z" transform="translate(-693.87 -1241.37)" style="fill:#fde282;stroke:#000;stroke-miterlimit:10;stroke-width:0.5px;fill-rule:evenodd"/><path d="M721.18,1588.17c-.8.46-2.6,1.33-4.2.77-2.14-.74-4.29-3.71-4.29-3.71l1.89.45c1.06.26,2.37.59,3.35.9,2,.62,3.68,1.32,3.68,1.32Z" transform="translate(-693.87 -1241.37)" style="fill:#eca400;stroke:#000;stroke-miterlimit:10;stroke-width:0.5px;fill-rule:evenodd"/><path d="M730.59,1566.32a6.35,6.35,0,0,0-3.56-.63,5.94,5.94,0,0,0-3.63,2.85l-.06.11s1.41-.6,3-1.14c.79-.27,1.86-.57,2.72-.8Z" transform="translate(-693.87 -1241.37)" style="fill:#fde282;stroke:#000;stroke-miterlimit:10;stroke-width:0.5px;fill-rule:evenodd"/><path d="M723.69,1568.86a4.49,4.49,0,0,0,3.46.56c1.73-.64,3.44-3.1,3.44-3.1l-1.54.39c-.86.23-1.93.53-2.72.8-1.58.54-3,1.14-3,1.14Z" transform="translate(-693.87 -1241.37)" style="fill:#eca400;stroke:#000;stroke-miterlimit:10;stroke-width:0.5px;fill-rule:evenodd"/><path d="M726.58,1579.29a7.12,7.12,0,0,0-3.41,2.21,6.61,6.61,0,0,0-.8,5.1l0,.14s.69-1.57,1.58-3.22c.45-.82,1.1-1.88,1.63-2.73Z" transform="translate(-693.87 -1241.37)" style="fill:#fde282;stroke:#000;stroke-miterlimit:10;stroke-width:0.5px;fill-rule:evenodd"/><path d="M722.85,1586.64a5,5,0,0,0,3.26-2.17c.94-1.85.47-5.18.47-5.18l-1,1.5c-.53.85-1.18,1.91-1.63,2.73-.89,1.65-1.58,3.22-1.58,3.22Z" transform="translate(-693.87 -1241.37)" style="fill:#eca400;stroke:#000;stroke-miterlimit:10;stroke-width:0.5px;fill-rule:evenodd"/><path d="M717,1566.33a7.05,7.05,0,0,1,3.48,2.08,6.61,6.61,0,0,1,1,5.07l0,.14s-.75-1.54-1.7-3.16c-.47-.81-1.16-1.84-1.72-2.67Z" transform="translate(-693.87 -1241.37)" style="fill:#fde282;stroke:#000;stroke-miterlimit:10;stroke-width:0.5px;fill-rule:evenodd"/><path d="M721,1573.54a5,5,0,0,1-3.33-2.06c-1-1.81-.65-5.15-.65-5.15l1,1.46c.56.83,1.25,1.86,1.72,2.67.95,1.62,1.7,3.16,1.7,3.16Z" transform="translate(-693.87 -1241.37)" style="fill:#eca400;stroke:#000;stroke-miterlimit:10;stroke-width:0.5px;fill-rule:evenodd"/><path d="M729.31,1587.8a8,8,0,0,0-3.26,3.15,7.43,7.43,0,0,0,.23,5.77l.07.14s.41-1.86,1-3.86c.31-1,.79-2.3,1.2-3.35Z" transform="translate(-693.87 -1241.37)" style="fill:#fde282;stroke:#000;stroke-miterlimit:10;stroke-width:0.5px;fill-rule:evenodd"/><path d="M726.82,1596.66c.86-.4,2.64-1.42,3.11-3.09.62-2.23-.62-5.77-.62-5.77l-.73,1.85c-.41,1-.89,2.35-1.2,3.35-.62,2-1,3.86-1,3.86Z" transform="translate(-693.87 -1241.37)" style="fill:#eca400;stroke:#000;stroke-miterlimit:10;stroke-width:0.5px;fill-rule:evenodd"/><path d="M785.24,1567.26a42.57,42.57,0,0,1,1.51,10.59,37.43,37.43,0,0,1-1.34,10.58,31.44,31.44,0,0,1-11.56,17.22c-5,3.57-11.55,5.73-20,5.43a.43.43,0,0,0-.46.43.45.45,0,0,0,.43.47c8.64.24,15.35-2,20.42-5.76a32,32,0,0,0,11.65-17.65,37.51,37.51,0,0,0,1.26-10.73,42.5,42.5,0,0,0-1.62-10.67.17.17,0,0,0-.21-.12A.16.16,0,0,0,785.24,1567.26Z" transform="translate(-693.87 -1241.37)" style="fill:#eca400;stroke:#000;stroke-miterlimit:10;stroke-width:0.5px;fill-rule:evenodd"/><path d="M761.14,1601.31c-.36.19-3.5,1.92-4.42,3.83a5.16,5.16,0,0,0,.78,5.83,38.72,38.72,0,0,1,1.46-4.61C759.54,1605,760.55,1602.65,761.14,1601.31Z" transform="translate(-693.87 -1241.37)" style="fill:#eca400;stroke:#000;stroke-miterlimit:10;stroke-width:0.5px;fill-rule:evenodd"/><path d="M761.14,1601.31c-.59,1.34-1.6,3.65-2.18,5a38.72,38.72,0,0,0-1.46,4.61h0s3.6-1.78,4.11-4.48a11.11,11.11,0,0,0-.45-5.2Z" transform="translate(-693.87 -1241.37)" style="fill:#fde282;stroke:#000;stroke-miterlimit:10;stroke-width:0.5px;fill-rule:evenodd"/><path d="M782.82,1562.35a6.51,6.51,0,0,1,2.61,1.76,2.77,2.77,0,0,1,0,3.16,19.79,19.79,0,0,0-1.08-2.37C783.91,1564.19,783.22,1563,782.82,1562.35Z" transform="translate(-693.87 -1241.37)" style="fill:#fde282;stroke:#000;stroke-miterlimit:10;stroke-width:0.5px;fill-rule:evenodd"/><path d="M782.82,1562.35c.4.68,1.09,1.84,1.49,2.55a19.79,19.79,0,0,1,1.08,2.37h0s-2-.71-2.49-2.12a5.91,5.91,0,0,1-.1-2.81Z" transform="translate(-693.87 -1241.37)" style="fill:#eca400;stroke:#000;stroke-miterlimit:10;stroke-width:0.5px;fill-rule:evenodd"/><path d="M792.79,1572.58c0,.31-.15,3.07-1.17,4.35a4,4,0,0,1-4.3,1.42,31.1,31.1,0,0,0,2.7-2.56C790.8,1574.92,792.06,1573.44,792.79,1572.58Z" transform="translate(-693.87 -1241.37)" style="fill:#eca400;stroke:#000;stroke-miterlimit:10;stroke-width:0.5px;fill-rule:evenodd"/><path d="M792.79,1572.58c-.73.86-2,2.34-2.77,3.21a31.1,31.1,0,0,1-2.7,2.56h0s0-3.1,1.73-4.36a8.52,8.52,0,0,1,3.75-1.44Z" transform="translate(-693.87 -1241.37)" style="fill:#fde282;stroke:#000;stroke-miterlimit:10;stroke-width:0.5px;fill-rule:evenodd"/><path d="M793.49,1584.49c-.11.32-1.19,3.12-2.66,4.1a4.31,4.31,0,0,1-4.91,0,30.87,30.87,0,0,0,3.64-1.73C790.65,1586.24,792.45,1585.14,793.49,1584.49Z" transform="translate(-693.87 -1241.37)" style="fill:#eca400;stroke:#000;stroke-miterlimit:10;stroke-width:0.5px;fill-rule:evenodd"/><path d="M793.49,1584.49c-1,.65-2.84,1.75-3.93,2.39a30.87,30.87,0,0,1-3.64,1.73h0s1.06-3.19,3.23-3.92a9.28,9.28,0,0,1,4.35-.23Z" transform="translate(-693.87 -1241.37)" style="fill:#fde282;stroke:#000;stroke-miterlimit:10;stroke-width:0.5px;fill-rule:evenodd"/><path d="M778.91,1593.53c-.19.21-1.84,2.06-2,3.52a3.57,3.57,0,0,0,1.85,3.63,27.2,27.2,0,0,1-.11-3.35C778.71,1596.29,778.83,1594.55,778.91,1593.53Z" transform="translate(-693.87 -1241.37)" style="fill:#eca400;stroke:#000;stroke-miterlimit:10;stroke-width:0.5px;fill-rule:evenodd"/><path d="M778.91,1593.53c-.08,1-.2,2.76-.26,3.8a27.2,27.2,0,0,0,.11,3.35h0s2-2,1.66-3.87a7.76,7.76,0,0,0-1.49-3.3Z" transform="translate(-693.87 -1241.37)" style="fill:#fde282;stroke:#000;stroke-miterlimit:10;stroke-width:0.5px;fill-rule:evenodd"/><path d="M780.78,1570.42a7.46,7.46,0,0,0,1.9,3.13,3.23,3.23,0,0,0,3.67.12,26.32,26.32,0,0,1-2.68-1.37C782.86,1571.79,781.55,1570.93,780.78,1570.42Z" transform="translate(-693.87 -1241.37)" style="fill:#eca400;stroke:#000;stroke-miterlimit:10;stroke-width:0.5px;fill-rule:evenodd"/><path d="M780.78,1570.42c.77.51,2.08,1.37,2.89,1.88a26.32,26.32,0,0,0,2.68,1.37h0s-.73-2.41-2.34-3a6.93,6.93,0,0,0-3.25-.27Z" transform="translate(-693.87 -1241.37)" style="fill:#fde282;stroke:#000;stroke-miterlimit:10;stroke-width:0.5px;fill-rule:evenodd"/><path d="M785.18,1607.1c-.32.2-3.17,1.92-5.27,1.83a5.49,5.49,0,0,1-4.93-3.12,46.22,46.22,0,0,0,4.75.84C781.23,1606.79,783.72,1607,785.18,1607.1Z" transform="translate(-693.87 -1241.37)" style="fill:#eca400;stroke:#000;stroke-miterlimit:10;stroke-width:0.5px;fill-rule:evenodd"/><path d="M785.18,1607.1c-1.46-.11-3.95-.31-5.45-.45a46.22,46.22,0,0,1-4.75-.84h0s3.09-2.07,5.73-1.31a12.42,12.42,0,0,1,4.5,2.58Z" transform="translate(-693.87 -1241.37)" style="fill:#fde282;stroke:#000;stroke-miterlimit:10;stroke-width:0.5px;fill-rule:evenodd"/><path d="M789.79,1564.44a6.85,6.85,0,0,1-.52,3.24,3.21,3.21,0,0,1-3,1.67,26.94,26.94,0,0,0,1.76-2.22C788.53,1566.39,789.33,1565.16,789.79,1564.44Z" transform="translate(-693.87 -1241.37)" style="fill:#eca400;stroke:#000;stroke-miterlimit:10;stroke-width:0.5px;fill-rule:evenodd"/><path d="M789.79,1564.44c-.46.72-1.26,2-1.75,2.69a26.94,26.94,0,0,1-1.76,2.22h0a4.76,4.76,0,0,1,.92-3.32,7.2,7.2,0,0,1,2.59-1.61Z" transform="translate(-693.87 -1241.37)" style="fill:#fde282;stroke:#000;stroke-miterlimit:10;stroke-width:0.5px;fill-rule:evenodd"/><path d="M765.53,1617.78c-.94-1.24-1.89-3.45-3.72-4.72a7.31,7.31,0,0,0-4.29-1,7.94,7.94,0,0,0,2.85,3.1,43.56,43.56,0,0,0,4.57,2.38Z" transform="translate(-693.87 -1241.37)" style="fill:#fde282;stroke:#000;stroke-miterlimit:10;stroke-width:0.5px;fill-rule:evenodd"/><path d="M757.52,1612s-1.22,3,.91,4.63c2.49,1.85,7.1,1.12,7.1,1.12l-.59-.27a43.56,43.56,0,0,1-4.57-2.38A7.94,7.94,0,0,1,757.52,1612Z" transform="translate(-693.87 -1241.37)" style="fill:#eca400;stroke:#000;stroke-miterlimit:10;stroke-width:0.5px;fill-rule:evenodd"/><path d="M786.18,1601c-1.19-.14-2.92-.81-4.6-.47a5.59,5.59,0,0,0-2.87,1.81,6,6,0,0,0,3.24.09,33.13,33.13,0,0,0,3.76-1.25Z" transform="translate(-693.87 -1241.37)" style="fill:#fde282;stroke:#000;stroke-miterlimit:10;stroke-width:0.5px;fill-rule:evenodd"/><path d="M778.71,1602.31s1,2.32,3,2c2.36-.39,4.43-3.33,4.43-3.33l-.47.18a33.13,33.13,0,0,1-3.76,1.25A6,6,0,0,1,778.71,1602.31Z" transform="translate(-693.87 -1241.37)" style="fill:#eca400;stroke:#000;stroke-miterlimit:10;stroke-width:0.5px;fill-rule:evenodd"/><path d="M778.54,1610.59c-1.13-.67-2.55-2.11-4.38-2.52a6.1,6.1,0,0,0-3.67.53,6.68,6.68,0,0,0,3.19,1.53,35.31,35.31,0,0,0,4.31.43Z" transform="translate(-693.87 -1241.37)" style="fill:#fde282;stroke:#000;stroke-miterlimit:10;stroke-width:0.5px;fill-rule:evenodd"/><path d="M770.49,1608.6s0,2.76,2.15,3.33c2.52.67,5.9-1.34,5.9-1.34l-.55,0a35.31,35.31,0,0,1-4.31-.43A6.68,6.68,0,0,1,770.49,1608.6Z" transform="translate(-693.87 -1241.37)" style="fill:#eca400;stroke:#000;stroke-miterlimit:10;stroke-width:0.5px;fill-rule:evenodd"/><path d="M771.82,1600.51c.15,1.11.81,2.71.54,4.28a5.26,5.26,0,0,1-1.63,2.72,5.72,5.72,0,0,1-.16-3,31.27,31.27,0,0,1,1.09-3.54Z" transform="translate(-693.87 -1241.37)" style="fill:#fde282;stroke:#000;stroke-miterlimit:10;stroke-width:0.5px;fill-rule:evenodd"/><path d="M770.73,1607.51s-2.18-.91-1.92-2.79c.3-2.21,3-4.21,3-4.21l-.16.44a31.27,31.27,0,0,0-1.09,3.54A5.72,5.72,0,0,0,770.73,1607.51Z" transform="translate(-693.87 -1241.37)" style="fill:#eca400;stroke:#000;stroke-miterlimit:10;stroke-width:0.5px;fill-rule:evenodd"/><path d="M763.21,1610a4.47,4.47,0,0,0,4.46-3.35c.65-2.1-.27-4.12-.49-5.55l-2.21,4.61c-.62,1.28-1.91,4.29-1.91,4.29Z" transform="translate(-693.87 -1241.37)" style="fill:#fde282;stroke:#000;stroke-miterlimit:10;stroke-width:0.5px;fill-rule:evenodd"/><path d="M766.68,1601.28a7.86,7.86,0,0,0-3.62,3,6.52,6.52,0,0,0-.06,5.58l.06.13s1.29-3,1.91-4.29l2.21-4.61Z" transform="translate(-693.87 -1241.37)" style="fill:#eca400;stroke:#000;stroke-miterlimit:10;stroke-width:0.5px;fill-rule:evenodd"/><path d="M785.71,1584.55a3.27,3.27,0,0,0-.73-4,8.58,8.58,0,0,0-3.66-2l2.21,3.2c.61.89,2.12,2.88,2.12,2.88Z" transform="translate(-693.87 -1241.37)" style="fill:#fde282;stroke:#000;stroke-miterlimit:10;stroke-width:0.5px;fill-rule:evenodd"/><path d="M781.27,1579a6,6,0,0,0,.61,3.51,5,5,0,0,0,3.66,2.16h.11s-1.51-2-2.12-2.88l-2.21-3.2Z" transform="translate(-693.87 -1241.37)" style="fill:#eca400;stroke:#000;stroke-miterlimit:10;stroke-width:0.5px;fill-rule:evenodd"/><path d="M784.38,1593.66a4,4,0,0,0,4.87.8c1.73-.86,2.47-2.68,3.25-3.7l-4.3,1.4c-1.2.39-3.91,1.4-3.91,1.4Z" transform="translate(-693.87 -1241.37)" style="fill:#eca400;stroke:#000;stroke-miterlimit:10;stroke-width:0.5px;fill-rule:evenodd"/><path d="M792.06,1590.57a7,7,0,0,0-4.12-.49,5.78,5.78,0,0,0-3.61,3.36l0,.12s2.71-1,3.91-1.4l4.3-1.4Z" transform="translate(-693.87 -1241.37)" style="fill:#fde282;stroke:#000;stroke-miterlimit:10;stroke-width:0.5px;fill-rule:evenodd"/><path d="M787,1573.33a3,3,0,0,0,3.48-1.34c.8-1.22.58-2.69.7-3.65l-2.26,2.55c-.64.71-2,2.41-2,2.41Z" transform="translate(-693.87 -1241.37)" style="fill:#eca400;stroke:#000;stroke-miterlimit:10;stroke-width:0.5px;fill-rule:evenodd"/><path d="M790.79,1568.39a5.24,5.24,0,0,0-2.87,1.25,4.37,4.37,0,0,0-1.06,3.57v.09s1.38-1.7,2-2.41l2.26-2.55Z" transform="translate(-693.87 -1241.37)" style="fill:#fde282;stroke:#000;stroke-miterlimit:10;stroke-width:0.5px;fill-rule:evenodd"/><path d="M784.29,1590.27a4.13,4.13,0,0,0,.37-4c-.63-1.52-2.1-2.15-3-2.79l1.26,3.62c.35,1,1.26,3.29,1.26,3.29Z" transform="translate(-693.87 -1241.37)" style="fill:#fde282;stroke:#000;stroke-miterlimit:10;stroke-width:0.5px;fill-rule:evenodd"/><path d="M781.54,1583.82a5.82,5.82,0,0,0-.35,3.49,4.87,4.87,0,0,0,2.92,3l.1,0s-.91-2.28-1.26-3.29l-1.26-3.62Z" transform="translate(-693.87 -1241.37)" style="fill:#eca400;stroke:#000;stroke-miterlimit:10;stroke-width:0.5px;fill-rule:evenodd"/><path d="M773.44,1616.35a9.43,9.43,0,0,0-3.08-4.36c-2.69-1.76-6-1-6.76-.79l-.17.06s2.1.82,4.31,1.91c1.11.54,2.53,1.33,3.68,2Z" transform="translate(-693.87 -1241.37)" style="fill:#fde282;stroke:#000;stroke-miterlimit:10;stroke-width:0.5px;fill-rule:evenodd"/><path d="M763.58,1611.84c.31,1.07,1.17,3.33,3,4.18,2.48,1.13,6.83.33,6.83.33l-2-1.18c-1.15-.67-2.57-1.46-3.68-2-2.21-1.09-4.31-1.91-4.31-1.91Z" transform="translate(-693.87 -1241.37)" style="fill:#eca400;stroke:#000;stroke-miterlimit:10;stroke-width:0.5px;fill-rule:evenodd"/><path d="M779.78,1567.16a5.27,5.27,0,0,1,3-.35,4.87,4.87,0,0,1,2.86,2.52l0,.09s-1.13-.56-2.42-1.08c-.64-.26-1.5-.55-2.21-.78Z" transform="translate(-693.87 -1241.37)" style="fill:#fde282;stroke:#000;stroke-miterlimit:10;stroke-width:0.5px;fill-rule:evenodd"/><path d="M785.36,1569.58a3.71,3.71,0,0,1-2.88.3,8.14,8.14,0,0,1-2.7-2.72l1.25.4c.71.23,1.57.52,2.21.78,1.29.52,2.42,1.08,2.42,1.08Z" transform="translate(-693.87 -1241.37)" style="fill:#eca400;stroke:#000;stroke-miterlimit:10;stroke-width:0.5px;fill-rule:evenodd"/><path d="M791.58,1597.79a7.74,7.74,0,0,0-3.86-2.16,7.23,7.23,0,0,0-5.34,1.82l-.11.1s1.86-.13,3.91-.11c1,0,2.37.1,3.46.18Z" transform="translate(-693.87 -1241.37)" style="fill:#fde282;stroke:#000;stroke-miterlimit:10;stroke-width:0.5px;fill-rule:evenodd"/><path d="M782.59,1597.94c.62.69,2.06,2.07,3.76,2,2.26,0,5.23-2.19,5.23-2.19l-1.94-.17c-1.09-.08-2.44-.17-3.46-.18-2,0-3.91.11-3.91.11Z" transform="translate(-693.87 -1241.37)" style="fill:#eca400;stroke:#000;stroke-miterlimit:10;stroke-width:0.5px;fill-rule:evenodd"/><path d="M780.43,1574.25a6.39,6.39,0,0,1,3.58.51,5.89,5.89,0,0,1,2.56,3.84l0,.12s-1.14-1-2.48-2c-.67-.51-1.59-1.12-2.34-1.61Z" transform="translate(-693.87 -1241.37)" style="fill:#fde282;stroke:#000;stroke-miterlimit:10;stroke-width:0.5px;fill-rule:evenodd"/><path d="M786.2,1578.81a4.5,4.5,0,0,1-3.46-.54c-1.45-1.15-2.31-4-2.31-4l1.34.85c.75.49,1.67,1.1,2.34,1.61,1.34,1,2.48,2,2.48,2Z" transform="translate(-693.87 -1241.37)" style="fill:#eca400;stroke:#000;stroke-miterlimit:10;stroke-width:0.5px;fill-rule:evenodd"/><path d="M780.22,1587.83a7.12,7.12,0,0,1,2.55,3.15,6.66,6.66,0,0,1-.82,5.11l-.07.11s-.17-1.7-.51-3.54c-.17-.92-.46-2.13-.7-3.11Z" transform="translate(-693.87 -1241.37)" style="fill:#fde282;stroke:#000;stroke-miterlimit:10;stroke-width:0.5px;fill-rule:evenodd"/><path d="M781.48,1596a5,5,0,0,1-2.43-3.08c-.31-2,1.17-5.06,1.17-5.06l.45,1.72c.24,1,.53,2.19.7,3.11.34,1.84.51,3.54.51,3.54Z" transform="translate(-693.87 -1241.37)" style="fill:#eca400;stroke:#000;stroke-miterlimit:10;stroke-width:0.5px;fill-rule:evenodd"/><path d="M793.37,1578.49a7.15,7.15,0,0,0-4,.89,6.6,6.6,0,0,0-2.51,4.52v.14s1.18-1.23,2.59-2.47c.7-.62,1.67-1.39,2.47-2Z" transform="translate(-693.87 -1241.37)" style="fill:#fde282;stroke:#000;stroke-miterlimit:10;stroke-width:0.5px;fill-rule:evenodd"/><path d="M787.35,1584.11a5,5,0,0,0,3.81-.92c1.52-1.42,2.21-4.7,2.21-4.7l-1.41,1.07c-.8.62-1.77,1.39-2.47,2-1.41,1.24-2.59,2.47-2.59,2.47Z" transform="translate(-693.87 -1241.37)" style="fill:#eca400;stroke:#000;stroke-miterlimit:10;stroke-width:0.5px;fill-rule:evenodd"/><path d="M775,1595.06a8,8,0,0,1,2.12,4,7.46,7.46,0,0,1-2,5.42l-.11.11s.18-1.9.22-4c0-1,0-2.44-.1-3.56Z" transform="translate(-693.87 -1241.37)" style="fill:#fde282;stroke:#000;stroke-miterlimit:10;stroke-width:0.5px;fill-rule:evenodd"/><path d="M774.6,1604.26a5.58,5.58,0,0,1-2-3.9c.1-2.31,2.38-5.3,2.38-5.3l.12,2c.06,1.12.11,2.51.1,3.56,0,2.09-.22,4-.22,4Z" transform="translate(-693.87 -1241.37)" style="fill:#eca400;stroke:#000;stroke-miterlimit:10;stroke-width:0.5px;fill-rule:evenodd"/><path d="M755,1556.51a1.08,1.08,0,0,1,1.14-.59,1.12,1.12,0,0,1,.92.91c.7,4.49,1.92,12.2,2.31,14.68a1.1,1.1,0,0,0,.91.91l14.67,2.33a1.1,1.1,0,0,1,.91.92,1.08,1.08,0,0,1-.59,1.14L762,1583.55a1.09,1.09,0,0,0-.58,1.15c.39,2.47,1.6,10.18,2.31,14.67a1.1,1.1,0,0,1-1.86,1l-10.5-10.52a1.11,1.11,0,0,0-1.27-.2l-13.24,6.73a1.09,1.09,0,0,1-1.47-1.47c2.06-4,5.61-11,6.75-13.23a1.11,1.11,0,0,0-.2-1.28l-10.5-10.51a1.1,1.1,0,0,1,.95-1.86l14.67,2.34a1.09,1.09,0,0,0,1.15-.59Z" transform="translate(-693.87 -1241.37)" style="fill:#fde282;fill-rule:evenodd"/><path d="M755,1556.51a1.08,1.08,0,0,1,1.14-.59,1.12,1.12,0,0,1,.92.91c.7,4.49,1.92,12.2,2.31,14.68a1.1,1.1,0,0,0,.91.91l14.67,2.33a1.1,1.1,0,0,1,.91.92,1.08,1.08,0,0,1-.59,1.14L762,1583.55a1.09,1.09,0,0,0-.58,1.15c.39,2.47,1.6,10.18,2.31,14.67a1.1,1.1,0,0,1-1.86,1l-10.5-10.52a1.11,1.11,0,0,0-1.27-.2l-13.24,6.73a1.09,1.09,0,0,1-1.47-1.47c2.06-4,5.61-11,6.75-13.23a1.11,1.11,0,0,0-.2-1.28l-10.5-10.51a1.1,1.1,0,0,1,.95-1.86l14.67,2.34a1.09,1.09,0,0,0,1.15-.59Z" transform="translate(-693.87 -1241.37)" style="fill:#fde282;fill-rule:evenodd"/><path d="M736.05,1597a1.56,1.56,0,0,1-.82-.45,1.61,1.61,0,0,1-.3-1.88l6.75-13.23a.58.58,0,0,0-.1-.66l-10.5-10.52a1.61,1.61,0,0,1-.3-1.88,1.63,1.63,0,0,1,1.71-.86l14.66,2.33a.56.56,0,0,0,.6-.3l6.76-13.23a1.62,1.62,0,0,1,3,.48l2.32,14.67a.56.56,0,0,0,.47.48l14.67,2.33a1.62,1.62,0,0,1,.48,3L762.25,1584a.56.56,0,0,0-.3.59l2.31,14.68a1.62,1.62,0,0,1-2.75,1.4L751,1590.18a.56.56,0,0,0-.66-.11l-13.24,6.73A1.64,1.64,0,0,1,736.05,1597Zm20-40.51h0a.58.58,0,0,0-.6.3h0L748.69,1570a1.62,1.62,0,0,1-1.7.87l-14.67-2.34a.58.58,0,0,0-.6.31.56.56,0,0,0,.11.66L742.32,1580a1.63,1.63,0,0,1,.3,1.89l-6.76,13.23a.58.58,0,0,0,.77.77l13.24-6.74a1.63,1.63,0,0,1,1.89.3l10.49,10.51a.58.58,0,0,0,.67.11.56.56,0,0,0,.3-.6l-2.31-14.67a1.62,1.62,0,0,1,.87-1.7l13.24-6.73a.58.58,0,0,0-.17-1.08l-14.67-2.33a1.62,1.62,0,0,1-1.35-1.35l-2.31-14.67A.59.59,0,0,0,756.06,1556.44Zm-1.08.07Z" transform="translate(-693.87 -1241.37)" style="fill:#312a3c"/><polygon id="SVGID-4" data-name="SVGID" points="35.6 1.75 179.46 20.55 202.71 62 1.75 38.26 35.6 1.75" style="fill:#07739e;fill-rule:evenodd"/><g style="clip-path:url(#clip-path-4)"><path d="M715.2,1250.66,885,1271.44l10.21,21.4L702,1267.93Z" transform="translate(-693.87 -1241.37)" style="fill:#46c0ae;fill-rule:evenodd"/></g><path d="M695.27,1281.35a1.75,1.75,0,0,1-1.29-1.11,1.73,1.73,0,0,1,.36-1.79l33.84-36.52a1.75,1.75,0,0,1,1.51-.54l143.86,18.8a1.74,1.74,0,0,1,1.3.87l23.25,41.46a1.75,1.75,0,0,1-1.73,2.59l-201-23.74ZM730.13,1245l-30.9,33.33,194.15,22.94-21.15-37.7Z" transform="translate(-693.87 -1241.37)" style="fill:#312a3c"/><polygon id="SVGID-5" data-name="SVGID" points="76.4 270.8 35.6 1.75 1.75 38.26 40.19 265.79 76.4 270.8" style="fill:#46c0ae;fill-rule:evenodd"/><g style="clip-path:url(#clip-path-5)"><path d="M702.43,1261.33l40.7,247.09,18.67,3.16-44.43-267.82Z" transform="translate(-693.87 -1241.37)" style="fill:#07739e;fill-rule:evenodd"/></g><path d="M733.72,1508.88a1.76,1.76,0,0,1-1.38-1.43l-38.45-227.52a1.74,1.74,0,0,1,.45-1.48l33.84-36.52a1.75,1.75,0,0,1,3,.93L772,1511.91a1.74,1.74,0,0,1-2,2l-36.21-5Zm-36.24-228.69,38.09,225.42,32.63,4.51L728.28,1247Z" transform="translate(-693.87 -1241.37)" style="fill:#312a3c"/><polygon id="SVGID-6" data-name="SVGID" points="59.03 268.79 98.34 275.05 202.71 62 179.46 20.55 59.03 268.79" style="fill:#46c0ae;fill-rule:evenodd"/><g style="clip-path:url(#clip-path-6)"><path d="M763.65,1516.08l120.08-247.59,12.48,16.66-117,234.61Z" transform="translate(-693.87 -1241.37)" style="fill:#07739e;fill-rule:evenodd"/></g><path d="M752.56,1511.87a1.74,1.74,0,0,1-1.21-.9,1.77,1.77,0,0,1,0-1.57l120.42-248.24a1.75,1.75,0,0,1,3.1-.1l23.25,41.46a1.75,1.75,0,0,1,0,1.62l-104.37,213a1.74,1.74,0,0,1-1.84,1l-39.32-6.26Zm120.88-246.18L755.5,1508.81l35.71,5.69L894.6,1303.43Z" transform="translate(-693.87 -1241.37)" style="fill:#312a3c"/></g></svg>