<?xml version="1.0" encoding="utf-8"?>
<!-- Generator: Adobe Illustrator 24.2.1, SVG Export Plug-In . SVG Version: 6.00 Build 0)  -->
<svg version="1.1" id="Layer_1" xmlns="http://www.w3.org/2000/svg" xmlns:xlink="http://www.w3.org/1999/xlink" x="0px" y="0px"
	 viewBox="0 0 32.3 34.5" style="enable-background:new 0 0 32.3 34.5;" xml:space="preserve">
<style type="text/css">
	.st0{opacity:0.4;fill:#442309;enable-background:new    ;}
	.st1{fill:#1B0600;}
	.st2{fill:#2B1501;}
	.st3{fill:#EECAAC;}
</style>
<g>
	<g id="Layer_1_1_">
		<path class="st0" d="M15.5,34.5C6.6,34.2-0.3,26.2,0,16.7S7.8-0.3,16.7,0s15.8,8.3,15.5,17.8S24.4,34.8,15.5,34.5z"/>
		<path class="st1" d="M10.1,30C2.9,27.6-1,19.9,1.3,12.8c0-0.1,0.1-0.3,0.1-0.4C4.1,5.1,12,1.2,19.4,3.6c7.2,2.3,11.1,10,8.7,17.2
			c0,0.1-0.1,0.2-0.1,0.4C25.4,28.5,17.4,32.4,10.1,30z"/>
		<path class="st2" d="M10.5,27.6c-7.2-2.3-11.1-10-8.7-17.2c0-0.1,0.1-0.3,0.1-0.4C4.5,2.7,12.4-1.2,19.8,1.3
			c7.2,2.3,11.1,10.1,8.7,17.2c0,0.1-0.1,0.2-0.1,0.3C25.8,26.2,17.8,30,10.5,27.6z"/>
		<path class="st3" d="M11.3,25.4C5.3,23.4,2.1,17,4,11.1c0-0.1,0.1-0.2,0.1-0.3c2.2-6,8.7-9.2,14.8-7.3c5.9,1.9,9.2,8.3,7.2,14.3
			c0,0.1-0.1,0.2-0.1,0.3C23.9,24.1,17.4,27.3,11.3,25.4z"/>
		<polygon class="st2" points="4,6.2 25.8,22.8 26.6,21.7 5,5.1 		"/>
	</g>
</g>
</svg>
