<svg width="128" height="153" viewBox="0 0 128 153" fill="none" xmlns="http://www.w3.org/2000/svg">
<path d="M125.879 137.815C125.879 140.759 123.453 143.183 120.506 143.183H15.9994C13.0531 143.183 10.6267 140.759 10.6267 137.815V7.26304C10.6267 4.31955 13.0531 1.89551 15.9994 1.89551H120.333C123.279 1.89551 125.706 4.31955 125.706 7.26304V137.815H125.879Z" fill="#07739E" stroke="#2D2F38" stroke-width="1.5" stroke-miterlimit="10" stroke-linecap="round" stroke-linejoin="round"/>
<path d="M116.867 145.607C116.867 148.55 114.44 150.974 111.494 150.974H7.1605C4.2142 150.974 1.78784 148.55 1.78784 145.607V15.0545C1.78784 12.1111 4.2142 9.68701 7.1605 9.68701H111.494C114.44 9.68701 116.867 12.1111 116.867 15.0545V145.607Z" fill="white" stroke="#2D2F38" stroke-width="1.5" stroke-miterlimit="10" stroke-linecap="round" stroke-linejoin="round"/>
<path d="M37.3167 36.8711H81.3378" stroke="#2D2F38" stroke-width="1.5" stroke-miterlimit="10" stroke-linecap="round" stroke-linejoin="round"/>
<path d="M20.5055 58.3413H97.9757" stroke="#2D2F38" stroke-width="1.5" stroke-miterlimit="10" stroke-linecap="round" stroke-linejoin="round"/>
<path d="M20.5055 69.249H97.9757" stroke="#2D2F38" stroke-width="1.5" stroke-miterlimit="10" stroke-linecap="round" stroke-linejoin="round"/>
<path d="M20.5055 80.1577H97.9757" stroke="#2D2F38" stroke-width="1.5" stroke-miterlimit="10" stroke-linecap="round" stroke-linejoin="round"/>
<path d="M20.5055 91.2388H97.9757" stroke="#2D2F38" stroke-width="1.5" stroke-miterlimit="10" stroke-linecap="round" stroke-linejoin="round"/>
<path d="M20.5055 102.147H97.9757" stroke="#2D2F38" stroke-width="1.5" stroke-miterlimit="10" stroke-linecap="round" stroke-linejoin="round"/>
<path d="M20.5055 113.056H97.9757" stroke="#2D2F38" stroke-width="1.5" stroke-miterlimit="10" stroke-linecap="round" stroke-linejoin="round"/>
<path d="M20.5055 124.137H97.9757" stroke="#2D2F38" stroke-width="1.5" stroke-miterlimit="10" stroke-linecap="round" stroke-linejoin="round"/>
</svg>
