<svg width="138" height="119" viewBox="0 0 138 119" fill="none" xmlns="http://www.w3.org/2000/svg">
<path d="M61.4937 116.655C58.6067 116.655 55.7197 115.483 53.4101 113.138C48.7908 108.448 48.7908 101.121 53.4101 96.4311L59.4728 90.2759H13.8577C7.50628 90.2759 2.30963 85 2.30963 78.5518C2.30963 72.1035 7.50628 66.8276 13.8577 66.8276H87.477C92.0963 66.8276 96.4268 69.7587 98.159 74.1552C99.8912 78.5518 99.0251 83.5345 95.5607 87.0518L69.5774 113.431C67.5565 115.483 64.6695 116.655 61.4937 116.655Z" fill="#07739E" stroke="#2D2F38" stroke-width="1.5" stroke-miterlimit="10" stroke-linecap="round" stroke-linejoin="round"/>
<path d="M76.2175 2.34473C79.1046 2.34473 81.9916 3.51714 84.3012 5.86197C88.9205 10.5516 88.9205 17.8792 84.3012 22.5689L78.2385 28.724L124.142 28.724C130.494 28.724 135.69 33.9999 135.69 40.4482C135.69 46.8965 130.494 52.1723 124.142 52.1723H50.523C45.9037 52.1723 41.5732 49.2413 39.841 44.8447C38.1087 40.4482 38.9749 35.4654 42.4393 31.9482L68.4226 5.56886C70.4435 3.22404 73.3305 2.34473 76.2175 2.34473Z" fill="#F45B49" stroke="#2D2F38" stroke-width="1.5" stroke-miterlimit="10" stroke-linecap="round" stroke-linejoin="round"/>
</svg>
