<svg width="131" height="149" viewBox="0 0 131 149" fill="none" xmlns="http://www.w3.org/2000/svg">
<g clip-path="url(#clip0_60_1540)">
<path d="M129.485 140.817C129.485 144.432 126.737 147.196 123.144 147.196H21.6805C18.087 147.196 15.3391 144.432 15.3391 140.817V38.5351C15.3391 34.9201 18.087 32.1558 21.6805 32.1558H123.144C126.737 32.1558 129.485 34.9201 129.485 38.5351V140.817Z" fill="#E79145" stroke="#2D2F38" stroke-width="1.5" stroke-miterlimit="10" stroke-linecap="round" stroke-linejoin="round"/>
<path d="M116.802 128.909C116.802 132.524 114.055 135.288 110.461 135.288H8.99759C5.4041 135.288 2.65613 132.524 2.65613 128.909V26.4145C2.65613 22.7995 5.4041 20.0352 8.99759 20.0352H110.461C114.055 20.0352 116.802 22.7995 116.802 26.4145V128.909Z" fill="white" stroke="#2D2F38" stroke-width="1.5" stroke-miterlimit="10" stroke-linecap="round" stroke-linejoin="round"/>
<path d="M105.176 56.3972H14.2822V121.891H105.176V56.3972Z" stroke="#2D2F38" stroke-miterlimit="10" stroke-linecap="round" stroke-linejoin="round"/>
<path d="M14.2822 72.771H105.176" stroke="#2D2F38" stroke-miterlimit="10" stroke-linecap="round" stroke-linejoin="round"/>
<path d="M14.2822 88.9321H105.176" stroke="#2D2F38" stroke-miterlimit="10" stroke-linecap="round" stroke-linejoin="round"/>
<path d="M14.2822 105.305H105.176" stroke="#2D2F38" stroke-miterlimit="10" stroke-linecap="round" stroke-linejoin="round"/>
<path d="M36.9 121.679V56.3972" stroke="#2D2F38" stroke-miterlimit="10" stroke-linecap="round" stroke-linejoin="round"/>
<path d="M59.7292 121.679V56.3972" stroke="#2D2F38" stroke-miterlimit="10" stroke-linecap="round" stroke-linejoin="round"/>
<path d="M82.3472 121.679V56.3972" stroke="#2D2F38" stroke-miterlimit="10" stroke-linecap="round" stroke-linejoin="round"/>
<path d="M23.7944 26.2018C21.6806 26.2018 19.144 23.0122 19.144 18.5467C19.144 14.0811 21.4692 10.8915 23.7944 10.8915C25.9082 10.8915 28.4448 14.0811 28.4448 18.5467C28.4448 18.972 28.4448 19.6099 28.2334 20.0352H36.6887C36.6887 19.6099 36.6887 18.972 36.6887 18.5467C36.6887 9.61563 30.9814 2.38574 23.583 2.38574C16.1846 2.38574 10.9001 9.61563 10.9001 18.5467C10.9001 27.4777 16.6074 34.7076 24.0058 34.7076C26.331 34.7076 28.2334 32.7938 28.2334 30.4547C28.2334 28.1156 26.1196 26.2018 23.7944 26.2018Z" fill="#F8D48F" stroke="#2D2F38" stroke-width="1.5" stroke-miterlimit="10" stroke-linecap="round" stroke-linejoin="round"/>
<path d="M46.6237 26.2018C44.5098 26.2018 41.9732 23.0122 41.9732 18.5467C41.9732 14.0811 44.2985 10.8915 46.6237 10.8915C48.7375 10.8915 51.2741 14.0811 51.2741 18.5467C51.2741 18.972 51.2741 19.6099 51.0627 20.0352H59.518C59.518 19.6099 59.518 18.972 59.518 18.5467C59.518 9.61563 53.8106 2.38574 46.4123 2.38574C39.0139 2.38574 33.3066 9.40298 33.3066 18.5467C33.3066 27.4777 39.0139 34.7076 46.4123 34.7076C48.7375 34.7076 50.6399 32.7938 50.6399 30.4547C50.6399 28.1156 48.9489 26.2018 46.6237 26.2018Z" fill="#F8D48F" stroke="#2D2F38" stroke-width="1.5" stroke-miterlimit="10" stroke-linecap="round" stroke-linejoin="round"/>
<path d="M69.2415 26.2018C67.1277 26.2018 64.5911 23.0122 64.5911 18.5467C64.5911 14.0811 66.9163 10.8915 69.2415 10.8915C71.3553 10.8915 73.8919 14.0811 73.8919 18.5467C73.8919 18.972 73.8919 19.6099 73.6805 20.0352H82.1358C82.1358 19.6099 82.1358 18.972 82.1358 18.5467C82.1358 9.61563 76.4285 2.38574 69.0301 2.38574C61.6318 2.38574 55.9244 9.40298 55.9244 18.5467C55.9244 27.4777 61.6318 34.7076 69.0301 34.7076C71.3553 34.7076 73.2578 32.7938 73.2578 30.4547C73.2578 28.1156 71.5667 26.2018 69.2415 26.2018Z" fill="#F8D48F" stroke="#2D2F38" stroke-width="1.5" stroke-miterlimit="10" stroke-linecap="round" stroke-linejoin="round"/>
<path d="M92.0708 26.2018C89.957 26.2018 87.4204 23.0122 87.4204 18.5467C87.4204 14.0811 89.7456 10.8915 92.0708 10.8915C94.1846 10.8915 96.7212 14.0811 96.7212 18.5467C96.7212 18.972 96.7212 19.6099 96.5098 20.0352H104.965C104.965 19.6099 104.965 18.972 104.965 18.5467C104.965 9.61563 99.2578 2.38574 91.8594 2.38574C84.461 2.38574 78.7537 9.40298 78.7537 18.5467C78.7537 27.4777 84.461 34.7076 91.8594 34.7076C94.1846 34.7076 96.0871 32.7938 96.0871 30.4547C96.0871 28.1156 94.396 26.2018 92.0708 26.2018Z" fill="#F8D48F" stroke="#2D2F38" stroke-width="1.5" stroke-miterlimit="10" stroke-linecap="round" stroke-linejoin="round"/>
</g>
<defs>
<clipPath id="clip0_60_1540">
<rect width="130" height="148" fill="white" transform="translate(0.965088 0.897217)"/>
</clipPath>
</defs>
</svg>
