<svg width="155" height="68" viewBox="0 0 155 68" fill="none" xmlns="http://www.w3.org/2000/svg">
<g clip-path="url(#clip0_60_1607)">
<path d="M151.646 42.6811C152.431 42.6811 153.844 40.2275 153.844 37.3966C153.844 34.5656 152.745 32.1121 151.803 31.9233L124.488 28.3374L124.174 44.9459L151.646 42.6811Z" fill="#794B25" stroke="#3E1C00" stroke-width="1.5" stroke-miterlimit="10" stroke-linecap="round" stroke-linejoin="round"/>
<path d="M141.756 48.1544C143.483 47.9657 144.896 43.0586 144.896 37.0192C145.053 31.1685 143.797 26.0727 142.07 25.6953L85.8701 18.5234L85.2422 52.8727L141.756 48.1544Z" fill="#794B25" stroke="#3E1C00" stroke-width="1.5" stroke-miterlimit="10" stroke-linecap="round" stroke-linejoin="round"/>
<path d="M86.0271 55.3265C89.0098 55.1377 91.5215 46.2673 91.6785 35.887C91.8354 25.318 89.6377 16.4476 86.655 16.0701L23.8619 7.19971L22.92 60.9884L86.0271 55.3265Z" fill="#DEBDA1" stroke="#3E1C00" stroke-width="1.5" stroke-miterlimit="10" stroke-linecap="round" stroke-linejoin="round"/>
<path d="M22.2921 66.0841C27.0016 66.2728 31.2401 51.9291 31.3971 34.377C31.7111 16.6362 28.1005 2.2925 23.234 2.2925L11.3033 1.91504L10.2045 65.7066L22.2921 66.0841Z" fill="#794B25" stroke="#3E1C00" stroke-width="1.5" stroke-miterlimit="10" stroke-linecap="round" stroke-linejoin="round"/>
<path d="M19.4664 33.9995C19.1525 51.7403 15.0709 65.8952 10.2045 65.7065C5.49499 65.5178 1.88439 51.1741 2.04137 33.622C2.35533 15.8812 6.59387 1.72622 11.3033 1.91495C16.0128 1.91495 19.6234 16.2586 19.4664 33.9995Z" fill="#3E1C00" stroke="#3E1C00" stroke-width="1.5" stroke-miterlimit="10" stroke-linecap="round" stroke-linejoin="round"/>
<path d="M15.071 33.8108C14.757 48.9094 11.7743 60.9882 8.16371 60.7995C4.55311 60.7995 1.88441 48.5319 2.19837 33.4333C2.51234 18.3347 5.49501 6.25583 9.10561 6.44456C12.5592 6.6333 15.2279 18.9009 15.071 33.8108Z" fill="#794B25" stroke="#3E1C00" stroke-width="1.5" stroke-miterlimit="10" stroke-linecap="round" stroke-linejoin="round"/>
<path d="M4.45271 33.6219C4.25969 45.5121 6.18984 55.5149 9.27808 59.4783C12.3663 55.7036 14.8755 45.7008 15.0685 33.9994C15.2615 22.298 13.3314 11.9177 10.2431 8.14307C7.15491 11.9177 4.83873 21.9205 4.45271 33.6219Z" fill="#9ECCFF" stroke="#3E1C00" stroke-width="1.5" stroke-miterlimit="10" stroke-linecap="round" stroke-linejoin="round"/>
</g>
<defs>
<clipPath id="clip0_60_1607">
<rect width="154" height="67" fill="white" transform="translate(0.942505 0.405273)"/>
</clipPath>
</defs>
</svg>
