<svg id="Layer_1" data-name="Layer 1" xmlns="http://www.w3.org/2000/svg" viewBox="0 0 56.1 43.09"><g style="isolation:isolate"><path d="M602.53,294.18h24v20.64A16.69,16.69,0,0,1,619.9,329a26.17,26.17,0,0,1-6.57,3.62q-3.62,1.37-7.16,2.43l-3.54-6.43a36.37,36.37,0,0,0,4.59-2.06,13.47,13.47,0,0,0,3.11-2.28,7.78,7.78,0,0,0,1.77-2.81,11.3,11.3,0,0,0,.56-3.73H602.53Zm-29.7,0h24v20.64A16.74,16.74,0,0,1,590.17,329a25.64,25.64,0,0,1-6.54,3.62q-3.61,1.37-7.16,2.43l-3.59-6.43a35.54,35.54,0,0,0,4.58-2.06,13.25,13.25,0,0,0,3.11-2.28,7.52,7.52,0,0,0,1.77-2.81,11,11,0,0,0,.57-3.73H572.83Z" transform="translate(-571.44 -293.18)" style="fill:#ffe9d7;stroke:#1f0e00;stroke-miterlimit:10;stroke-width:2px"/></g></svg>