<svg width="300" height="191" viewBox="0 0 300 191" fill="none" xmlns="http://www.w3.org/2000/svg">
<g clip-path="url(#clip0_60_10486)">
<path d="M282.065 90.4887C291.848 99.4561 298.37 112.5 297.554 126.358C296.739 138.586 290.217 162.228 248.641 180.163L231.522 174.456L242.935 167.119C268.206 156.521 282.88 141.847 283.696 125.543C284.511 113.315 277.174 101.902 264.946 95.38C254.348 89.6734 242.935 89.6735 234.783 96.1952C217.663 108.423 198.098 122.282 176.087 118.206C155.706 114.13 136.141 96.1952 114.13 61.9561C91.3043 26.0865 66.0325 9.78215 44.8369 17.9343C24.4565 26.0865 11.413 54.6191 16.3043 83.1517C21.1956 114.13 27.7173 155.706 30.9782 172.01C31.7934 176.087 29.3478 179.347 25.2717 180.163C21.1956 180.978 17.9347 178.532 17.1195 174.456C14.6739 158.152 8.15211 116.576 2.44559 85.5974C-2.44571 49.7278 13.0434 15.4887 40.7608 4.89084C53.8043 -0.000462294 88.8586 -5.70698 126.359 54.6191C145.924 84.7822 163.043 101.086 178.533 104.347C194.837 107.608 210.326 97.0104 226.63 84.7821C239.674 75.8148 255.978 74.9995 271.467 83.1517C275.543 85.5974 279.619 88.043 282.065 90.4887Z" fill="#F8D48F"/>
<path d="M3.26146 85.5976C8.15277 116.576 14.6745 158.152 17.9354 174.456C18.7506 178.532 22.0115 180.978 26.0876 180.163C30.1636 179.348 32.6093 176.087 31.7941 172.011C28.5332 155.706 22.0115 114.13 16.3049 83.152C16.3049 78.2607 15.4897 74.1846 15.4897 69.2933C11.4136 66.8476 6.52233 64.402 2.44625 61.1411C1.63103 69.2933 1.63103 77.4455 3.26146 85.5976Z" fill="white"/>
<path d="M233.968 169.565L242.935 165.489C267.392 154.891 281.25 141.032 282.065 125.543C282.881 114.13 275.544 103.532 264.946 97.0106C255.163 92.1193 244.565 92.1193 236.413 97.8258C219.294 110.054 199.729 124.728 176.087 119.837C154.892 115.761 135.326 97.8258 113.315 62.7715C91.3046 27.7171 66.8481 12.228 46.4677 19.565C26.9024 26.9019 14.6742 54.6193 19.5655 82.3367C24.4568 112.5 30.9785 152.445 33.4242 169.565V171.195C33.4242 173.641 33.4242 176.087 31.7937 177.717C30.1633 179.348 28.5329 180.978 26.0872 180.978C21.1959 182.608 16.3046 179.348 15.4894 174.456C13.0437 158.152 6.522 116.576 0.815482 85.5976C-4.89104 48.9128 11.4133 13.8584 39.9459 3.26062C53.8046 -2.4459 89.6742 -8.15242 127.989 52.9889C146.739 83.1519 163.859 98.6411 179.348 101.902C194.837 105.163 210.326 94.565 225.815 83.1519C239.674 73.3693 256.794 72.5541 273.098 81.5215C277.174 83.9671 280.435 86.4128 283.696 88.8584C294.294 98.6411 300 112.5 300 126.358C299.185 139.402 291.848 163.858 250.272 181.793C250.272 181.793 249.457 181.793 248.642 181.793L233.968 175.271V169.565ZM248.642 177.717C288.587 160.598 295.109 137.771 295.924 126.358C296.739 114.13 291.033 101.902 281.25 92.1193C277.989 89.6737 274.729 87.228 271.468 84.7824C256.794 76.6302 241.305 77.4454 229.076 86.4128C212.772 98.6411 197.283 109.239 179.348 105.978C162.229 102.717 145.109 86.4128 125.544 55.4345C88.859 -3.26111 54.6198 1.63019 41.5764 6.52149C15.4894 16.3041 0.000264496 49.728 5.70679 84.7824C10.5981 115.761 17.1198 157.337 20.3807 173.641C21.1959 176.087 23.6416 177.717 26.0872 177.717C27.7177 177.717 28.5329 176.902 29.3481 176.087C30.1633 175.271 30.1633 173.641 30.1633 172.826V171.195C27.7177 154.076 21.1959 114.13 16.3046 83.9671C9.78287 53.8041 22.8264 24.4563 44.8372 16.3041C67.6633 8.15193 93.7503 24.4563 116.576 61.1411C137.772 95.3802 157.337 112.5 176.902 116.576C198.913 120.652 217.663 107.608 233.968 95.3802C242.935 88.8584 255.163 88.8585 266.576 94.565C278.805 101.087 286.957 114.13 286.142 126.358C285.326 143.478 262.5 163.043 236.413 174.456L243.75 176.902L248.642 177.717Z" fill="#031332"/>
<path d="M37.5007 173.641C38.3159 174.456 39.1311 176.087 39.1311 176.902C39.9463 179.348 39.1311 182.609 35.8702 185.054C30.9789 189.13 22.8268 191.576 16.305 189.946C13.0442 189.13 10.5985 186.685 9.78329 184.239C8.96807 181.793 9.78329 178.533 13.0442 176.087C13.8594 175.272 14.6746 175.272 15.4898 174.456C16.305 174.456 17.1202 173.641 17.1202 174.456C17.9355 174.456 18.7507 175.272 18.7507 175.272C19.5659 177.717 22.0115 178.533 23.642 178.533C26.0876 178.533 27.7181 176.087 27.7181 173.641C27.7181 172.826 27.7181 172.826 28.5333 172.011C29.3485 171.196 29.3485 171.196 30.1637 171.196C32.6094 171.196 32.6094 171.196 33.4246 171.196C35.055 171.196 36.6855 172.011 37.5007 173.641ZM16.305 184.239C17.1202 185.054 17.9355 185.054 18.7507 185.869C23.642 187.5 30.1637 185.869 34.2398 181.793C35.8702 180.163 36.6855 179.348 35.8702 177.717C35.8702 176.902 35.055 176.087 33.4246 175.272C32.6094 178.533 30.1637 181.793 26.0876 182.609C22.8268 183.424 19.5659 181.793 17.9355 179.348C16.305 180.978 15.4898 181.793 16.305 183.424C15.4898 183.424 15.4898 183.424 16.305 184.239Z" fill="#021433"/>
<path d="M244.566 187.499L235.598 186.684C230.707 185.869 227.446 181.793 227.446 176.086C227.446 173.64 229.892 172.825 231.522 172.825L245.381 174.456C247.827 174.456 248.642 176.901 248.642 178.532L247.827 183.423C248.642 185.869 246.196 187.499 244.566 187.499Z" fill="#F8D48F"/>
<path d="M252.718 182.608C252.718 184.238 252.718 185.054 251.903 186.684C251.087 189.13 247.827 190.76 244.566 190.76C238.044 191.575 229.892 187.499 226.631 182.608C225 179.347 224.185 176.901 225 174.456C225.816 172.01 229.077 170.38 232.337 170.38C233.153 170.38 233.968 170.38 234.783 170.38C235.598 170.38 236.414 171.195 236.414 171.195C236.414 172.01 237.229 172.01 237.229 172.825C236.414 175.271 237.229 177.717 239.674 178.532C242.12 180.162 244.566 179.347 246.196 176.901C246.196 176.086 247.011 176.086 247.827 176.086C248.642 176.086 248.642 176.086 249.457 176.901C250.272 177.717 250.272 177.717 251.087 178.532C251.903 179.347 251.903 180.977 252.718 182.608ZM229.077 176.901C229.077 177.717 229.892 178.532 229.892 179.347C232.337 183.423 239.674 186.684 244.566 185.869C246.196 185.869 247.827 185.054 248.642 184.238C249.457 183.423 248.642 181.793 247.827 180.977C245.381 183.423 241.305 183.423 238.044 181.793C234.783 180.162 233.153 176.901 233.968 173.641C232.337 173.641 230.707 174.456 229.892 175.271C229.077 176.086 229.077 176.901 229.077 176.901Z" fill="#021433"/>
</g>
<defs>
<clipPath id="clip0_60_10486">
<rect width="300" height="190.761" fill="white"/>
</clipPath>
</defs>
</svg>
