<svg width="527" height="527" viewBox="0 0 527 527" fill="none" xmlns="http://www.w3.org/2000/svg">
<path d="M45.3501 0.000244141L45.3501 526.2H48.9501L48.9501 0.000244141H45.3501Z" fill="#FFE9D8"/>
<path d="M131.75 0.000244141V526.2H135.35V0.000244141H131.75Z" fill="#FFE9D8"/>
<path d="M218.05 0.000244141V526.2H221.65V0.000244141H218.05Z" fill="#FFE9D8"/>
<path d="M304.45 0.000244141V526.2H308.05V0.000244141H304.45Z" fill="#FFE9D8"/>
<path d="M390.85 0.000244141V526.2H394.45V0.000244141H390.85Z" fill="#FFE9D8"/>
<path d="M477.25 0.000244141V526.2H480.85V0.000244141H477.25Z" fill="#FFE9D8"/>
<path d="M526.2 45.3501H0V48.9501H526.2V45.3501Z" fill="#FFE9D8"/>
<path d="M526.2 131.75H0V135.35H526.2V131.75Z" fill="#FFE9D8"/>
<path d="M526.2 218.05H0V221.65H526.2V218.05Z" fill="#FFE9D8"/>
<path d="M526.2 304.45H0V308.05H526.2V304.45Z" fill="#FFE9D8"/>
<path d="M526.2 390.85H0V394.45H526.2V390.85Z" fill="#FFE9D8"/>
<path d="M526.2 477.25H0V480.85H526.2V477.25Z" fill="#FFE9D8"/>
</svg>
