<svg width="747" height="538" viewBox="0 0 747 538" fill="none" xmlns="http://www.w3.org/2000/svg">
<path d="M713.307 2.74442H1.94727V480.065H713.307V2.74442Z" fill="#FFEFE3"/>
<path d="M711.51 4.43177V478.179H3.6443V4.43177H711.51ZM715.004 0.957825H711.51H3.6443H0.150391V4.43177V478.179V481.653H3.6443H711.51H715.004V478.179V4.43177V0.957825Z" fill="#333333"/>
<path d="M713.606 62H1.54797V65.474H713.606V62Z" fill="#333333"/>
<path d="M50.762 54.7543H17.6199V14.7543H50.8618V54.7543H50.762ZM21.1138 51.2804H47.3679V18.2283H21.1138V51.2804Z" fill="#333333"/>
<path d="M20.7003 15.4027L18.0004 17.6078L46.8272 52.3802L49.5271 50.1752L20.7003 15.4027Z" fill="#333333"/>
<path d="M47.6895 15.4775L17.9583 51.9497L20.6763 54.1325L50.4075 17.6604L47.6895 15.4775Z" fill="#333333"/>
<path d="M144.798 54.7543H111.556V14.7543H144.798V54.7543ZM115.05 51.2804H141.304V18.2283H115.05V51.2804Z" fill="#333333"/>
<path d="M138.209 42.5459H118.943V46.0199H138.209V42.5459Z" fill="#333333"/>
<path d="M96.8817 49.196H63.6396V14.7543H96.8817V49.196ZM67.1336 45.7221H93.3878V18.2283H67.1336V45.7221Z" fill="#333333"/>
<path d="M102.272 54.1588H69.0303V48.402H72.5242V50.6848H98.7784V23.191H95.8834V19.7171H102.272V54.1588Z" fill="#333333"/>
<path d="M89.7941 22.0992H70.2283V42.5459H89.7941V22.0992Z" fill="#333333"/>
<path d="M725.286 30.3375H13.9264V507.658H725.286V30.3375Z" fill="#FFEFE3"/>
<path d="M723.489 32.1241V505.871H15.6234V32.1241H723.489ZM727.083 28.6501H723.589H15.6234H12.1295V32.1241V505.871V509.345H15.6234H723.489H726.983V505.871V32.1241V28.6501H727.083Z" fill="#333333"/>
<path d="M725.685 89.6923H13.627V93.1662H725.685V89.6923Z" fill="#333333"/>
<path d="M62.841 82.4467H29.599V42.4467H62.841V82.4467ZM33.0929 78.9727H59.3471V45.9206H33.0929V78.9727Z" fill="#333333"/>
<path d="M32.6997 43.1172L29.9998 45.3222L58.8267 80.0946L61.5266 77.8896L32.6997 43.1172Z" fill="#333333"/>
<path d="M59.7597 43.1171L30.0284 79.5893L32.7465 81.7721L62.4777 45.3L59.7597 43.1171Z" fill="#333333"/>
<path d="M156.777 82.4467H123.535V42.4467H156.777V82.4467ZM127.129 78.9727H153.383V45.9206H127.129V78.9727Z" fill="#333333"/>
<path d="M150.189 70.2382H130.922V73.7122H150.189V70.2382Z" fill="#333333"/>
<path d="M108.861 76.8883H75.6187V42.4467H108.861V76.8883ZM79.1126 73.4144H105.367V45.9206H79.1126V73.4144Z" fill="#333333"/>
<path d="M114.351 81.8511H81.1091V76.0943H84.603V78.3772H110.857V50.8834H107.962V47.4094H114.351V81.8511Z" fill="#333333"/>
<path d="M101.773 49.7916H82.2073V70.2382H101.773V49.7916Z" fill="#333333"/>
<path d="M744.851 58.3275H33.4922V535.648H744.851V58.3275Z" fill="#FFEFE3"/>
<path d="M743.154 60.1141V533.861H35.2891V60.1141H743.154ZM746.648 56.6402H743.154H35.2891H31.7952V60.1141V533.861V537.335H35.2891H743.154H746.648V533.861V60.1141V56.6402Z" fill="#333333"/>
<path d="M745.251 117.682H33.1927V121.156H745.251V117.682Z" fill="#333333"/>
<path d="M82.407 110.437H49.1649V70.4367H82.407V110.437ZM52.7587 106.963H79.0129V73.9107H52.7587V106.963Z" fill="#333333"/>
<path d="M52.3536 71.0728L49.6537 73.2779L78.4806 108.05L81.1805 105.845L52.3536 71.0728Z" fill="#333333"/>
<path d="M79.3425 71.1412L49.6113 107.613L52.3294 109.796L82.0605 73.324L79.3425 71.1412Z" fill="#333333"/>
<path d="M176.443 110.437H143.201V70.4367H176.443V110.437ZM146.695 106.963H172.949V73.9107H146.695V106.963Z" fill="#333333"/>
<path d="M169.854 98.2283H150.588V101.702H169.854V98.2283Z" fill="#333333"/>
<path d="M128.526 104.878H95.2844V70.4367H128.526V104.878ZM98.7783 101.404H124.933V73.9107H98.7783V101.404Z" fill="#333333"/>
<path d="M133.917 109.841H100.675V104.084H104.169V106.367H130.423V78.8734H127.528V75.3995H133.917V109.841Z" fill="#333333"/>
<path d="M121.439 77.7816H101.873V98.2283H121.439V77.7816Z" fill="#333333"/>
<path d="M743.753 121.156H34.6901V533.96H743.753V121.156Z" stroke="#34332E" stroke-width="0.5" stroke-miterlimit="10"/>
</svg>
