<svg width="1576" height="524" viewBox="0 0 1576 524" fill="none" xmlns="http://www.w3.org/2000/svg">
<path d="M51.0854 0.957825H47.4916V523.241H51.0854V0.957825Z" fill="#F45B49"/>
<path d="M138.233 0.957825H134.64V523.241H138.233V0.957825Z" fill="#F45B49"/>
<path d="M225.381 0.957825H221.788V523.241H225.381V0.957825Z" fill="#F45B49"/>
<path d="M312.529 0.957825H308.936V523.241H312.529V0.957825Z" fill="#F45B49"/>
<path d="M399.777 0.957825H396.183V523.241H399.777V0.957825Z" fill="#F45B49"/>
<path d="M486.925 0.957825H483.331V523.241H486.925V0.957825Z" fill="#F45B49"/>
<path d="M526.157 34.9032H0.872925V38.4764H526.157V34.9032Z" fill="#F45B49"/>
<path d="M526.157 120.66H0.872925V124.233H526.157V120.66Z" fill="#F45B49"/>
<path d="M526.157 206.318H0.872925V209.891H526.157V206.318Z" fill="#F45B49"/>
<path d="M526.157 292.074H0.872925V295.648H526.157V292.074Z" fill="#F45B49"/>
<path d="M526.157 377.831H0.872925V381.404H526.157V377.831Z" fill="#F45B49"/>
<path d="M526.157 463.588H0.872925V467.161H526.157V463.588Z" fill="#F45B49"/>
<path d="M574.972 0.957825H571.378V523.241H574.972V0.957825Z" fill="#F45B49"/>
<path d="M662.12 0.957825H658.526V523.241H662.12V0.957825Z" fill="#F45B49"/>
<path d="M749.268 0.957825H745.674V523.241H749.268V0.957825Z" fill="#F45B49"/>
<path d="M836.515 0.957825H832.922V523.241H836.515V0.957825Z" fill="#F45B49"/>
<path d="M923.663 0.957825H920.07V523.241H923.663V0.957825Z" fill="#F45B49"/>
<path d="M1010.81 0.957825H1007.22V523.241H1010.81V0.957825Z" fill="#F45B49"/>
<path d="M1050.04 34.9032H524.759V38.4764H1050.04V34.9032Z" fill="#F45B49"/>
<path d="M1050.04 120.66H524.759V124.233H1050.04V120.66Z" fill="#F45B49"/>
<path d="M1050.04 206.318H524.759V209.891H1050.04V206.318Z" fill="#F45B49"/>
<path d="M1050.04 292.074H524.759V295.648H1050.04V292.074Z" fill="#F45B49"/>
<path d="M1050.04 377.831H524.759V381.404H1050.04V377.831Z" fill="#F45B49"/>
<path d="M1050.04 463.588H524.759V467.161H1050.04V463.588Z" fill="#F45B49"/>
<path d="M1100.75 0.957825H1097.16V523.241H1100.75V0.957825Z" fill="#F45B49"/>
<path d="M1187.9 0.957825H1184.31V523.241H1187.9V0.957825Z" fill="#F45B49"/>
<path d="M1275.15 0.957825H1271.56V523.241H1275.15V0.957825Z" fill="#F45B49"/>
<path d="M1362.3 0.957825H1358.7V523.241H1362.3V0.957825Z" fill="#F45B49"/>
<path d="M1449.45 0.957825H1445.85V523.241H1449.45V0.957825Z" fill="#F45B49"/>
<path d="M1536.59 0.957825H1533V523.241H1536.59V0.957825Z" fill="#F45B49"/>
<path d="M1575.83 34.9032H1050.54V38.4764H1575.83V34.9032Z" fill="#F45B49"/>
<path d="M1575.83 120.66H1050.54V124.233H1575.83V120.66Z" fill="#F45B49"/>
<path d="M1575.83 206.318H1050.54V209.891H1575.83V206.318Z" fill="#F45B49"/>
<path d="M1575.83 292.074H1050.54V295.648H1575.83V292.074Z" fill="#F45B49"/>
<path d="M1575.83 377.831H1050.54V381.404H1575.83V377.831Z" fill="#F45B49"/>
<path d="M1575.83 463.588H1050.54V467.161H1575.83V463.588Z" fill="#F45B49"/>
</svg>
